<svg width="862" height="394" viewBox="0 0 862 394" fill="none" xmlns="http://www.w3.org/2000/svg">
<g clip-path="url(#clip0_1595_412)">
<path fill-rule="evenodd" clip-rule="evenodd" d="M232 390.495V3.49512H0V390.495H232Z" fill="url(#paint0_linear_1595_412)"/>
<path fill-rule="evenodd" clip-rule="evenodd" d="M0 390.495H232V240.207L115.986 124.495L0 240.207V390.495Z" fill="url(#paint1_linear_1595_412)"/>
</g>
<path d="M302.594 98.3999H279.68V58.7359H242.696V98.3999H219.782V3.5279H242.696V39.4399H279.68V3.5279H302.594V98.3999ZM421.006 50.5619C421.006 65.4806 416.137 77.6299 406.4 87.0099C396.663 96.3006 384.29 100.946 369.282 100.946C354.363 100.946 342.035 96.3006 332.298 87.0099C322.561 77.6299 317.692 65.4806 317.692 50.5619C317.692 35.5539 322.516 23.5386 332.164 14.5159C341.901 5.49323 354.274 0.981895 369.282 0.981895C384.379 0.981895 396.752 5.49323 406.4 14.5159C416.137 23.5386 421.006 35.5539 421.006 50.5619ZM396.484 50.5619C396.484 42.1646 393.938 35.2412 388.846 29.7919C383.754 24.3426 377.233 21.6179 369.282 21.6179C361.331 21.6179 354.81 24.3426 349.718 29.7919C344.715 35.2412 342.214 42.1646 342.214 50.5619C342.214 59.1379 344.715 66.1952 349.718 71.7339C354.81 77.2726 361.331 80.0419 369.282 80.0419C377.233 80.0419 383.754 77.2726 388.846 71.7339C393.938 66.1952 396.484 59.1379 396.484 50.5619ZM516.493 62.6219C516.493 74.0566 512.741 83.3026 505.237 90.3599C497.822 97.4172 487.951 100.946 475.623 100.946C463.295 100.946 453.468 97.4619 446.143 90.4939C438.817 83.4366 435.155 74.1459 435.155 62.6219V3.5279H457.935V60.7459C457.935 66.3739 459.409 71.0639 462.357 74.8159C465.305 78.4786 469.771 80.3099 475.757 80.3099C481.831 80.3099 486.298 78.4786 489.157 74.8159C492.105 71.0639 493.579 66.3739 493.579 60.7459V3.5279H516.493V62.6219ZM599.744 12.7739L585.138 28.1839C583.262 25.7719 580.716 23.8066 577.5 22.2879C574.374 20.7692 571.292 20.0099 568.254 20.0099C564.681 20.0099 561.554 20.7692 558.874 22.2879C556.284 23.7172 554.988 26.1292 554.988 29.5239C554.988 31.0426 555.301 32.3826 555.926 33.5439C556.552 34.6159 557.579 35.5986 559.008 36.4919C560.527 37.2959 562.001 38.0106 563.43 38.6359C564.86 39.1719 566.914 39.8419 569.594 40.6459C573.078 41.8072 575.803 42.7452 577.768 43.4599C579.734 44.1746 582.235 45.3806 585.272 47.0779C588.399 48.6859 590.811 50.3832 592.508 52.1699C594.206 53.9566 595.724 56.3686 597.064 59.4059C598.404 62.3539 599.074 65.6146 599.074 69.1879C599.074 79.4612 595.546 87.3226 588.488 92.7719C581.52 98.1319 572.944 100.812 562.76 100.812C555.882 100.812 549.271 99.6059 542.928 97.1939C536.586 94.7819 531.36 91.4319 527.25 87.1439L542.258 71.8679C544.581 74.8159 547.618 77.2279 551.37 79.1039C555.212 80.9799 559.008 81.9179 562.76 81.9179C566.602 81.9179 569.728 81.1139 572.14 79.5059C574.642 77.8086 575.892 75.1732 575.892 71.5999C575.892 70.1706 575.535 68.9199 574.82 67.8479C574.195 66.6866 573.48 65.7486 572.676 65.0339C571.872 64.2299 570.443 63.3812 568.388 62.4879C566.334 61.5946 564.592 60.9246 563.162 60.4779C561.733 59.9419 559.41 59.1379 556.194 58.0659C552.71 56.9046 549.718 55.6986 547.216 54.4479C544.715 53.1972 542.214 51.5446 539.712 49.4899C537.211 47.4352 535.29 44.8446 533.95 41.7179C532.61 38.5912 531.94 34.9732 531.94 30.8639C531.94 25.8612 533.012 21.3946 535.156 17.4639C537.3 13.4439 540.159 10.3172 543.732 8.0839C547.306 5.76123 551.192 4.01923 555.39 2.85789C559.678 1.69657 564.1 1.1159 568.656 1.1159C574.195 1.1159 579.734 2.14323 585.272 4.1979C590.9 6.16323 595.724 9.02189 599.744 12.7739ZM680.388 98.3999H614.192V3.5279H677.976V22.9579H636.302V40.7799H675.698V59.1379H636.302V78.8359H680.388V98.3999Z" fill="white"/>
<path d="M293.75 217.396C293.75 222.309 292.723 226.642 290.668 230.394C288.703 234.057 285.933 236.915 282.36 238.97C278.876 241.025 275.035 242.543 270.836 243.526C266.727 244.509 262.305 245 257.57 245H219.782V150.128H257.57C261.59 150.128 265.342 150.53 268.826 151.334C272.399 152.049 275.839 153.299 279.144 155.086C282.449 156.783 285.04 159.329 286.916 162.724C288.881 166.029 289.864 169.96 289.864 174.516C289.864 179.608 288.479 183.896 285.71 187.38C282.941 190.864 279.144 193.41 274.32 195.018V195.286C280.037 196.269 284.683 198.725 288.256 202.656C291.919 206.497 293.75 211.411 293.75 217.396ZM267.754 177.598C267.754 171.434 262.885 168.352 253.148 168.352H241.892V187.916H254.22C258.508 187.916 261.813 187.023 264.136 185.236C266.548 183.449 267.754 180.903 267.754 177.598ZM270.836 215.252C270.836 208.284 265.431 204.8 254.622 204.8H241.892V226.508H254.756C265.476 226.508 270.836 222.756 270.836 215.252ZM389.297 209.222C389.297 220.657 385.545 229.903 378.041 236.96C370.627 244.017 360.755 247.546 348.427 247.546C336.099 247.546 326.273 244.062 318.947 237.094C311.622 230.037 307.959 220.746 307.959 209.222V150.128H330.739V207.346C330.739 212.974 332.213 217.664 335.161 221.416C338.109 225.079 342.576 226.91 348.561 226.91C354.636 226.91 359.103 225.079 361.961 221.416C364.909 217.664 366.383 212.974 366.383 207.346V150.128H389.297V209.222ZM472.549 159.374L457.943 174.784C456.067 172.372 453.521 170.407 450.305 168.888C447.178 167.369 444.096 166.61 441.059 166.61C437.486 166.61 434.359 167.369 431.679 168.888C429.088 170.317 427.793 172.729 427.793 176.124C427.793 177.643 428.106 178.983 428.731 180.144C429.356 181.216 430.384 182.199 431.813 183.092C433.332 183.896 434.806 184.611 436.235 185.236C437.664 185.772 439.719 186.442 442.399 187.246C445.883 188.407 448.608 189.345 450.573 190.06C452.538 190.775 455.04 191.981 458.077 193.678C461.204 195.286 463.616 196.983 465.313 198.77C467.01 200.557 468.529 202.969 469.869 206.006C471.209 208.954 471.879 212.215 471.879 215.788C471.879 226.061 468.35 233.923 461.293 239.372C454.325 244.732 445.749 247.412 435.565 247.412C428.686 247.412 422.076 246.206 415.733 243.794C409.39 241.382 404.164 238.032 400.055 233.744L415.063 218.468C417.386 221.416 420.423 223.828 424.175 225.704C428.016 227.58 431.813 228.518 435.565 228.518C439.406 228.518 442.533 227.714 444.945 226.106C447.446 224.409 448.697 221.773 448.697 218.2C448.697 216.771 448.34 215.52 447.625 214.448C447 213.287 446.285 212.349 445.481 211.634C444.677 210.83 443.248 209.981 441.193 209.088C439.138 208.195 437.396 207.525 435.967 207.078C434.538 206.542 432.215 205.738 428.999 204.666C425.515 203.505 422.522 202.299 420.021 201.048C417.52 199.797 415.018 198.145 412.517 196.09C410.016 194.035 408.095 191.445 406.755 188.318C405.415 185.191 404.745 181.573 404.745 177.464C404.745 172.461 405.817 167.995 407.961 164.064C410.105 160.044 412.964 156.917 416.537 154.684C420.11 152.361 423.996 150.619 428.195 149.458C432.483 148.297 436.905 147.716 441.461 147.716C447 147.716 452.538 148.743 458.077 150.798C463.705 152.763 468.529 155.622 472.549 159.374ZM510.045 245H486.997V150.128H510.045V245ZM615.953 245H589.957L551.767 182.958H551.365L551.901 245H529.657V150.128H555.787L593.843 212.036H594.245L593.709 150.128H615.953V245ZM701.718 245H635.522V150.128H699.306V169.558H657.632V187.38H697.028V205.738H657.632V225.436H701.718V245ZM781.639 159.374L767.033 174.784C765.157 172.372 762.611 170.407 759.395 168.888C756.268 167.369 753.186 166.61 750.149 166.61C746.575 166.61 743.449 167.369 740.769 168.888C738.178 170.317 736.883 172.729 736.883 176.124C736.883 177.643 737.195 178.983 737.821 180.144C738.446 181.216 739.473 182.199 740.903 183.092C742.421 183.896 743.895 184.611 745.325 185.236C746.754 185.772 748.809 186.442 751.489 187.246C754.973 188.407 757.697 189.345 759.663 190.06C761.628 190.775 764.129 191.981 767.167 193.678C770.293 195.286 772.705 196.983 774.403 198.77C776.1 200.557 777.619 202.969 778.959 206.006C780.299 208.954 780.969 212.215 780.969 215.788C780.969 226.061 777.44 233.923 770.383 239.372C763.415 244.732 754.839 247.412 744.655 247.412C737.776 247.412 731.165 246.206 724.823 243.794C718.48 241.382 713.254 238.032 709.145 233.744L724.153 218.468C726.475 221.416 729.513 223.828 733.265 225.704C737.106 227.58 740.903 228.518 744.655 228.518C748.496 228.518 751.623 227.714 754.035 226.106C756.536 224.409 757.787 221.773 757.787 218.2C757.787 216.771 757.429 215.52 756.715 214.448C756.089 213.287 755.375 212.349 754.571 211.634C753.767 210.83 752.337 209.981 750.283 209.088C748.228 208.195 746.486 207.525 745.057 207.078C743.627 206.542 741.305 205.738 738.089 204.666C734.605 203.505 731.612 202.299 729.111 201.048C726.609 199.797 724.108 198.145 721.607 196.09C719.105 194.035 717.185 191.445 715.845 188.318C714.505 185.191 713.835 181.573 713.835 177.464C713.835 172.461 714.907 167.995 717.051 164.064C719.195 160.044 722.053 156.917 725.627 154.684C729.2 152.361 733.086 150.619 737.285 149.458C741.573 148.297 745.995 147.716 750.551 147.716C756.089 147.716 761.628 148.743 767.167 150.798C772.795 152.763 777.619 155.622 781.639 159.374ZM860.809 159.374L846.203 174.784C844.327 172.372 841.781 170.407 838.565 168.888C835.438 167.369 832.356 166.61 829.319 166.61C825.745 166.61 822.619 167.369 819.939 168.888C817.348 170.317 816.053 172.729 816.053 176.124C816.053 177.643 816.365 178.983 816.991 180.144C817.616 181.216 818.643 182.199 820.073 183.092C821.591 183.896 823.065 184.611 824.495 185.236C825.924 185.772 827.979 186.442 830.659 187.246C834.143 188.407 836.867 189.345 838.833 190.06C840.798 190.775 843.299 191.981 846.337 193.678C849.463 195.286 851.875 196.983 853.573 198.77C855.27 200.557 856.789 202.969 858.129 206.006C859.469 208.954 860.139 212.215 860.139 215.788C860.139 226.061 856.61 233.923 849.553 239.372C842.585 244.732 834.009 247.412 823.825 247.412C816.946 247.412 810.335 246.206 803.993 243.794C797.65 241.382 792.424 238.032 788.315 233.744L803.323 218.468C805.645 221.416 808.683 223.828 812.435 225.704C816.276 227.58 820.073 228.518 823.825 228.518C827.666 228.518 830.793 227.714 833.205 226.106C835.706 224.409 836.957 221.773 836.957 218.2C836.957 216.771 836.599 215.52 835.885 214.448C835.259 213.287 834.545 212.349 833.741 211.634C832.937 210.83 831.507 209.981 829.453 209.088C827.398 208.195 825.656 207.525 824.227 207.078C822.797 206.542 820.475 205.738 817.259 204.666C813.775 203.505 810.782 202.299 808.281 201.048C805.779 199.797 803.278 198.145 800.777 196.09C798.275 194.035 796.355 191.445 795.015 188.318C793.675 185.191 793.005 181.573 793.005 177.464C793.005 172.461 794.077 167.995 796.221 164.064C798.365 160.044 801.223 156.917 804.797 154.684C808.37 152.361 812.256 150.619 816.455 149.458C820.743 148.297 825.165 147.716 829.721 147.716C835.259 147.716 840.798 148.743 846.337 150.798C851.965 152.763 856.789 155.622 860.809 159.374Z" fill="white"/>
<path d="M308.356 342.796C308.356 350.836 306.837 357.983 303.8 364.236C300.763 370.489 296.653 375.492 291.472 379.244C286.38 382.996 280.752 385.81 274.588 387.686C268.424 389.562 261.947 390.5 255.158 390.5H219.782V295.628H254.086C259.714 295.628 265.029 296.119 270.032 297.102C275.124 297.995 280.037 299.603 284.772 301.926C289.507 304.249 293.571 307.152 296.966 310.636C300.45 314.12 303.219 318.631 305.274 324.17C307.329 329.619 308.356 335.828 308.356 342.796ZM284.504 342.796C284.504 337.704 283.655 333.327 281.958 329.664C280.261 325.912 277.893 323.009 274.856 320.954C271.908 318.899 268.647 317.425 265.074 316.532C261.59 315.639 257.749 315.192 253.55 315.192H242.16V370.668H253.014C262.215 370.668 269.764 368.479 275.66 364.102C281.556 359.725 284.504 352.623 284.504 342.796ZM410.062 390.5H384.602L377.232 371.874H340.516L333.548 390.5H308.624L348.422 295.628H370.666L410.062 390.5ZM370.934 353.516L359.142 320.954L347.082 353.516H370.934ZM492.465 295.628L456.017 350.3V390.5H433.103V350.3L397.459 295.628H425.197L445.431 330.736L465.665 295.628H492.465ZM597.726 390.5H529.118V371.74L566.102 338.24C571.283 333.327 573.874 328.458 573.874 323.634C573.874 320.239 572.802 317.515 570.658 315.46C568.514 313.316 565.655 312.244 562.082 312.244C558.419 312.244 555.382 313.584 552.97 316.264C550.558 318.855 549.129 322.294 548.682 326.582L527.108 323.634C528.18 314.254 532.111 306.839 538.9 301.39C545.689 295.851 553.819 293.082 563.288 293.082C572.757 293.082 580.842 295.583 587.542 300.586C594.242 305.589 597.592 312.78 597.592 322.16C597.592 328.235 596.163 333.416 593.304 337.704C590.535 341.992 586.425 346.548 580.976 351.372L559 370.936H597.726V390.5ZM684.891 323.634C686.32 329.441 687.035 335.828 687.035 342.796C687.035 349.764 686.32 356.196 684.891 362.092C683.551 367.988 681.451 373.303 678.593 378.038C675.823 382.683 671.982 386.346 667.069 389.026C662.245 391.706 656.572 393.046 650.051 393.046C641.475 393.046 634.283 390.679 628.477 385.944C622.759 381.209 618.695 375.224 616.283 367.988C613.96 360.663 612.799 352.265 612.799 342.796C612.799 335.828 613.469 329.441 614.809 323.634C616.238 317.827 618.382 312.601 621.241 307.956C624.099 303.311 627.985 299.693 632.899 297.102C637.812 294.422 643.529 293.082 650.051 293.082C656.572 293.082 662.245 294.422 667.069 297.102C671.982 299.693 675.823 303.311 678.593 307.956C681.451 312.601 683.551 317.827 684.891 323.634ZM663.987 342.796C663.987 339.312 663.808 336.007 663.451 332.88C663.093 329.664 662.423 326.403 661.441 323.098C660.547 319.793 659.118 317.157 657.153 315.192C655.187 313.137 652.82 312.11 650.051 312.11C647.281 312.11 644.869 313.137 642.815 315.192C640.849 317.157 639.375 319.793 638.393 323.098C637.499 326.403 636.829 329.664 636.383 332.88C636.025 336.007 635.847 339.312 635.847 342.796C635.847 346.28 636.025 349.63 636.383 352.846C636.829 356.062 637.499 359.367 638.393 362.762C639.375 366.067 640.849 368.747 642.815 370.802C644.78 372.767 647.192 373.75 650.051 373.75C652.82 373.75 655.187 372.767 657.153 370.802C659.118 368.747 660.547 366.067 661.441 362.762C662.423 359.367 663.093 356.107 663.451 352.98C663.808 349.764 663.987 346.369 663.987 342.796ZM770.984 390.5H702.376V371.74L739.36 338.24C744.541 333.327 747.132 328.458 747.132 323.634C747.132 320.239 746.06 317.515 743.916 315.46C741.772 313.316 738.913 312.244 735.34 312.244C731.677 312.244 728.64 313.584 726.228 316.264C723.816 318.855 722.386 322.294 721.94 326.582L700.366 323.634C701.438 314.254 705.368 306.839 712.158 301.39C718.947 295.851 727.076 293.082 736.546 293.082C746.015 293.082 754.1 295.583 760.8 300.586C767.5 305.589 770.85 312.78 770.85 322.16C770.85 328.235 769.42 333.416 766.562 337.704C763.792 341.992 759.683 346.548 754.234 351.372L732.258 370.936H770.984V390.5ZM857.881 359.144C857.881 370.043 854.307 378.44 847.161 384.336C840.014 390.143 831.393 393.046 821.299 393.046C812.544 393.046 804.906 390.902 798.385 386.614C791.863 382.237 787.486 376.341 785.253 368.926L805.755 362.628C806.737 366.023 808.613 368.792 811.383 370.936C814.241 372.991 817.457 374.018 821.031 374.018C825.051 374.018 828.401 372.812 831.081 370.4C833.85 367.988 835.235 364.593 835.235 360.216C835.235 355.035 833.359 351.327 829.607 349.094C825.855 346.861 821.254 345.744 815.805 345.744C808.033 345.744 800.305 347.129 792.623 349.898L794.901 295.628H853.057V314.924H814.867L814.063 329.932C816.653 329.307 819.825 328.994 823.577 328.994C833.582 328.994 841.801 331.629 848.233 336.9C854.665 342.081 857.881 349.496 857.881 359.144Z" fill="white"/>
<defs>
<linearGradient id="paint0_linear_1595_412" x1="259.495" y1="367.471" x2="-26.4535" y2="25.6203" gradientUnits="userSpaceOnUse">
<stop stop-color="#E64123"/>
<stop offset="1" stop-color="#F6A30A"/>
</linearGradient>
<linearGradient id="paint1_linear_1595_412" x1="246.213" y1="365.907" x2="7.27659" y2="227.621" gradientUnits="userSpaceOnUse">
<stop stop-color="#E64123"/>
<stop offset="1" stop-color="#EB6420"/>
</linearGradient>
<clipPath id="clip0_1595_412">
<rect width="232" height="387" fill="white" transform="translate(0 3.49512)"/>
</clipPath>
</defs>
</svg>
