<svg width="150" height="29" viewBox="0 0 150 29" fill="none" xmlns="http://www.w3.org/2000/svg">
<path fill-rule="evenodd" clip-rule="evenodd" d="M145.736 0.997311C145.861 0.611403 146.241 0.404416 146.624 0.368164C146.65 0.64291 146.658 0.918653 146.666 1.1944V1.19488C146.677 1.58681 146.689 1.97875 146.75 2.36787C146.85 2.89541 146.687 3.39067 146.525 3.88576C146.447 4.12049 146.37 4.35519 146.321 4.59327C146.484 4.31092 146.61 4.01004 146.736 3.70978C146.755 3.66433 146.774 3.6189 146.793 3.57354C146.945 3.19363 147.226 2.90924 147.508 2.62432C147.78 2.34971 148.053 2.07457 148.21 1.713C148.512 1.07098 149.068 0.29449 149.882 0.483936C150.078 0.63602 149.943 0.838232 149.826 1.01212C149.795 1.05885 149.765 1.10354 149.744 1.14466C149.501 1.46609 149.324 1.82582 149.147 2.18537C149.056 2.36999 148.965 2.55457 148.866 2.7339C148.434 3.39121 147.907 3.97314 147.38 4.55491L147.38 4.55505C146.847 5.14383 146.314 5.73244 145.88 6.39885C145.75 6.59701 145.543 6.68655 145.334 6.77631C145.201 6.83381 145.067 6.89141 144.954 6.97772C144.901 7.05329 144.857 7.13868 144.812 7.2243C144.693 7.45269 144.574 7.68266 144.293 7.73199C144.004 7.78796 143.795 7.97555 143.587 8.16312C143.39 8.34003 143.194 8.51692 142.929 8.58333C142.869 8.60081 142.808 8.6182 142.747 8.63562C141.945 8.86526 141.127 9.09963 140.447 9.60072C139.027 10.6976 137.718 11.9396 136.595 13.3429L136.53 13.4221C134.756 15.5838 132.943 17.7922 130.556 19.301C130.514 19.2689 130.472 19.235 130.429 19.2005C130.161 18.9844 129.87 18.7499 129.506 18.8356C128.766 18.9724 128.122 19.3718 127.486 19.7666C127.296 19.8848 127.106 20.0025 126.915 20.1126C125.201 21.1756 123.391 22.2725 121.337 22.4421C120.929 22.4898 120.524 22.4465 120.12 22.4032C119.909 22.3807 119.698 22.3582 119.487 22.3486C119.14 22.4992 118.822 22.7026 118.502 22.9061C118.215 23.0896 117.927 23.2733 117.618 23.4186C116.616 23.9879 115.532 24.3749 114.452 24.7606L114.451 24.7611C115.383 24.8046 116.306 24.6748 117.227 24.5452C117.394 24.5217 117.561 24.4982 117.728 24.4757C117.048 25.5103 116.212 26.4228 115.378 27.3333C115.228 27.4962 115.079 27.6591 114.931 27.8226C120.705 27.8213 126.479 27.8215 132.254 27.8216C136.582 27.8218 140.91 27.8219 145.238 27.8214C145.845 27.8304 146.451 27.8256 147.058 27.8209C148.036 27.8132 149.015 27.8055 149.992 27.8553C149.992 28.0039 149.995 28.1535 150 28.3044C146.454 28.3318 142.907 28.3276 139.361 28.3234H139.36C137.162 28.3208 134.964 28.3182 132.766 28.3231C115.606 28.3208 98.4463 28.3219 81.2863 28.323C54.1909 28.3247 27.0954 28.3264 0 28.3149C0 28.1559 0.00116568 27.9968 0.00233131 27.839C2.001 27.8132 4.0001 27.8172 5.99938 27.8213C7.26369 27.8239 8.52806 27.8264 9.79244 27.8214C20.4969 27.8219 31.2016 27.8218 41.9063 27.8216H41.9064C56.1875 27.8215 70.4686 27.8213 84.7493 27.8226C85.1584 27.8143 85.5455 27.6869 85.9319 27.5598L85.932 27.5598L85.9322 27.5597C86.0874 27.5087 86.2424 27.4577 86.3987 27.4145C88.3744 26.8368 90.3851 26.3503 92.432 26.1059C93.3026 26.0016 94.1782 25.9975 95.0538 25.9934C95.2977 25.9922 95.5417 25.9911 95.7855 25.9878C96.268 25.168 96.7949 24.3412 97.584 23.7834C98.4769 23.1519 99.4397 22.6093 100.469 22.2351C100.804 22.1124 101.041 21.85 101.276 21.5896L101.277 21.5881C101.362 21.4941 101.447 21.4004 101.536 21.3136C102.293 20.4681 103.268 19.8203 104.324 19.4157C104.254 19.5808 104.18 19.7456 104.107 19.9109L104.105 19.914C103.757 20.6983 103.403 21.492 103.389 22.3661C103.805 21.2435 104.631 20.3535 105.516 19.5782C106.098 19.0859 106.459 18.3293 106.39 17.5586C106.332 16.6558 106.091 15.7877 105.849 14.9192C105.618 14.0857 105.386 13.2516 105.316 12.3863C105.289 12.0894 105.292 11.7921 105.295 11.4949C105.296 11.332 105.298 11.1691 105.295 11.0064C105.32 10.7795 105.167 10.6179 105.021 10.4626L105.02 10.4625C104.976 10.4154 104.932 10.3688 104.894 10.3211C104.347 9.7621 103.891 9.01952 103.953 8.20678C103.979 7.82438 104.155 7.36246 104.573 7.27475C104.897 7.18175 105.191 7.3297 105.478 7.4744C105.581 7.52622 105.683 7.57761 105.785 7.61739L105.766 7.58961C105.607 7.35934 105.441 7.11972 105.187 6.98707C104.891 6.82457 104.552 6.80251 104.22 6.78092C104.141 6.77579 104.062 6.77068 103.985 6.76371C103.79 5.15576 104.938 3.47765 106.547 3.18997C107.367 3.06952 108.368 3.11513 108.935 3.81561C109.288 4.23279 109.362 4.76608 109.435 5.29229L109.435 5.29272C109.46 5.47291 109.485 5.65226 109.521 5.82584C109.574 6.11148 109.849 6.20586 110.106 6.29406C110.189 6.3225 110.27 6.3503 110.341 6.38365C111.165 6.66314 112.066 7.25955 112.166 8.20444C112.197 8.37665 112.22 8.55046 112.244 8.72434L112.244 8.7246L112.244 8.72487L112.244 8.72515L112.244 8.7257C112.297 9.10861 112.349 9.49196 112.474 9.85916C112.527 10.0924 112.745 10.1508 112.955 10.2069C113.029 10.2267 113.102 10.2463 113.166 10.2731C112.878 10.5865 112.562 10.8742 112.237 11.1479C112.271 11.1732 112.304 11.1984 112.338 11.2237C112.608 11.4264 112.88 11.6299 113.132 11.8565C112.813 11.9584 112.496 11.8947 112.177 11.8308C111.98 11.7913 111.783 11.7517 111.586 11.7513C111.495 11.7905 111.433 11.8666 111.372 11.9418C111.344 11.9764 111.316 12.0107 111.286 12.0413C111.608 12.207 111.943 12.3441 112.278 12.4815C112.326 12.5012 112.374 12.5209 112.422 12.5406C112.186 12.9686 111.702 12.9972 111.264 13.0232C111.207 13.0266 111.15 13.0299 111.095 13.0341C111.004 13.2411 110.899 13.5066 111.096 13.6925C111.424 14.0431 111.893 14.1549 112.349 14.2638C112.478 14.2945 112.605 14.3249 112.728 14.3603C112.309 14.9118 111.631 15.0118 110.983 15.1073C110.805 15.1335 110.63 15.1593 110.463 15.194C110.019 15.6104 110.083 16.2898 110.146 16.8418C111.901 16.0887 113.724 15.3671 115.651 15.2572C115.335 15.4305 115 15.5611 114.665 15.6917C114.345 15.8166 114.024 15.9415 113.72 16.1039C110.899 17.5072 108.409 19.5583 106.399 21.9825C105.036 23.677 103.828 25.6182 103.528 27.8132C104.597 27.8281 105.666 27.8245 106.736 27.8209C106.93 27.8203 107.125 27.8196 107.319 27.8191C107.178 25.8007 108.014 23.8723 109.072 22.2047C110.775 19.584 113.18 17.3692 116.056 16.1144C117.716 15.3929 119.564 15.083 121.364 15.3227C121.868 15.401 122.359 15.5648 122.797 15.8337C122.533 15.9792 122.247 16.0565 121.96 16.1339C121.737 16.1939 121.514 16.2539 121.302 16.3459C120.86 16.5342 120.421 16.7739 120.106 17.1458C119.786 17.5165 119.687 18.086 119.919 18.5269C120.121 18.8403 120.521 18.9292 120.87 18.9561C121.765 19.0124 122.624 18.7247 123.463 18.4441L123.464 18.4437L123.59 18.4019C123.614 18.3937 123.639 18.3854 123.664 18.3772C125.772 17.6966 127.556 16.2313 128.845 14.4468C128.954 14.3088 129.053 14.1611 129.152 14.0131C129.397 13.6493 129.643 13.284 130.028 13.0587C130.704 12.6399 131.406 12.2664 132.108 11.893C132.992 11.4229 133.875 10.9529 134.707 10.3924C135.729 9.72234 136.673 8.94234 137.602 8.14947C137.636 8.12554 137.669 8.09854 137.702 8.07128C137.797 7.99335 137.894 7.91334 138.017 7.89688C138.127 7.92319 138.234 7.959 138.342 7.99484C138.575 8.07212 138.808 8.14951 139.057 8.13193C139.592 8.10927 140.118 8.00981 140.643 7.91041C140.876 7.86623 141.11 7.82203 141.344 7.78462C141.389 7.77431 141.436 7.76452 141.483 7.75458C141.81 7.68556 142.173 7.60917 142.35 7.30048C142.645 6.76137 142.754 6.14275 142.849 5.54284C142.912 5.16489 142.774 4.82022 142.637 4.47483C142.5 4.132 142.362 3.78847 142.421 3.41099C142.433 3.03795 142.661 2.707 143.018 2.58889C143.302 2.9927 143.474 3.45787 143.643 3.91926C143.668 3.98699 143.693 4.05464 143.718 4.122C143.844 4.46076 143.856 4.81973 143.869 5.1783C143.875 5.33713 143.88 5.49589 143.896 5.65276C143.955 5.12653 144.026 4.60146 144.164 4.09042C144.268 3.71356 144.162 3.35037 144.055 2.98677C143.951 2.62942 143.846 2.27165 143.941 1.9001C144.006 1.53524 144.332 1.1622 144.734 1.30253C144.897 1.94571 145.05 2.5924 145.172 3.24493C145.273 3.75713 145.196 4.27064 145.121 4.78101C145.096 4.94998 145.07 5.11861 145.052 5.28674C145.165 4.94875 145.241 4.60084 145.317 4.25274L145.317 4.25251L145.317 4.25232L145.317 4.25213L145.317 4.25191C145.389 3.92465 145.46 3.59713 145.562 3.27768C145.675 2.90025 145.664 2.51017 145.654 2.12029V2.1199C145.644 1.74166 145.634 1.36346 145.736 0.997311ZM108.779 7.90507C108.756 7.93538 108.733 7.96609 108.709 7.99725C108.52 8.24617 108.31 8.52322 108.357 8.84645C108.489 9.04608 108.689 9.18334 108.888 9.32073C109.126 9.48434 109.364 9.64812 109.49 9.91763C109.555 10.1069 109.595 10.3036 109.635 10.5006L109.635 10.5008C109.654 10.5947 109.673 10.6886 109.695 10.7818C110.547 10.4649 110.898 9.50132 110.937 8.65934C110.982 8.36932 110.637 8.24069 110.411 8.1869C110.255 8.16266 110.099 8.14247 109.944 8.12229C109.551 8.07142 109.158 8.02062 108.779 7.90507Z" fill="white" fill-opacity="0.94"/>
<path d="M141.353 1.90243C141.71 1.86618 142.064 2.10591 142.06 2.48948C142.159 2.97806 141.828 3.34351 141.523 3.68038C141.469 3.74021 141.416 3.79914 141.366 3.8577C141.009 4.24712 140.734 4.833 140.971 5.35105C141.139 5.52983 141.372 5.60469 141.605 5.67962C141.738 5.72231 141.871 5.76503 141.992 5.827C141.096 6.48512 140.044 6.81999 138.997 7.15293C138.747 7.23234 138.498 7.31164 138.252 7.39519C138.397 6.85843 138.517 6.31582 138.595 5.76619C138.663 5.18906 139.084 4.79326 139.49 4.41239C139.589 4.3194 139.687 4.22731 139.779 4.13369C139.854 4.05613 139.932 3.97866 140.01 3.90077C140.585 3.32562 141.183 2.72741 141.353 1.90243Z" fill="white" fill-opacity="0.94"/>
<path d="M15.5752 5.22241C14.9142 5.06805 14.2254 5.09027 13.5551 5.15342C13.5566 7.01819 13.556 8.88296 13.5554 10.7477C13.5546 13.3583 13.5539 15.9689 13.5586 18.5795C14.6741 18.5877 15.7896 18.5854 16.904 18.583C16.9479 18.0799 16.9422 17.5758 16.9365 17.0726L16.9354 16.9786C16.935 15.6528 16.9353 14.3269 16.9355 13.001V13.0006C16.936 11.012 16.9364 9.02328 16.9343 7.03501C16.9599 6.20706 16.3724 5.4294 15.5752 5.22241Z" fill="white" fill-opacity="0.94"/>
<path fill-rule="evenodd" clip-rule="evenodd" d="M69.4446 5.15344C69.5717 5.15017 69.6995 5.14467 69.8277 5.13915C70.3879 5.11505 70.9555 5.09063 71.4962 5.2505C72.1629 5.47035 72.6886 6.09248 72.7434 6.80231C72.7852 7.35083 72.7774 7.90055 72.7696 8.4503C72.7641 8.83468 72.7587 9.21908 72.7702 9.60307C73.5255 9.1201 74.3939 8.78448 75.3031 8.81839C76.3883 8.8067 77.47 9.29318 78.1705 10.1281C78.8478 10.9198 79.1881 11.9676 79.1846 13.0037C79.2033 14.4702 78.8315 16.0442 77.7521 17.0979C76.6517 18.1808 75.0583 18.5596 73.5605 18.5819C72.192 18.5842 70.8248 18.5842 69.4575 18.5842C69.4073 18.1058 69.4143 17.6245 69.4213 17.1438C69.4221 17.0887 69.423 17.0337 69.4237 16.9786C69.4225 13.7042 69.4225 10.4299 69.4237 7.15548C69.4243 6.9663 69.4228 6.77711 69.4213 6.58796L69.4213 6.58665V6.58621C69.4175 6.10832 69.4138 5.63055 69.4446 5.15344ZM72.7702 10.7889C72.7706 11.522 72.7703 12.2552 72.7699 12.9883C72.7694 14.3087 72.7688 15.629 72.7725 16.9494C73.4054 16.9821 74.0978 16.9423 74.6119 16.5214C75.4208 15.884 75.6295 14.7918 75.6924 13.8188C75.7693 12.8728 75.5117 11.8343 74.7564 11.2099C74.2109 10.7421 73.4509 10.6848 72.7702 10.7889Z" fill="white" fill-opacity="0.94"/>
<path d="M91.8395 5.13781C91.6893 5.14441 91.5409 5.15093 91.3957 5.15343L91.3933 6.04686V6.06028C91.3822 10.2348 91.3711 14.4111 91.4026 18.5854C92.5157 18.5842 93.6287 18.5842 94.7429 18.5842H94.7503C94.7747 16.4132 94.7711 14.2414 94.7675 12.0697V12.0674C94.765 10.5071 94.7624 8.94685 94.7702 7.38702C94.8016 6.70876 94.6116 5.96384 94.037 5.54869C93.4059 5.06899 92.6016 5.10433 91.8395 5.13781Z" fill="white" fill-opacity="0.94"/>
<path fill-rule="evenodd" clip-rule="evenodd" d="M4.68465 6.14041C4.96647 6.1492 5.25124 6.14128 5.53649 6.13335C6.19981 6.11491 6.86573 6.0964 7.50314 6.28775C8.16755 6.48772 8.51607 7.1426 8.71773 7.75771C9.18545 9.15008 9.66024 10.5402 10.135 11.9303C10.5642 13.1869 10.9934 14.4434 11.4173 15.7016C11.5029 15.9455 11.5868 16.1902 11.6707 16.4349C11.9169 17.1531 12.1632 17.8715 12.4536 18.5737C11.9301 18.5641 11.4063 18.5656 10.8825 18.5671C10.4406 18.5684 9.99862 18.5697 9.55698 18.5643C9.12103 18.5737 8.67343 18.3515 8.49509 17.9375C8.29641 17.4966 8.15647 17.0337 8.01645 16.5705C7.91248 16.2266 7.80846 15.8826 7.68032 15.5472C6.9801 15.5148 6.27913 15.5194 5.57826 15.5241H5.57789C5.03989 15.5276 4.5018 15.5312 3.9643 15.518C3.88916 15.5235 3.81135 15.522 3.7331 15.5204C3.54792 15.5167 3.36024 15.5129 3.19964 15.6033C2.97991 16.119 2.80455 16.6525 2.62916 17.1861C2.47798 17.6461 2.32677 18.1062 2.14708 18.555C1.61632 18.5994 1.08426 18.5925 0.552354 18.5857C0.370575 18.5833 0.188675 18.581 0.00698952 18.5807C0.142038 18.1349 0.309315 17.7008 0.476583 17.2668C0.567742 17.0302 0.658898 16.7937 0.744832 16.5552C1.35055 14.9524 1.95279 13.348 2.55502 11.7436L2.55508 11.7434L2.5553 11.7428C3.11073 10.2631 3.66614 8.78346 4.22423 7.30515C4.36294 6.91105 4.50631 6.51813 4.68465 6.14041ZM3.75681 13.951C4.88514 13.9814 6.0158 13.9907 7.14296 13.9451C6.78682 12.7208 6.38913 11.5082 5.99148 10.2956L5.99133 10.2951C5.83981 9.83312 5.68827 9.37104 5.53906 8.90842C5.10696 9.99679 4.73026 11.1074 4.35367 12.2176L4.35361 12.2178C4.15727 12.7966 3.96092 13.3755 3.75681 13.951Z" fill="white" fill-opacity="0.94"/>
<path d="M45.6185 6.10391C45.483 6.10707 45.3476 6.11023 45.2123 6.11237C45.1857 8.10292 45.1897 10.0944 45.1936 12.0859C45.1961 13.327 45.1986 14.5682 45.1936 15.8092C45.2 16.147 45.1964 16.4852 45.1929 16.8234C45.1867 17.4099 45.1804 17.9967 45.2263 18.5819C45.9198 18.5889 46.6145 18.5877 47.3093 18.5854C47.3351 17.2386 47.3309 15.8916 47.3266 14.5447C47.3227 13.2812 47.3187 12.0178 47.3396 10.755C47.6404 11.0535 47.9107 11.3798 48.1812 11.7062L48.1814 11.7064C48.2997 11.8492 48.4181 11.992 48.539 12.1325C49.106 12.8046 49.6742 13.4754 50.2424 14.1462L50.2426 14.1464L50.2436 14.1475L50.2454 14.1497L50.2482 14.153C51.2491 15.3346 52.2498 16.516 53.2435 17.7036C53.571 18.0837 53.9568 18.486 54.479 18.5562C54.8927 18.6037 55.3095 18.5958 55.7263 18.5879C55.8837 18.5849 56.0411 18.5819 56.1983 18.5819C56.2492 18.1012 56.2425 17.619 56.2358 17.1367C56.2324 16.8891 56.229 16.6414 56.2333 16.3939C56.2347 15.2392 56.2343 14.0844 56.2339 12.9297V12.9295C56.2333 11.0826 56.2327 9.23572 56.2391 7.38938C56.2356 7.03154 56.2182 6.61639 55.9151 6.37315C55.545 6.05504 55.0538 6.07791 54.5839 6.09978C54.444 6.10629 54.306 6.11272 54.1736 6.11003C54.1425 7.50566 54.1475 8.90167 54.1525 10.2976C54.1563 11.3592 54.1601 12.4207 54.148 13.482C53.8452 13.2218 53.5928 12.913 53.3409 12.6047C53.268 12.5155 53.1951 12.4263 53.1211 12.3384C51.9091 10.9214 50.7017 9.49987 49.4945 8.07869L49.4942 8.07827L49.4937 8.07764L49.4934 8.0773L49.4926 8.07638L49.4911 8.07463C49.197 7.72845 48.903 7.38229 48.6089 7.03621C48.2441 6.60821 47.7895 6.19073 47.2067 6.12758C46.6785 6.07915 46.1481 6.09154 45.6185 6.10391Z" fill="white" fill-opacity="0.94"/>
<path d="M113.236 7.90741C113.737 7.78111 114.354 7.92612 114.69 8.34126C114.94 8.66403 114.591 9.06864 114.291 9.19962C113.864 9.21716 113.424 9.12477 113.032 8.95521C112.891 8.61491 112.83 8.0875 113.236 7.90741Z" fill="white" fill-opacity="0.94"/>
<path fill-rule="evenodd" clip-rule="evenodd" d="M41.691 9.64869C40.6093 8.88973 39.2385 8.58802 37.9342 8.74473C36.4841 8.90727 35.0842 9.67207 34.2822 10.914C33.5304 12.032 33.281 13.4399 33.4535 14.7637C33.626 16.0349 34.3825 17.1961 35.4444 17.9024C36.7895 18.7935 38.5251 19.045 40.0719 18.6029C41.2888 18.2848 42.3729 17.4721 43.0023 16.3787C43.6434 15.2853 43.8404 13.9627 43.6469 12.7172C43.4476 11.4823 42.7109 10.3585 41.691 9.64869ZM37.0902 12.6459C37.1835 11.9022 37.3315 10.9912 38.0507 10.5959C38.3538 10.4626 38.7116 10.4521 39.0229 10.562C39.4308 10.7327 39.6604 11.1526 39.7957 11.5537C40.1057 12.5114 40.0824 13.5358 40.0591 14.531C40.0148 15.2163 39.9379 15.9495 39.5322 16.526C39.1709 17.0534 38.3573 17.1704 37.8665 16.7623C37.4259 16.3951 37.2534 15.8139 37.1532 15.2701C37.018 14.4035 37.0051 13.5183 37.0902 12.6459Z" fill="white" fill-opacity="0.94"/>
<path fill-rule="evenodd" clip-rule="evenodd" d="M62.1804 8.74354C63.5407 8.58567 64.9721 8.91545 66.076 9.74339C67.1495 10.5234 67.8547 11.7864 67.9596 13.1113C68.0739 14.4328 67.7451 15.8209 66.9269 16.8768C65.2612 19.0777 61.8342 19.4098 59.63 17.8498C58.6008 17.14 57.8828 15.9939 57.7137 14.7508C57.5354 13.3779 57.8222 11.915 58.6334 10.7807C59.4517 9.62879 60.7875 8.8979 62.1804 8.74354ZM62.2993 10.5994C61.9625 10.7643 61.7503 11.1011 61.6163 11.4402C61.3505 12.122 61.3109 12.8634 61.3097 13.5884C61.3074 14.3649 61.3225 15.159 61.5731 15.9016C61.7014 16.2711 61.8995 16.6465 62.2469 16.8511C62.7702 17.161 63.5186 16.9914 63.838 16.4652C64.2226 15.815 64.2972 15.0362 64.331 14.2959C64.3485 13.5288 64.3392 12.7511 64.176 11.9992C64.0723 11.5712 63.9405 11.121 63.6223 10.8017C63.2854 10.4532 62.7259 10.4053 62.2993 10.5994Z" fill="white" fill-opacity="0.94"/>
<path fill-rule="evenodd" clip-rule="evenodd" d="M86.471 8.82308C85.359 8.65 84.1817 8.71432 83.1431 9.17507C82.0836 9.63582 81.2093 10.5105 80.7629 11.5806C80.3316 12.5512 80.2675 13.6422 80.3876 14.6865C80.5403 15.8805 81.1056 17.0488 82.0614 17.7995C83.0452 18.576 84.3332 18.8696 85.5665 18.8111C86.6307 18.7701 87.7555 18.5117 88.5645 17.7761C89.1321 17.2674 89.4095 16.519 89.4876 15.7753C88.202 16.3787 86.6726 16.7237 85.3065 16.1799C84.4137 15.8431 83.8763 14.9438 83.7341 14.0305C84.1267 13.9447 84.5269 13.9563 84.9273 13.9679C85.1379 13.974 85.3486 13.9801 85.5583 13.972C86.1242 13.9634 86.6906 13.9676 87.2571 13.9717C88.1574 13.9783 89.0581 13.985 89.9574 13.9405C90.0903 12.8833 90.0635 11.7419 89.5016 10.8017C88.8873 9.69429 87.6914 9.02305 86.471 8.82308ZM83.7644 12.5652C83.8029 11.9022 83.9649 11.2005 84.4393 10.7105C84.8275 10.2965 85.549 10.1901 85.9861 10.5854C86.5456 11.0789 86.7414 11.8449 86.851 12.5559C85.8229 12.6108 84.7925 12.5956 83.7644 12.5652Z" fill="white" fill-opacity="0.94"/>
<path d="M20.6747 9.03939C20.8319 8.97522 21.0034 8.97422 21.1731 8.97324C21.226 8.97293 21.2788 8.97262 21.3309 8.9704C21.6019 8.97594 21.8732 8.9748 22.1445 8.97366C22.6179 8.97168 23.0916 8.96969 23.5642 9.00314C23.013 9.71457 22.4133 10.3868 21.8136 11.0591C21.3773 11.5483 20.9409 12.0375 20.5231 12.5418C20.3756 12.6625 20.4608 12.8278 20.5345 12.9708C20.5493 12.9996 20.5637 13.0275 20.5756 13.054C21.0128 13.8239 21.4388 14.6001 21.8647 15.3764L21.8648 15.3766C22.454 16.4503 23.0432 17.5239 23.6622 18.5807C23.1507 18.586 22.6388 18.5853 22.1267 18.5845C21.7426 18.5839 21.3584 18.5833 20.9742 18.5854C20.4905 18.5877 19.9508 18.5047 19.6244 18.1082C19.3306 17.7481 19.1236 17.3326 18.9168 16.9175C18.8167 16.7166 18.7167 16.5158 18.6068 16.3214C18.4023 15.9135 18.1855 15.512 17.9687 15.1106C17.6776 14.5717 17.3865 14.0327 17.1253 13.4785C17.6277 12.7868 18.1671 12.123 18.7064 11.4593C19.0443 11.0435 19.382 10.6278 19.7107 10.2053C19.8275 10.0671 19.9371 9.92229 20.0467 9.77743C20.2422 9.519 20.4379 9.26045 20.6747 9.03939Z" fill="white" fill-opacity="0.94"/>
<path d="M27.5334 8.97615C26.5182 8.97107 25.5032 8.966 24.4887 8.99732C24.4653 9.51888 24.4653 10.0404 24.4898 10.562C25.1527 10.5916 25.8163 10.5862 26.48 10.5807C27.023 10.5763 27.5662 10.5718 28.1091 10.5866C28.0065 10.8544 27.8911 11.1186 27.7536 11.3712C27.2639 12.2658 26.7863 13.1668 26.3087 14.0678C25.7891 15.0478 25.2696 16.0279 24.7346 16.9996C24.456 17.4756 24.3173 18.0264 24.3814 18.5784C25.5287 18.5857 26.6757 18.5843 27.8226 18.5829C29.0413 18.5814 30.26 18.5798 31.4789 18.5889C31.8741 18.5877 32.3403 18.5749 32.6108 18.2369C32.9018 17.9013 32.8873 17.4438 32.8739 17.0211C32.8722 16.9681 32.8706 16.9156 32.8695 16.864C31.9336 16.9571 30.9946 16.952 30.0556 16.9469C29.5667 16.9443 29.0778 16.9417 28.5893 16.9529C29.0597 16.0547 29.5344 15.1587 30.0092 14.2627C30.9357 12.5139 31.8624 10.765 32.7565 8.99966C32.0817 8.96628 31.406 8.97117 30.7306 8.97606C30.3174 8.97905 29.9043 8.98204 29.4915 8.97627C28.8388 8.98268 28.1861 8.97941 27.5334 8.97615Z" fill="white" fill-opacity="0.94"/>
</svg>
