<svg width="150" height="21" viewBox="0 0 150 21" fill="none" xmlns="http://www.w3.org/2000/svg">
<path fill-rule="evenodd" clip-rule="evenodd" d="M6.05619 9.336H8.39645C9.96559 9.336 11.6174 9.22583 11.6174 7.24411C11.6174 5.45485 10.241 5.34488 8.75431 5.34488H6.05619V9.336ZM0 0.307617H10.131C15.4714 0.307617 17.3436 4.21626 17.3436 7.02397C17.3436 11.7859 14.15 14.0152 9.63522 14.0152H6.05619V19.9606H0V0.307617ZM26.3397 9.34942C24.2752 9.34942 23.9998 11.3588 23.9998 12.8726C23.9998 14.3865 24.2752 16.4234 26.3397 16.4234C28.4046 16.4234 28.6796 14.3865 28.6796 12.8726C28.6796 11.3588 28.4048 9.34942 26.3397 9.34942ZM26.3397 20.387C20.9715 20.387 18.549 16.8364 18.549 12.8728C18.549 8.90913 20.9715 5.386 26.3397 5.386C31.7078 5.386 34.1304 8.90913 34.1304 12.8728C34.1304 16.8364 31.708 20.387 26.3397 20.387ZM41.7184 5.74015H36.4877V20.0257H41.9384V14.3832C41.9384 11.3279 43.0948 10.0618 45.242 10.0618C46.3433 10.0618 46.8391 10.2269 47.3892 10.4192V5.60248C46.8664 5.46501 46.3431 5.38234 45.7926 5.38234C43.8108 5.38234 42.6543 6.3183 41.7732 8.02488H41.7184V5.74015ZM56.7601 9.34942C54.6956 9.34942 54.4203 11.3588 54.4203 12.8726C54.4203 14.3865 54.6956 16.4234 56.7601 16.4234C58.8246 16.4234 59.1 14.3865 59.1 12.8726C59.1 11.3588 58.8246 9.34942 56.7601 9.34942ZM56.7601 20.387C51.392 20.387 48.9694 16.8364 48.9694 12.8728C48.9694 8.90913 51.392 5.386 56.7601 5.386C62.1283 5.386 64.5505 8.90913 64.5505 12.8728C64.5505 16.8364 62.1283 20.387 56.7601 20.387ZM76.3564 5.69017H73.4385V1.34124H67.9873V5.69017H65.5651V9.04815H67.9873V15.8743C67.9873 19.7829 70.5481 20.1407 72.8605 20.1407C73.4458 20.1407 74.052 20.0985 74.6508 20.0567C75.2352 20.016 75.8125 19.9758 76.3564 19.9758V15.847C75.9438 15.902 75.5305 15.9295 75.1174 15.9295C73.7416 15.9295 73.4385 15.3517 73.4385 14.0302V9.04815H76.3564V5.69017ZM78.7003 0.307617H84.1515V7.21642H84.2067C85.1426 6.11549 86.3535 5.31719 88.6665 5.31719C91.2265 5.31719 93.5664 6.8861 93.5664 10.1618V19.9606H88.1159V12.4736C88.1159 10.8222 87.9233 9.66632 86.3262 9.66632C85.3899 9.66632 84.1515 10.1343 84.1515 12.4186V19.9606H78.7003V0.307617ZM103.957 8.88163C105.361 8.88163 106.352 9.95527 106.352 11.2763H101.149C101.397 9.73513 102.333 8.88163 103.957 8.88163ZM103.902 16.8918C102.195 16.8918 101.259 15.7355 101.121 14.1116L111.582 14.1114C111.582 8.55132 109.132 5.38599 103.461 5.38599C98.9466 5.38599 95.9187 8.77146 95.9187 12.9279C95.9187 17.6897 99.3598 20.3872 103.929 20.3872C107.178 20.3872 110.178 18.9564 111.279 15.8731H106.187C105.747 16.5614 104.783 16.8918 103.902 16.8918ZM113.903 5.74015H119.133V8.02488H119.188C120.069 6.3183 121.226 5.38234 123.208 5.38234C123.758 5.38234 124.281 5.46501 124.805 5.60248V10.4192C124.254 10.2269 123.759 10.0618 122.657 10.0618C120.51 10.0618 119.353 11.3279 119.353 14.3832V20.0257H113.903V5.74015ZM131.638 5.74035H126.38L126.379 20.0259H131.831V12.2911C131.831 10.8049 132.299 9.73146 133.675 9.73146C135.327 9.73146 135.464 10.9426 135.464 12.2911V20.0259H140.915V12.2911C140.915 10.8049 141.383 9.73146 142.76 9.73146C144.411 9.73146 144.549 10.9426 144.549 12.2911V20.0259H150V10.2271C150 7.91491 148.761 5.38253 145.099 5.38253C142.03 5.38253 140.791 6.92431 140.369 7.44954C140.303 7.53204 140.256 7.58946 140.227 7.61189C139.567 6.18084 137.915 5.38253 136.373 5.38253C134.391 5.38253 132.795 5.98818 131.693 7.63958H131.638V5.74035Z" fill="white" fill-opacity="0.94"/>
</svg>
