<svg width="150" height="27" viewBox="0 0 150 27" fill="none" xmlns="http://www.w3.org/2000/svg">
<path fill-rule="evenodd" clip-rule="evenodd" d="M34.3782 13.7798C33.8219 13.6964 33.2378 13.5573 32.5703 13.3626L32.5146 13.3348V13.2792L32.6259 10.7203V10.6091L32.7371 10.6647C33.7941 11.1097 34.8788 11.3044 35.7967 11.3044C36.4642 11.3044 37.0761 11.221 37.5767 11.0541C38.1052 10.8872 38.5502 10.6091 38.884 10.3031C39.1343 10.0528 39.3846 9.74683 39.5515 9.32963C39.6906 9.02367 39.8018 8.66209 39.8297 8.24489H35.0735H34.9901V8.16145V5.82509V5.74165H35.0735H39.774C39.7184 5.4357 39.6071 5.12975 39.4681 4.85161C39.3012 4.54566 39.1065 4.26752 38.8562 4.04501C38.578 3.76687 38.1608 3.51655 37.6324 3.34966C37.1873 3.2106 36.6589 3.09934 36.0192 3.09934C35.5741 3.09934 35.1013 3.12716 34.5728 3.26622C34.0444 3.40529 33.4881 3.6278 32.9318 3.96157L32.8206 4.01719L32.7928 3.87813L32.459 1.26363V1.208L32.5146 1.18019C33.0153 0.985495 33.5437 0.818611 34.1835 0.679542C34.8232 0.540473 35.5185 0.457031 36.3251 0.457031C37.6324 0.457031 38.6893 0.651728 39.5237 0.95768C40.3581 1.26363 40.97 1.65303 41.415 2.0146C42.0826 2.57088 42.6388 3.32185 43.0282 4.23971C43.3898 5.07412 43.5845 6.07541 43.5845 7.16015C43.5845 8.21707 43.3898 9.10712 43.0839 9.8859C42.7223 10.8038 42.1938 11.5269 41.6375 12.0554C40.8031 12.8342 39.8575 13.2792 38.884 13.5295C37.9383 13.7798 36.9648 13.8355 36.1304 13.8355C35.5185 13.8633 34.9344 13.8355 34.3782 13.7798ZM50.7605 13.6686H47.3672H47.2837V13.5851V0.818611V0.735169H47.3672H50.7605H50.8439V0.818611V5.63039H54.6822V0.818611V0.735169H54.7657H58.1589H58.2424V0.818611V13.5573V13.6408H58.1589H54.7657H54.6822V13.5573V8.18926H50.8439V13.5573V13.6408H50.7605V13.6686ZM71.593 13.6686H62.4144H62.331V13.5851V0.818611V0.735169H62.4144H71.3705H71.4539V0.818611V3.2106V3.29404H71.3705H65.8912V5.76946H71.0645H71.148V5.8529V8.24489V8.32833H71.0645H65.8912V11.0541H71.593H71.6764V11.1375V13.5295V13.6129H71.593V13.6686ZM75.4869 13.5851V0.818611V0.735169H75.5704H79.6312C80.2987 0.735169 81.1609 0.762984 81.9953 0.929867C82.8576 1.09675 83.692 1.43051 84.3039 2.0146C84.6098 2.29274 84.9158 2.70995 85.1383 3.29404C85.3052 3.73906 85.4164 4.29533 85.4164 4.99068C85.4164 5.49132 85.333 5.99197 85.1661 6.46481C84.9992 6.88201 84.7767 7.29922 84.4429 7.68861C83.8032 8.38396 82.9966 8.74553 82.2178 8.94023C81.4391 9.13493 80.7159 9.16274 80.2709 9.16274H79.0471V13.5295V13.6129H78.9636H75.5704H75.4869V13.5851ZM79.8259 3.32185H79.0471V6.63169H79.8259C80.0206 6.63169 80.2987 6.60388 80.5768 6.54825C80.855 6.49262 81.1331 6.38136 81.3556 6.15885C81.5503 5.99197 81.6616 5.76946 81.745 5.54695C81.8006 5.32444 81.8285 5.12975 81.8285 4.93505C81.8285 4.71254 81.8006 4.46222 81.7172 4.26752C81.6338 4.04501 81.4947 3.85031 81.2444 3.65561C81.0219 3.48873 80.7437 3.37748 80.4656 3.34966C80.2431 3.32185 79.9927 3.32185 79.8259 3.32185ZM92.203 13.6686H88.8097H88.7263V13.5851V0.818611V0.735169H88.8097H97.3764H97.4598V0.818611V3.32185V3.40529H97.3764H92.2586V13.5573V13.6408H92.203V13.6686ZM103.384 0.790798C104.246 0.568288 105.053 0.51266 105.581 0.51266C106.138 0.51266 106.916 0.540474 107.779 0.790798C108.641 1.01331 109.559 1.45833 110.338 2.23711C111.089 3.0159 111.534 3.93375 111.756 4.82379C111.979 5.71384 112.034 6.57606 112.034 7.18797C112.034 7.82768 111.979 8.68991 111.756 9.55213C111.534 10.4422 111.089 11.36 110.338 12.1388C109.559 12.9176 108.641 13.3626 107.779 13.5851C106.916 13.8076 106.11 13.8633 105.581 13.8633C105.053 13.8633 104.246 13.8355 103.384 13.5851C102.522 13.3626 101.604 12.9176 100.825 12.1388C100.074 11.36 99.6293 10.4422 99.4068 9.55213C99.1842 8.66209 99.1286 7.79987 99.1286 7.18797C99.1286 6.54825 99.1842 5.71384 99.4068 4.82379C99.6293 3.93375 100.074 3.0159 100.825 2.23711C101.604 1.45833 102.522 1.01331 103.384 0.790798ZM106.75 3.46092C106.444 3.29404 106.054 3.2106 105.581 3.2106C105.136 3.2106 104.747 3.29404 104.413 3.46092C104.052 3.65562 103.746 3.90594 103.551 4.21189C103.217 4.65691 103.023 5.21319 102.911 5.74165C102.8 6.27011 102.772 6.79857 102.772 7.21578C102.772 7.63299 102.8 8.13363 102.911 8.68991C103.023 9.21837 103.217 9.77465 103.551 10.2197C103.746 10.5256 104.052 10.7759 104.413 10.9706C104.719 11.1375 105.109 11.221 105.581 11.221C106.026 11.221 106.416 11.1097 106.75 10.9706C107.111 10.7759 107.417 10.5256 107.612 10.2197C107.946 9.77465 108.14 9.21837 108.252 8.68991C108.363 8.16145 108.391 7.63299 108.391 7.21578C108.391 6.79857 108.363 6.29792 108.252 5.74165C108.14 5.21319 107.946 4.65691 107.612 4.21189C107.417 3.90594 107.139 3.6278 106.75 3.46092ZM118.988 13.6686H115.594H115.511V13.5851V0.818611V0.735169H115.594H124.161H124.244V0.818611V3.32185V3.40529H124.161H119.043V13.5573V13.6408H118.988V13.6686ZM143.937 8.24489H142.546H142.462V8.16145V5.82509V5.74165H142.546H143.937C144.215 5.74165 144.604 5.71384 144.938 5.63039C145.188 5.57477 145.411 5.49132 145.578 5.38007C145.745 5.26882 145.856 5.10193 145.967 4.93505C146.05 4.76817 146.106 4.54566 146.106 4.32315C146.106 4.10064 146.05 3.93375 145.995 3.79468C145.911 3.59999 145.772 3.48873 145.661 3.40529C145.216 3.07153 144.604 3.07153 144.243 3.07153C143.933 3.07153 143.671 3.09549 143.39 3.12117L143.325 3.12716C143.019 3.15497 142.741 3.2106 142.407 3.29404C142.184 3.34966 141.962 3.40529 141.739 3.48873C141.517 3.57217 141.322 3.65562 141.1 3.76687L140.988 3.8225L140.961 3.71124L140.71 1.29144V1.23582L140.766 1.208C141.044 1.12456 141.35 1.04112 141.656 0.95768C141.895 0.886036 142.154 0.834898 142.399 0.786658C142.439 0.778715 142.479 0.77085 142.518 0.762984C142.561 0.756392 142.603 0.7498 142.646 0.743253C142.959 0.694563 143.256 0.648433 143.575 0.623916C143.964 0.596102 144.354 0.568287 144.715 0.568287C145.244 0.568287 145.884 0.596101 146.523 0.707356C147.163 0.818611 147.775 1.04112 148.303 1.43051C148.665 1.68084 149.054 2.07023 149.332 2.59869C149.527 3.0159 149.666 3.51655 149.666 4.10064C149.666 4.49003 149.611 4.85161 149.499 5.15756C149.388 5.49132 149.221 5.79728 149.027 6.01979C148.832 6.27011 148.554 6.46481 148.276 6.6595C148.053 6.79857 147.803 6.90983 147.552 6.96545C147.803 7.02108 148.053 7.10452 148.303 7.21578C148.609 7.35485 148.887 7.54954 149.138 7.77205C149.499 8.10582 149.694 8.49521 149.833 8.85679C149.944 9.21837 150 9.60776 150 9.91371C150 10.4144 149.917 11.0263 149.583 11.6104C149.332 12.0554 148.971 12.5004 148.387 12.8898C147.886 13.2236 147.274 13.4461 146.635 13.6129C145.856 13.8076 145.021 13.8633 144.298 13.8633C143.964 13.8633 143.519 13.8355 143.019 13.7798C142.629 13.7242 142.24 13.6686 141.795 13.5573C141.72 13.5323 141.634 13.5073 141.539 13.4798C141.422 13.4461 141.293 13.4086 141.155 13.3626C140.821 13.2514 140.488 13.1401 140.265 13.0845L140.21 13.0567V13.001L140.404 10.5534V10.4422L140.516 10.4978C140.609 10.533 140.708 10.5732 140.814 10.6162C140.959 10.6752 141.117 10.7395 141.294 10.8038C141.406 10.8373 141.523 10.8754 141.642 10.9143C141.819 10.9722 142.001 11.032 142.184 11.0819C142.462 11.1653 142.741 11.221 143.047 11.2766C143.325 11.3322 143.658 11.3322 144.02 11.3322C144.298 11.3322 144.604 11.3322 144.854 11.2766C145.133 11.221 145.383 11.1375 145.605 11.0263C145.884 10.8594 146.078 10.6647 146.19 10.4422C146.301 10.2197 146.356 9.96934 146.356 9.6912C146.356 9.46869 146.329 9.24618 146.245 9.0793C146.162 8.91242 146.023 8.74554 145.8 8.60647C145.717 8.55084 145.578 8.4674 145.272 8.38396C144.994 8.30052 144.576 8.24489 143.937 8.24489ZM128.083 13.6686H124.634H124.523L124.55 13.5573L129.39 0.818611L129.418 0.762984H129.473H133.618H133.673L133.701 0.818611L138.596 13.5573L138.652 13.6686H138.541H134.814H134.758L134.73 13.6129L133.812 10.9428H129.14L128.166 13.6129L128.138 13.6686H128.083ZM129.974 8.35614H132.922L131.504 3.65561L129.974 8.35614ZM37.5488 21.5399H34.9065V26.8801H33.5993V20.3995H37.5766V21.5399H37.5488ZM44.1407 22.4021C44.1407 22.9028 43.9738 23.3478 43.64 23.7372C43.2228 24.21 42.6387 24.4325 41.8878 24.4325H41.0533V26.8801H39.7461V20.3995H41.6653C42.444 20.3995 43.0559 20.5942 43.501 20.928C43.9182 21.2896 44.1407 21.7902 44.1407 22.4021ZM42.7778 22.3743C42.7778 22.0962 42.6944 21.8458 42.5275 21.679C42.3328 21.4843 42.0546 21.4008 41.6931 21.4008H41.0812V23.4034H41.6931C42.0546 23.4034 42.3328 23.2922 42.5553 23.0696C42.6944 22.9028 42.7778 22.6524 42.7778 22.3743ZM51.9563 20.3717L49.3697 25.9066C49.2028 26.296 48.9803 26.5464 48.7299 26.7132C48.4796 26.8801 48.2015 26.9636 47.8399 26.9636C47.673 26.9636 47.5061 26.9358 47.3393 26.9079C47.1724 26.8801 47.0055 26.8245 46.8386 26.7411L46.9777 25.7676C47.1724 25.851 47.3393 25.9066 47.534 25.9066C47.7008 25.9066 47.8399 25.8788 47.9234 25.851C48.0624 25.7954 48.1737 25.6563 48.2571 25.4616L48.4518 25.0166L46.0876 20.3717H47.5618L48.8412 23.1253L49.1193 23.8206L49.4253 23.1253L50.6491 20.3717H51.9563ZM59.3548 26.8801H58.0476V21.4564H55.4887V26.8801H54.1814V20.3995H59.3548V26.8801ZM67.2817 26.8801H65.9745V21.4564H63.4156V26.8801H62.1084V20.3995H67.2817V26.8801ZM76.21 26.8801H74.7358L74.1796 25.4338H71.5094L70.9532 26.8801H69.5625L72.1491 20.3995H73.6511L76.21 26.8801ZM73.7902 24.3491L72.8445 21.7068L71.9266 24.3491H73.7902ZM90.3394 26.8801H88.6705L86.2785 23.6537L86.2507 26.8801H84.9435V20.3995H86.2507V23.1809L88.6149 20.3995H90.1725L87.4745 23.3478L90.3394 26.8801ZM98.6279 23.6259C98.6279 24.7385 98.2941 25.5729 97.6544 26.157C97.0703 26.6854 96.3471 26.9358 95.4571 26.9358C94.567 26.9358 93.8439 26.6854 93.2876 26.157C92.6201 25.5729 92.2863 24.7107 92.2863 23.5981C92.2863 22.4855 92.6201 21.6511 93.2598 21.0671C93.8439 20.5386 94.567 20.2883 95.4571 20.2883C96.3471 20.2883 97.0703 20.5386 97.6266 21.0671C98.2941 21.679 98.6279 22.5134 98.6279 23.6259ZM97.2372 23.6259C97.2372 22.6802 97.0147 22.0127 96.5418 21.5955C96.2359 21.3452 95.8743 21.2339 95.4571 21.2339C95.0399 21.2339 94.6783 21.3452 94.4002 21.5955C93.9273 21.9849 93.677 22.6524 93.677 23.6259C93.677 24.5716 93.8995 25.2391 94.3724 25.6563C94.6783 25.9066 95.0121 26.0179 95.4571 26.0179C95.8743 26.0179 96.2359 25.9066 96.514 25.6563C97.0147 25.2391 97.2372 24.5716 97.2372 23.6259ZM108.78 26.8801H107.5V22.3187V21.3174L107.167 22.2352L105.609 26.8801H104.357L102.8 22.2352L102.494 21.3174V22.3187V26.8801H101.187V20.3995H103.412L104.691 24.1822L104.969 25.3226L105.275 24.1822L106.555 20.3995H108.78V26.8801ZM116.735 26.8801H115.427V21.4564H112.869V26.8801H111.561V20.3995H116.735V26.8801ZM125.635 26.8801H124.161L123.605 25.4338H120.935L120.378 26.8801H118.988L121.574 20.3995H123.076L125.635 26.8801ZM123.243 24.3491L122.297 21.7068L121.38 24.3491H123.243ZM133.145 26.8801H131.838V24.0709H129.223V26.8801H127.916V20.3995H129.223V23.014H131.838V20.3995H133.145V26.8801ZM141.517 26.8801H140.209V23.5425L140.237 21.9849L139.764 22.9584L137.484 26.8801H135.926V20.3995H137.233V23.7372L137.206 25.2947L137.706 24.3491L139.959 20.3717H141.517V26.8801ZM148.748 18.8419C148.637 19.1479 148.47 19.3704 148.248 19.5373C147.942 19.7876 147.524 19.9267 147.024 19.9267C146.523 19.9267 146.134 19.7876 145.828 19.5373C145.605 19.3426 145.438 19.1201 145.327 18.8419L145.995 18.4804C146.106 18.7307 146.273 18.8976 146.523 19.0088C146.662 19.0645 146.829 19.0923 147.052 19.0923C147.33 19.0923 147.552 19.0366 147.719 18.9254C147.886 18.8141 148.025 18.6751 148.081 18.4804L148.748 18.8419ZM149.889 26.8801H148.581V23.5425L148.609 21.9849L148.136 22.9584L145.856 26.8801H144.298V20.3995H145.605V23.7372L145.577 25.3226L146.078 24.3769L148.331 20.3995H149.889V26.8801ZM12.5996 2.93246C16.9386 4.82379 20.0259 8.94023 20.0259 13.7798C20.0259 18.6194 16.9386 22.7359 12.5996 24.6272C8.26069 22.7359 5.17336 18.6194 5.17336 13.7798C5.17336 8.94023 8.26069 4.79598 12.5996 2.93246ZM9.62357 20.9836C10.4858 21.8736 11.7652 22.8193 12.5996 23.2921C13.8234 22.5968 16.6326 20.5386 17.5227 17.8406C18.0233 16.3387 18.0233 15.0314 16.9108 12.8898C15.9079 10.9593 13.5039 9.34521 12.7544 8.84196C12.6724 8.78691 12.6102 8.74515 12.5718 8.71772L12.5594 8.72621C11.9299 9.15532 9.69941 10.676 8.56664 12.3613C7.31502 14.2805 7.12033 15.9493 7.56535 17.6181C8.01037 19.287 9.62357 20.9836 9.62357 20.9836ZM12.989 0.5961C18.4683 2.70995 22.3345 7.82768 22.3345 13.7798C22.3345 19.732 18.4683 24.8219 12.989 26.9636C21.0828 26.7689 27.5913 20.9558 27.5913 13.7798C27.5913 6.63169 21.0828 0.790797 12.989 0.5961ZM3.39328 18.3691L3.44891 18.3135C4.8396 22.2352 7.98255 25.3782 12.0156 26.9357C7.92693 26.8245 3.08733 25.2947 0.0278134 22.8749L3.39328 18.3691ZM3.44891 9.21837C4.8396 5.29663 7.98255 2.15367 11.9877 0.5961C7.8713 0.707355 3.05952 2.23711 0 4.65691L3.30984 9.0793L3.44891 9.21837ZM10.1242 17.4791C10.1242 15.5877 11.1533 13.9745 12.5996 13.2514C14.046 13.9745 15.0751 15.5877 15.0751 17.4791C15.0751 19.3704 14.046 20.9836 12.5996 21.7068C11.1533 20.9558 10.1242 19.3704 10.1242 17.4791Z" fill="white" fill-opacity="0.83"/>
</svg>
