<svg width="200" height="27" viewBox="0 0 200 27" fill="none" xmlns="http://www.w3.org/2000/svg">
<path d="M123.522 16.7088V8.9769H129.256V5.19122H123.522V0.597656H119.626V19.0341C119.626 19.7902 120.274 20.4375 121.03 20.4375H130.116V16.7088H123.522Z" fill="white" fill-opacity="0.83"/>
<path fill-rule="evenodd" clip-rule="evenodd" d="M13.7902 5.19121H0.543943V8.97689H11.2518V10.6548L1.2433 12.0583C0.543943 12.167 0 12.7056 0 13.4099V19.034C0 19.7901 0.647551 20.4375 1.46087 20.4375H15.1423V6.54287C15.1423 5.84373 14.4948 5.19121 13.7902 5.19121ZM11.2467 16.7088H3.94747V15.0309L11.2467 14.0055V16.7088Z" fill="white" fill-opacity="0.83"/>
<path d="M102.432 6.65162V12.167C102.432 12.8713 103.028 13.5187 103.675 13.6274L113.627 15.0309V16.7088H102.432V20.4375H116.171C116.927 20.4375 117.574 19.7901 117.574 19.034V13.4669C117.574 12.7108 116.979 12.1152 116.331 12.0634L106.38 10.6548V8.97689H117.036V5.19121H103.893C103.137 5.19121 102.432 5.89552 102.432 6.65162Z" fill="white" fill-opacity="0.83"/>
<path d="M68.63 12.167V6.65162C68.63 5.89552 69.2775 5.19121 70.0909 5.19121H83.2336V8.97689H72.5257V10.6548L82.472 12.0634C83.1766 12.1152 83.7723 12.7108 83.7723 13.4669V19.034C83.7723 19.7901 83.1248 20.4375 82.3114 20.4375H68.63V16.7088H79.8249V15.0309L69.8733 13.6274C69.1688 13.5187 68.63 12.8713 68.63 12.167Z" fill="white" fill-opacity="0.83"/>
<path fill-rule="evenodd" clip-rule="evenodd" d="M146.077 13.6792C146.782 13.5705 147.32 12.9749 147.32 12.3275V6.54287C147.32 5.83856 146.673 5.19121 145.86 5.19121H133.53C132.774 5.19121 132.178 5.83856 132.178 6.54287V19.034C132.178 19.7901 132.774 20.4375 133.53 20.4375H147.32V16.7088H136.017V15.0878L146.077 13.6792ZM136.017 8.97689H143.373V10.7066L136.017 11.732V8.97689Z" fill="white" fill-opacity="0.83"/>
<path fill-rule="evenodd" clip-rule="evenodd" d="M52.0269 5.19121H65.2214C65.9829 5.19121 66.5735 5.84373 66.5786 6.54287V20.4375H52.8402C52.1357 20.4375 51.4881 19.7901 51.4881 19.034V13.4099C51.4881 12.7056 52.0321 12.167 52.6796 12.0583L62.683 10.6548V8.97689H52.0269V5.19121ZM55.3786 16.7088H62.683V14.0055L55.3786 15.0309V16.7088Z" fill="white" fill-opacity="0.83"/>
<path fill-rule="evenodd" clip-rule="evenodd" d="M18.5511 5.19121H32.2843V26.8229H28.3368V20.4427H18.5511C17.7947 20.4427 17.199 19.7901 17.199 19.034V6.54287C17.199 5.83856 17.7947 5.19121 18.5511 5.19121ZM21.0377 16.7088H28.3368V8.97689H21.0377V16.7088Z" fill="white" fill-opacity="0.83"/>
<path d="M168.358 5.19121H149.377V20.4375H153.273V8.97689H157.655V20.4375H161.546V8.97689H165.871V20.4375H169.767V6.54287C169.762 5.84373 169.114 5.19121 168.358 5.19121Z" fill="white" fill-opacity="0.83"/>
<path d="M45.5358 16.7088V5.19121H49.4315V20.4427H35.75C34.9367 20.4427 34.341 19.7901 34.341 19.034V5.19121H38.2366V16.7088H45.5358Z" fill="white" fill-opacity="0.83"/>
<path d="M97.5108 5.19119L93.7705 16.7088H92.1024L88.3725 5.19119H84.2075L88.8025 19.4639C88.9631 20.0594 89.507 20.4375 90.1546 20.4375H92.5583L91.6983 23.0838H87.4556V26.8125H93.7809C94.3196 26.8125 94.8636 26.3827 95.0811 25.7871L101.79 5.18601H97.5108V5.19119Z" fill="white" fill-opacity="0.83"/>
<path d="M191.691 14.0676L193.69 12.0894C194.058 11.7217 194.654 11.7217 195.027 12.0842L197.047 14.0625C197.244 14.2593 197.104 14.5907 196.83 14.5907H191.908C191.634 14.5907 191.494 14.2593 191.691 14.0676Z" fill="white" fill-opacity="0.83"/>
<path d="M185.215 12.0894L183.215 14.0676C183.019 14.2593 183.158 14.5907 183.433 14.5907H188.36C188.634 14.5907 188.774 14.2593 188.577 14.0625L186.557 12.0842C186.184 11.7217 185.588 11.7217 185.215 12.0894Z" fill="white" fill-opacity="0.83"/>
<path d="M187.417 7.81166L189.877 3.5806C189.997 3.37863 190.287 3.37863 190.401 3.57543L192.867 7.8013C193.126 8.24667 193.126 8.79044 192.867 9.23064L190.406 13.4358C190.287 13.6378 189.997 13.6378 189.877 13.4358L187.417 9.23582C187.163 8.79562 187.158 8.25185 187.417 7.81166Z" fill="white" fill-opacity="0.83"/>
<path d="M188.349 17.8377H191.918C192.193 17.8377 192.328 17.5063 192.136 17.3147L190.364 15.5591C190.245 15.44 190.054 15.44 189.934 15.5591L188.137 17.3147C187.935 17.5063 188.069 17.8377 188.349 17.8377Z" fill="white" fill-opacity="0.83"/>
<path fill-rule="evenodd" clip-rule="evenodd" d="M181.682 0.701251H198.575C199.363 0.701251 200 1.33824 200 2.12541V19.0134C200 19.8005 199.363 20.4375 198.575 20.4375H181.682C180.895 20.4375 180.257 19.8005 180.257 19.0134V2.12541C180.257 1.33824 180.895 0.701251 181.682 0.701251ZM181.408 1.85612V19.2878H198.891L198.845 1.85612H181.408Z" fill="white" fill-opacity="0.83"/>
</svg>
