<svg width="150" height="39" viewBox="0 0 150 39" fill="none" xmlns="http://www.w3.org/2000/svg">
<path fill-rule="evenodd" clip-rule="evenodd" d="M17.1935 6.39872H5.99246V2.99693L11.5891 0.657227L17.1935 2.99693V6.39872ZM90.8704 26.0687C92.6941 27.9891 95.0548 28.9492 97.9524 28.9492V28.9688C100.806 28.9349 103.147 27.9394 104.976 25.9825C106.805 24.0255 107.719 21.4128 107.719 18.1443C107.714 14.9959 106.812 12.4772 105.015 10.5882C103.217 8.69922 100.881 7.75473 98.0072 7.75473C94.9111 7.74689 92.4903 8.74756 90.745 10.7568C88.9996 12.7659 88.127 15.3042 88.127 18.3716C88.1322 21.5826 89.0467 24.1483 90.8704 26.0687ZM99.2969 23.9457C98.8855 24.1943 98.409 24.3141 97.9289 24.2894V24.309C95.9249 24.309 94.9189 22.3913 94.9111 18.5558C94.9111 14.4668 95.9562 12.4224 98.0464 12.4224C99.9773 12.4224 100.943 14.2147 100.943 17.7994C100.943 20.2606 100.704 21.9615 100.237 22.8942C100.036 23.3308 99.7084 23.697 99.2969 23.9457ZM119.273 28.9492C116.378 28.9492 114.017 27.9891 112.191 26.0687C110.364 24.1483 109.45 21.5826 109.447 18.3716C109.447 15.3042 110.32 12.7659 112.065 10.7568C113.811 8.74756 116.238 7.75341 119.347 7.77432C122.208 7.77432 124.552 8.71883 126.355 10.6078C128.158 12.4968 129.059 15.0129 129.059 18.1639C129.059 21.4324 128.145 24.0451 126.316 26.0021C124.487 27.959 122.139 28.9479 119.273 28.9688V28.9492ZM119.249 24.2894C119.729 24.3141 120.206 24.1943 120.617 23.9457C121.029 23.697 121.356 23.3308 121.558 22.8942C122.023 21.9615 122.257 20.2632 122.259 17.7994C122.259 14.2147 121.295 12.4224 119.367 12.4224C117.277 12.4224 116.231 14.4668 116.231 18.5558C116.239 22.3913 117.245 24.309 119.249 24.309V24.2894ZM131.701 28.6436V8.08001H139.656C143.116 8.08001 145.704 9.1042 147.42 11.1526C149.114 13.134 150.031 15.6632 149.999 18.2697C149.999 21.3423 149.077 23.844 147.232 25.7748C145.388 27.7056 142.994 28.6671 140.052 28.6592L131.701 28.6436ZM138.026 23.9406H139.672C140.715 23.9406 141.6 23.4312 142.314 22.4122C143.027 21.3932 143.395 20.0137 143.395 18.2579C143.432 16.8996 143.101 15.5567 142.439 14.3702C142.175 13.8683 141.776 13.4502 141.287 13.1628C140.798 12.8755 140.239 12.7303 139.672 12.7437H138.026V23.9406ZM87.5587 8.08001L82.1149 28.6632H76.8083L73.9238 17.2977L71.1804 28.6632H65.6543L60.2223 8.08001H66.1638L69.0288 19.9L71.8663 8.08001H76.8083L79.8457 19.9235L82.7263 8.08001H87.5587ZM42.2019 8.08001V28.6749L50.5733 28.6592C53.531 28.6592 55.9243 27.6965 57.7532 25.7709C59.5822 23.8453 60.4967 21.3449 60.4967 18.2697C60.5277 15.6639 59.6129 13.1353 57.9218 11.1526C56.2051 9.1042 53.6172 8.08001 50.1578 8.08001H42.2019ZM50.1735 23.9524H48.5275V12.7516H50.1735C50.7409 12.7381 51.3008 12.8836 51.7897 13.1718C52.2787 13.4599 52.6773 13.8791 52.9405 14.3819C53.6014 15.5689 53.9316 16.9116 53.8967 18.2697C53.8967 20.0254 53.5283 21.405 52.815 22.4239C52.1018 23.4429 51.216 23.9524 50.1735 23.9524ZM39.7171 23.7564V28.6632H24.2285V8.08001H39.7171V12.83H30.4286V15.8242H37.93V20.3899H30.4286V23.7564H39.7171ZM147.115 31.1401C146.836 31.0607 146.546 31.0224 146.256 31.0264C145.717 31.0244 145.197 31.2243 144.798 31.5868C144.461 31.8811 144.243 32.289 144.186 32.7332C144.129 33.1773 144.237 33.627 144.489 33.9971C144.681 34.3 144.961 34.5367 145.292 34.6751L146.656 35.212C146.957 35.2994 147.222 35.4832 147.409 35.7352C147.596 35.9872 147.695 36.2935 147.691 36.6072C147.696 36.807 147.656 37.0054 147.576 37.1883C147.495 37.3712 147.375 37.5341 147.224 37.6654C146.918 37.9432 146.517 38.0933 146.103 38.0847C145.765 38.0759 145.433 37.9916 145.132 37.8378C144.821 37.6791 144.525 37.4942 144.246 37.2852V37.9436C144.547 38.1375 144.867 38.299 145.202 38.4257C145.501 38.5342 145.817 38.5899 146.135 38.5903C146.694 38.603 147.236 38.3994 147.648 38.022C147.998 37.6936 148.217 37.2493 148.265 36.7714C148.313 36.2935 148.185 35.8146 147.906 35.4236C147.637 35.0601 147.264 34.7868 146.836 34.6398L145.661 34.1852C145.393 34.0852 145.159 33.9112 144.987 33.6836C144.828 33.4735 144.743 33.2176 144.744 32.9546C144.736 32.758 144.775 32.5625 144.857 32.3835C144.938 32.2045 145.061 32.0471 145.214 31.9239C145.523 31.6642 145.915 31.525 146.319 31.532C146.615 31.5354 146.907 31.5939 147.181 31.7044C147.454 31.8194 147.716 31.9571 147.965 32.1159V31.4889C147.695 31.3428 147.41 31.2259 147.115 31.1401ZM139.315 38.4727L143.536 38.4845V37.9985H139.899V31.1126H139.315V38.4727ZM135.41 37.8194C135.005 37.9833 134.571 38.0616 134.134 38.0494V38.0612C133.703 38.0701 133.274 37.991 132.875 37.8286C132.475 37.6662 132.113 37.4239 131.81 37.1167C131.505 36.8216 131.263 36.4668 131.101 36.0745C130.938 35.6821 130.858 35.2604 130.866 34.8358C130.857 34.4004 130.936 33.9678 131.098 33.5638C131.261 33.1597 131.503 32.7926 131.81 32.4843C132.429 31.871 133.264 31.525 134.135 31.5206C135.007 31.5162 135.845 31.8538 136.47 32.4608C136.777 32.756 137.019 33.1113 137.182 33.5044C137.346 33.8975 137.426 34.3201 137.419 34.7456C137.43 35.1802 137.353 35.6126 137.193 36.0168C137.032 36.4209 136.792 36.7884 136.486 37.0971C136.181 37.4096 135.814 37.6555 135.41 37.8194ZM135.637 31.2775C135.166 31.0932 134.663 31.0038 134.158 31.0146V31.0264C133.646 31.0091 133.136 31.0945 132.659 31.2776C132.181 31.4607 131.744 31.7378 131.375 32.0924C131.02 32.446 130.738 32.8662 130.546 33.3289C130.354 33.7916 130.255 34.2877 130.255 34.7887C130.255 35.2898 130.354 35.7859 130.546 36.2486C130.738 36.7113 131.02 37.1315 131.375 37.4851C131.742 37.8398 132.176 38.1181 132.652 38.3038C133.128 38.4895 133.636 38.5789 134.146 38.5668C134.657 38.581 135.166 38.4915 135.642 38.3036C136.117 38.1156 136.55 37.8332 136.913 37.4733C137.277 37.1226 137.564 36.7001 137.756 36.2326C137.949 35.7651 138.042 35.2627 138.03 34.7574C138.042 34.258 137.947 33.7618 137.752 33.3017C137.558 32.8416 137.268 32.4281 136.901 32.0885C136.537 31.7374 136.108 31.4618 135.637 31.2775ZM126.53 37.8335C126.125 37.9975 125.69 38.0751 125.253 38.0612C124.824 38.0716 124.396 37.9942 123.997 37.8339C123.598 37.6735 123.236 37.4335 122.933 37.1285C122.627 36.8339 122.385 36.4793 122.222 36.0867C122.06 35.6942 121.98 35.2723 121.989 34.8475C121.979 34.4121 122.058 33.9792 122.22 33.575C122.382 33.1709 122.625 32.8038 122.933 32.4961C123.552 31.883 124.386 31.5371 125.256 31.5327C126.127 31.5283 126.965 31.8658 127.589 32.4725C127.897 32.7672 128.14 33.1223 128.303 33.5156C128.466 33.9088 128.546 34.3317 128.538 34.7574C128.549 35.192 128.472 35.6244 128.312 36.0285C128.151 36.4326 127.911 36.8001 127.605 37.1089C127.301 37.4227 126.935 37.6695 126.53 37.8335ZM126.752 31.2901C126.281 31.1059 125.778 31.0162 125.273 31.0264C124.76 31.0097 124.249 31.0965 123.77 31.2817C123.291 31.4668 122.855 31.7466 122.486 32.1042C122.132 32.458 121.851 32.8783 121.659 33.3409C121.467 33.8036 121.368 34.2996 121.368 34.8005C121.368 35.3014 121.467 35.7974 121.659 36.2601C121.851 36.7227 122.132 37.143 122.486 37.4968C122.854 37.8516 123.288 38.1299 123.763 38.3156C124.239 38.5013 124.747 38.5906 125.257 38.5785C125.769 38.5933 126.277 38.5039 126.753 38.316C127.229 38.128 127.661 37.8453 128.024 37.4851C128.39 37.1351 128.678 36.7128 128.871 36.2452C129.064 35.7776 129.157 35.2749 129.145 34.7692C129.157 34.2697 129.062 33.7735 128.868 33.3134C128.673 32.8533 128.383 32.4398 128.016 32.1002C127.652 31.7497 127.222 31.4744 126.752 31.2901ZM110.58 31.1871C110.171 31.0788 109.749 31.0248 109.326 31.0264C108.282 30.9937 107.267 31.3723 106.5 32.0806C106.129 32.4229 105.837 32.8408 105.641 33.3059C105.446 33.771 105.352 34.2727 105.367 34.777C105.36 35.278 105.456 35.7752 105.649 36.2377C105.841 36.7002 106.127 37.1181 106.488 37.4655C106.847 37.8266 107.275 38.1111 107.746 38.3017C108.218 38.4924 108.723 38.5852 109.232 38.5746C109.723 38.5767 110.212 38.5201 110.69 38.4061C111.131 38.2877 111.563 38.1384 111.983 37.9593V35.1219H109.859V35.6118H111.403V37.5988C111.052 37.7518 110.685 37.8662 110.31 37.9397C109.946 38.0166 109.576 38.0573 109.204 38.0612C108.778 38.0707 108.355 37.9916 107.961 37.829C107.567 37.6665 107.211 37.4239 106.916 37.1167C106.611 36.8165 106.371 36.4572 106.211 36.0609C106.051 35.6646 105.973 35.2397 105.983 34.8123C105.973 34.3826 106.049 33.9553 106.208 33.5559C106.367 33.1566 106.605 32.7935 106.908 32.4882C107.208 32.1777 107.57 31.9334 107.97 31.7707C108.37 31.6081 108.8 31.5308 109.232 31.5437C109.698 31.5446 110.162 31.6079 110.611 31.7318C111.048 31.8475 111.463 32.0314 111.842 32.2766V31.6535C111.437 31.4584 111.014 31.3022 110.58 31.1871ZM103.608 37.5556L98.0777 31.1205H97.5408V38.4727L98.1248 38.4845V32.0179L103.717 38.4845H104.192V31.1205H103.608V37.5556ZM93.943 31.1283L90.4157 34.73V31.1126H89.8357V38.4845L90.3804 38.5001V34.8514L94.2487 38.5001H94.9816L91.129 34.7417L94.6563 31.1283H93.943ZM86.9198 34.0637C86.4949 34.3614 85.9788 34.5001 85.4619 34.4556H84.2312V31.5947L85.2032 31.6104C85.7732 31.5659 86.3438 31.6885 86.8453 31.9631C87.0144 32.0839 87.1497 32.246 87.2382 32.4341C87.3267 32.6221 87.3655 32.8296 87.3509 33.0369C87.3618 33.2296 87.3286 33.4222 87.2539 33.6001C87.1792 33.778 87.065 33.9366 86.9198 34.0637ZM87.5469 31.7906C87.134 31.336 86.4325 31.1087 85.4423 31.1087H83.6473V38.4805H84.2312V34.9534H85.407C85.7621 34.9404 86.1099 35.0559 86.3868 35.2786C86.7087 35.5872 86.9857 35.9395 87.2098 36.325L88.5737 38.4649H89.24L87.394 35.6353C87.2846 35.4766 87.1655 35.3247 87.0374 35.1807C86.909 35.0298 86.7599 34.8978 86.5945 34.7887C86.9915 34.6881 87.345 34.4611 87.6017 34.1421C87.8483 33.797 87.9762 33.3812 87.9664 32.9572C87.9565 32.5332 87.8093 32.1238 87.5469 31.7906ZM79.7415 37.8311C79.3368 37.995 78.9026 38.0734 78.4661 38.0612C78.0335 38.0754 77.6026 37.9998 77.2006 37.8393C76.7985 37.6788 76.4341 37.4367 76.1303 37.1285C75.8241 36.8339 75.5821 36.4793 75.4195 36.0867C75.257 35.6942 75.1774 35.2723 75.1858 34.8475C75.176 34.4121 75.2547 33.9792 75.4171 33.575C75.5794 33.1709 75.8221 32.8038 76.1303 32.4961C76.4332 32.1801 76.799 31.9311 77.204 31.7651C77.609 31.599 78.0443 31.5196 78.4818 31.532C78.9121 31.5233 79.3396 31.6022 79.7385 31.7639C80.1374 31.9256 80.4992 32.1667 80.8019 32.4725C81.1099 32.767 81.3535 33.122 81.5174 33.5152C81.6813 33.9085 81.762 34.3314 81.7543 34.7574C81.7648 35.1923 81.6872 35.6247 81.5263 36.0288C81.3653 36.433 81.1243 36.8003 80.8176 37.1089C80.5126 37.4213 80.1463 37.6672 79.7415 37.8311ZM79.9682 31.2904C79.4974 31.1062 78.995 31.0165 78.4896 31.0264C77.9741 31.0084 77.4602 31.0946 76.9787 31.2798C76.4972 31.465 76.0581 31.7454 75.6874 32.1042C75.3341 32.4593 75.0544 32.8806 74.8641 33.344C74.6739 33.8073 74.5769 34.3037 74.5787 34.8046C74.5805 35.3055 74.6811 35.8011 74.8747 36.2631C75.0683 36.7251 75.3512 37.1443 75.707 37.4968C76.0733 37.8518 76.5066 38.1303 76.9817 38.316C77.4567 38.5018 77.964 38.591 78.4739 38.5785C78.9857 38.5924 79.4949 38.5027 79.9711 38.3148C80.4472 38.1269 80.8805 37.8447 81.2448 37.4851C81.6075 37.1335 81.8936 36.7108 82.0852 36.2434C82.2767 35.7761 82.3695 35.2741 82.3579 34.7692C82.3699 34.27 82.2759 33.774 82.082 33.3139C81.8881 32.8538 81.5988 32.4402 81.2331 32.1002C80.8687 31.7499 80.4389 31.4747 79.9682 31.2904ZM66.4969 37.2304L64.0592 31.1205H63.483L66.4107 38.5354H66.5949L69.0444 32.3511L71.5056 38.5354H71.6898L74.6135 31.1205H74.0413L71.5919 37.2304L69.1424 31.1205H68.9582L66.4969 37.2304ZM58.4782 37.1676C57.7591 37.7538 56.8449 38.0464 55.919 37.9867H53.9868V31.5947H55.919C56.8354 31.5435 57.738 31.8355 58.4508 32.4138C59.0391 33.0642 59.3671 33.9085 59.3721 34.7855C59.3772 35.6624 59.059 36.5105 58.4782 37.1676ZM58.8898 32.0806C58.1339 31.4165 57.1517 31.0685 56.1463 31.1087H53.4029L53.4146 38.4727H56.3619C56.8504 38.4963 57.3385 38.4165 57.7941 38.2386C58.2497 38.0606 58.6627 37.7886 59.006 37.4401C59.3492 37.0917 59.6151 36.6747 59.7862 36.2165C59.9573 35.7582 60.0298 35.2691 59.9989 34.7809C60.0206 34.2774 59.9326 33.7751 59.7411 33.3089C59.5496 32.8426 59.2591 32.4236 58.8898 32.0806ZM49.4969 37.8305C49.0922 37.9944 48.6581 38.0729 48.2217 38.0612C47.7887 38.0738 47.3577 37.9976 46.9552 37.8371C46.5528 37.6767 46.1875 37.4355 45.882 37.1285C45.5757 36.8339 45.3338 36.4793 45.1712 36.0867C45.0087 35.6942 44.9291 35.2723 44.9374 34.8475C44.9277 34.4121 45.0064 33.9792 45.1688 33.575C45.3311 33.1709 45.5737 32.8038 45.882 32.4961C46.1849 32.1801 46.5506 31.9311 46.9557 31.7651C47.3607 31.599 47.7959 31.5196 48.2335 31.532C48.6644 31.523 49.0926 31.6017 49.4922 31.7634C49.8917 31.9251 50.2542 32.1664 50.5576 32.4725C50.8642 32.7677 51.1067 33.123 51.2699 33.5161C51.4331 33.9093 51.5135 34.3318 51.506 34.7574C51.5163 35.1919 51.4391 35.624 51.2788 36.028C51.1186 36.432 50.8786 36.7996 50.5732 37.1089C50.268 37.4209 49.9015 37.6666 49.4969 37.8305ZM48.2345 31.0262C47.7212 31.0087 47.2096 31.0948 46.7302 31.2792C46.2486 31.4644 45.8095 31.745 45.4391 32.1042C45.0841 32.4577 44.8024 32.8779 44.6102 33.3406C44.4179 33.8033 44.319 34.2995 44.319 34.8005C44.319 35.3015 44.4179 35.7977 44.6102 36.2604C44.8024 36.7231 45.0841 37.1433 45.4391 37.4968C45.8057 37.8513 46.2391 38.1294 46.7141 38.3151C47.1891 38.5008 47.6962 38.5903 48.206 38.5785C48.7178 38.5931 49.2273 38.5037 49.7035 38.3158C50.1798 38.1278 50.613 37.8452 50.9769 37.4851C51.3409 37.1343 51.6281 36.7118 51.8204 36.2443C52.0126 35.7768 52.1058 35.2745 52.0939 34.7692C52.1055 34.2697 52.0108 33.7735 51.8163 33.3134C51.6217 32.8533 51.3316 32.4398 50.9652 32.1002C50.6009 31.7497 50.1711 31.4744 49.7004 31.2901C49.2336 31.1074 48.7356 31.0178 48.2345 31.0262ZM40.6123 37.8311C40.2076 37.995 39.7734 38.0734 39.3369 38.0612C38.9065 38.0717 38.4784 37.9944 38.0789 37.834C37.6793 37.6736 37.3166 37.4336 37.0128 37.1285C36.7074 36.8334 36.4659 36.4786 36.3034 36.0862C36.1409 35.6938 36.0609 35.2722 36.0683 34.8475C36.0595 34.4122 36.1386 33.9796 36.3009 33.5755C36.4632 33.1715 36.7053 32.8043 37.0128 32.4961C37.6318 31.8828 38.4666 31.5368 39.338 31.5324C40.2093 31.528 41.0476 31.8656 41.6728 32.4725C41.9794 32.7677 42.2219 33.123 42.3851 33.5161C42.5483 33.9093 42.6287 34.3318 42.6212 34.7574C42.6324 35.192 42.5556 35.6244 42.3953 36.0285C42.235 36.4326 41.9945 36.8001 41.6884 37.1089C41.3834 37.4213 41.017 37.6672 40.6123 37.8311ZM40.8394 31.2892C40.3686 31.1049 39.8659 31.0156 39.3604 31.0264C38.8528 31.0123 38.3475 31.0992 37.8738 31.2822C37.4001 31.4652 36.9676 31.7406 36.6013 32.0924C36.2463 32.446 35.9646 32.8662 35.7724 33.3289C35.5802 33.7916 35.4812 34.2877 35.4812 34.7887C35.4812 35.2898 35.5802 35.7859 35.7724 36.2486C35.9646 36.7113 36.2463 37.1315 36.6013 37.4851C36.9686 37.8398 37.4026 38.1181 37.8783 38.3038C38.3539 38.4895 38.8617 38.5789 39.3722 38.5668C39.8834 38.581 40.3921 38.4915 40.8677 38.3036C41.3433 38.1156 41.7758 37.8332 42.1391 37.4733C42.4974 37.1219 42.7794 36.7004 42.9675 36.2351C43.1557 35.7699 43.2459 35.2708 43.2326 34.7692C43.2442 34.2697 43.1496 33.7735 42.955 33.3134C42.7604 32.8533 42.4703 32.4398 42.1039 32.1002C41.74 31.7491 41.3103 31.4735 40.8394 31.2892ZM27.3677 37.2304L24.9261 31.1205H24.3538L27.2736 38.5354H27.4539L29.9073 32.3511L32.3686 38.5354H32.5489L35.4765 31.1205H34.9121L32.4627 37.2304L30.0092 31.1205H29.829L27.3677 37.2304ZM115.655 31.1126V31.5947H118.407V38.4845H118.998V31.5947H121.742V31.1126H115.655ZM96.1652 31.1009H95.5812V38.4727H96.1652V31.1009ZM22.1199 8.04473H0V14.425H22.1199V8.04473ZM14.889 26.4019L8.36744 27.1935V36.1644L11.6635 38.5746L14.889 36.1644V26.4019ZM15.955 15.2049V17.5446L7.23089 18.6969V16.3611L15.955 15.2049ZM15.955 21.2678V18.9281L7.23089 20.0842V22.42L15.955 21.2678ZM15.955 22.5807V24.9204L7.23089 26.0726V23.7329L15.955 22.5807Z" fill="white" fill-opacity="0.47"/>
</svg>
