<svg width="150" height="27" viewBox="0 0 150 27" fill="none" xmlns="http://www.w3.org/2000/svg">
<path fill-rule="evenodd" clip-rule="evenodd" d="M100.881 22.6919C98.2787 20.1709 96.9775 17.1619 96.9775 13.6244C96.9775 10.0869 98.2787 7.03725 100.881 4.5569C103.483 2.03589 106.696 0.775391 110.518 0.775391C114.34 0.775391 117.552 2.03589 120.155 4.5569C122.757 7.07791 124.058 10.0869 124.058 13.6244C124.058 17.1619 122.757 20.2116 120.155 22.6919C117.552 25.2129 114.34 26.4734 110.518 26.4734C106.696 26.4734 103.483 25.2129 100.881 22.6919ZM104.825 8.01312C103.28 9.55826 102.507 11.4287 102.507 13.6244C102.507 15.8201 103.28 17.6905 104.825 19.2357C106.37 20.7808 108.281 21.5534 110.518 21.5534C112.754 21.5534 114.625 20.7808 116.21 19.2357C117.756 17.6905 118.528 15.8201 118.528 13.6244C118.528 11.4287 117.756 9.55826 116.21 8.01312C114.665 6.46799 112.754 5.69542 110.518 5.69542C108.281 5.69542 106.37 6.46799 104.825 8.01312ZM7.11575 6.22402V25.9448H12.4831V6.22402H19.5988V1.30399H0V6.22402H7.11575ZM22.6484 1.30399V15.7388C22.6484 18.9104 23.6649 21.4721 25.6574 23.4645C27.6904 25.4569 30.2928 26.4734 33.505 26.4734C36.7173 26.4734 39.3196 25.4569 41.3527 23.4645C43.3451 21.4721 44.3616 18.9104 44.3616 15.7388V1.30399H39.035V15.7388C39.035 17.4466 38.5064 18.8697 37.4898 19.9269C36.4733 20.9841 35.1315 21.5127 33.505 21.5127C31.8786 21.5127 30.5367 20.9841 29.5202 19.9269C28.5037 18.8697 27.9751 17.4872 27.9751 15.7388V1.30399H22.6484ZM49.9322 25.9448V1.30399H60.9515C63.5945 1.30399 65.7089 2.07656 67.2947 3.58103C68.8805 5.0855 69.653 7.07791 69.653 9.59892C69.653 11.9979 68.9211 13.909 67.498 15.3322C66.8881 15.9828 66.1968 16.4707 65.3429 16.796L70.5069 25.9448H64.6517L60.2196 17.8532H55.2182V25.9448H49.9322ZM55.2589 12.9332H60.7888C61.8054 12.9332 62.6186 12.6079 63.2285 11.9979C63.8384 11.388 64.1637 10.5748 64.1637 9.59892C64.1637 8.62304 63.8384 7.80982 63.2285 7.1999C62.6186 6.58997 61.8054 6.26468 60.7888 6.26468H55.2589V12.9332ZM74.3291 1.30399V25.9042H79.6964V18.7071L82.9086 15.3728L90.187 25.9448H96.4082L86.4462 11.51L95.717 1.30399H89.2518L79.6557 11.876V1.30399H74.3291ZM131.174 1.30399H125.481L134.752 25.9448H140.729L150 1.30399H144.307L137.802 19.439H137.68L131.174 1.30399Z" fill="white" fill-opacity="0.47"/>
</svg>
