<svg width="120" height="41" viewBox="0 0 120 41" fill="none" xmlns="http://www.w3.org/2000/svg">
<path fill-rule="evenodd" clip-rule="evenodd" d="M17.8908 0.952148H14.3998V4.44956H17.8908V0.952148ZM19.2 5.76109H22.691V9.25851H19.2V5.76109ZM3.49105 10.5692H0V14.0666H3.49105V10.5692ZM22.691 10.5692H19.2V14.0666H22.691V10.5692ZM4.8002 15.3782H8.29125V18.8756H4.8002V15.3782ZM22.691 15.3782H19.2V18.8756H22.691V15.3782ZM9.6004 20.1871H13.0915V23.6845H9.6004V20.1871ZM14.3998 20.1871H17.8908V23.6845H14.3998V20.1871ZM14.3998 15.3782H17.8908V18.8756H14.3998V15.3782ZM13.0915 15.3782H9.6004V18.8756H13.0915V15.3782ZM14.3998 10.5692H17.8908V14.0666H14.3998V10.5692ZM13.0915 10.5692H9.6004V14.0666H13.0915V10.5692ZM4.8002 10.5692H8.29125V14.0666H4.8002V10.5692ZM17.8908 5.76109H14.3998V9.25851H17.8908V5.76109ZM9.6004 5.76109H13.0915V9.25851H9.6004V5.76109ZM8.29125 5.76109H4.8002V9.25851H8.29125V5.76109ZM0 5.76109H3.49105V9.25851H0V5.76109ZM9.6004 0.952148H13.0915V4.44956H9.6004V0.952148ZM8.29125 0.952148H4.8002V4.44956H8.29125V0.952148ZM120 35.9246V14.0666H113.022V27.8373H111.495C110.622 27.8373 110.186 27.6191 110.186 26.5258V14.0708H103.204V27.8373C103.204 30.0232 104.513 32.2091 107.131 32.2091H113.022V33.7354C113.022 34.6098 112.804 35.047 111.713 35.047H104.509V40.2964H116.073C118.691 40.2964 120 38.1105 120 35.9246ZM87.2763 14.0666C84.6589 14.0666 83.3497 16.2525 83.3497 18.4384V40.2948H90.331V29.3678H93.1638V40.2964H100.145V14.0666H87.2763ZM93.1671 24.996H90.331V19.7499C90.331 18.6574 90.7674 18.4442 91.6402 18.4442L93.1679 18.4384L93.1671 24.996ZM80.2909 40.2964V31.5529C80.2934 29.3678 79.1996 27.4001 77.454 27.177C79.1996 26.9629 80.2909 24.996 80.2909 22.8102V14.0666H73.3088V23.6845C73.3088 24.777 72.8724 24.996 71.9997 24.996H70.4727V14.0666H63.4906V22.8102C63.4873 24.996 64.5787 26.9629 66.3242 27.177C64.5787 27.4001 63.4906 29.3678 63.4906 31.5529V40.2931H70.4727V30.6785C70.4727 29.586 70.9091 29.3678 71.7819 29.3678H73.3088V40.2964H80.2909ZM55.418 24.996H59.7777V29.3678H55.418V35.037L60.4368 35.0503V40.2964H48.4367V14.0724L60.4368 14.0666V19.3127H55.418V24.996ZM29.4545 14.0666H41.4546C44.0729 14.0658 45.382 16.2525 45.382 18.4384V28.934C45.382 31.119 44.0729 33.3049 41.4546 33.3049H36.4341V40.2939H29.4545V14.0666ZM37.9636 28.9306C38.8363 28.9306 39.2727 28.7116 39.2727 27.6191V19.7499C39.2727 18.6574 38.8363 18.4384 37.9636 18.4384H36.4341V28.9306H37.9636Z" fill="white" fill-opacity="0.47"/>
</svg>
