<svg width="181" height="31" viewBox="0 0 181 31" fill="none" xmlns="http://www.w3.org/2000/svg">
<path d="M29.9576 5.43319C28.604 3.64355 27.2499 1.85328 25.9047 0.0566406C24.9334 1.34397 23.9602 2.62981 22.987 3.91551L22.9863 3.91654L22.9849 3.91836C20.7268 6.9017 18.4688 9.88496 16.238 12.8835C21.0684 12.8917 25.8989 12.8907 30.7293 12.8897C32.3397 12.8893 33.95 12.889 35.5604 12.889C33.7091 10.3931 31.8333 7.91304 29.9576 5.43319Z" fill="white" fill-opacity="0.47"/>
<path d="M3.99206 0.312954C2.93273 0.313295 1.87341 0.313637 0.81408 0.313637V2.50066C1.87341 2.50066 2.93273 2.501 3.99206 2.50135C7.17009 2.50237 10.3481 2.5034 13.5262 2.49519V0.319105C10.3481 0.310903 7.17009 0.311928 3.99206 0.312954Z" fill="white" fill-opacity="0.47"/>
<path d="M0.81408 5.5078C1.87339 5.5078 2.93271 5.50746 3.99202 5.50712C7.16987 5.50609 10.3483 5.50507 13.5262 5.51327V7.68936C10.3482 7.69756 7.17023 7.69653 3.99226 7.69551C2.93287 7.69517 1.87347 7.69483 0.81408 7.69483V5.5078Z" fill="white" fill-opacity="0.47"/>
<path d="M59.5904 5.50787H44.5546V9.33516C46.3753 9.32969 48.2015 9.33516 50.0276 9.34063C50.0194 12.96 50.0205 16.5794 50.0215 20.1988V20.2041C50.0218 21.4108 50.0222 22.6175 50.0222 23.8242H54.1228C54.1256 21.4106 54.1242 18.9956 54.1228 16.5807C54.1215 14.165 54.1201 11.7494 54.1228 9.33516H59.5904V5.50787Z" fill="white" fill-opacity="0.47"/>
<path d="M67.655 5.5078C68.7952 5.5078 69.9351 5.50746 71.0747 5.50712C74.4926 5.50609 77.9082 5.50507 81.3239 5.51327V9.1984C80.2597 9.1984 79.1961 9.1978 78.1329 9.19719L78.1269 9.19719C76.002 9.19597 73.8788 9.19476 71.7556 9.1984V12.7523C73.6399 12.756 75.5218 12.7547 77.4044 12.7535L77.409 12.7535C78.3491 12.7529 79.2894 12.7523 80.2304 12.7523V16.4375C78.817 16.4429 77.4036 16.4429 75.9903 16.4429C74.5769 16.4429 73.1635 16.4429 71.7502 16.4484C71.7556 17.6721 71.7556 18.9013 71.7556 20.1305V20.1335C73.9105 20.1372 76.063 20.136 78.2162 20.1347H78.2246C79.3029 20.1341 80.3814 20.1335 81.4606 20.1335V23.8241C79.9256 23.8241 78.3912 23.8247 76.8573 23.8253H76.8464C73.7833 23.8266 70.7219 23.8278 67.6604 23.8241C67.655 17.7219 67.655 11.6251 67.655 5.52281V5.5078Z" fill="white" fill-opacity="0.47"/>
<path d="M105.917 7.67298C102.106 4.34324 95.6599 4.23389 91.9693 7.79327C87.9561 11.6588 88.2787 19.2314 92.9972 22.4026C97.076 25.1965 102.844 24.4092 106.475 21.2216C106.471 19.4319 106.472 17.6422 106.473 15.8525C106.474 14.9576 106.475 14.0627 106.475 13.1679C103.834 13.1569 101.188 13.1624 98.5467 13.1679V13.1737C98.5467 14.3528 98.5467 15.5373 98.5522 16.7163H102.505C102.505 17.5747 102.516 18.4331 102.527 19.2915C100.362 20.5928 97.3056 20.7842 95.3209 19.0346C92.4559 16.5468 92.9862 11.2597 96.4089 9.51555C98.7108 8.31816 101.461 9.23124 103.304 10.8442C103.685 10.3791 104.068 9.91617 104.451 9.45347L104.452 9.45186L104.453 9.45055L104.455 9.44908L104.456 9.44692C104.945 8.85648 105.434 8.26644 105.917 7.67298Z" fill="white" fill-opacity="0.47"/>
<path fill-rule="evenodd" clip-rule="evenodd" d="M120.472 5.75384C124.381 4.44163 129.225 5.33831 131.8 8.7446C134.408 12.1618 134.376 17.3943 131.691 20.7568C127.765 25.5245 118.99 25.273 115.775 19.8383C112.746 15.005 114.807 7.52533 120.472 5.75384ZM121.581 9.5702C118.64 11.1449 117.88 15.4041 119.821 18.034C121.226 20.0898 124.14 20.8881 126.382 19.7727C129.843 18.2582 130.461 13.0858 127.88 10.5052C126.289 8.85942 123.583 8.5259 121.581 9.5702Z" fill="white" fill-opacity="0.47"/>
<path d="M145.841 5.51326C144.474 5.50779 143.107 5.50779 141.741 5.51326V23.8187C144.984 23.8269 148.23 23.8258 151.477 23.8248H151.478C152.561 23.8245 153.643 23.8241 154.726 23.8241C154.726 22.5447 154.726 21.2708 154.721 19.9968C151.763 19.9968 148.799 19.9968 145.841 19.9914C145.838 16.7742 145.839 13.5595 145.84 10.3439V10.3403C145.841 8.73163 145.841 7.12275 145.841 5.51326Z" fill="white" fill-opacity="0.47"/>
<path fill-rule="evenodd" clip-rule="evenodd" d="M168.92 5.37117C170.177 5.37117 171.435 5.37117 172.692 5.36024C173.714 7.78134 174.741 10.1999 175.768 12.6183L175.778 12.6417C177.359 16.365 178.941 20.0879 180.5 23.8187L176.142 23.8351C175.59 22.4682 175.038 21.0959 174.497 19.7235C173.87 19.7235 173.244 19.7232 172.619 19.7228H172.617C170.742 19.7218 168.867 19.7208 166.99 19.729C166.459 21.1177 165.891 22.4846 165.311 23.8461C163.933 23.8297 162.555 23.8133 161.183 23.8133C163.714 17.6458 166.317 11.5058 168.92 5.37117ZM170.713 10.4888L170.709 10.4979C169.978 12.3429 169.246 14.1879 168.504 16.0329C169.253 16.0329 170.002 16.0343 170.752 16.0356L170.754 16.0357C171.504 16.037 172.255 16.0384 173.004 16.0384C172.288 14.1685 171.55 12.3095 170.713 10.4888Z" fill="white" fill-opacity="0.47"/>
<path d="M3.99243 10.7013C2.93298 10.7016 1.87353 10.702 0.81408 10.702V12.889C1.87353 12.889 2.93298 12.8893 3.99243 12.8897C7.17034 12.8907 10.3482 12.8917 13.5262 12.8835V10.7074C10.3482 10.6992 7.17034 10.7003 3.99243 10.7013Z" fill="white" fill-opacity="0.47"/>
<path d="M6.16678 17.1538C10.6064 16.2735 14.8383 20.8717 13.5917 25.2184C12.8372 29.1551 8.16791 31.3804 4.54839 29.8221C1.25691 28.5646 -0.37242 24.4475 0.9726 21.2326C1.7982 19.0729 3.85401 17.4053 6.16678 17.1538Z" fill="white" fill-opacity="0.47"/>
<path d="M20.7008 17.4026C20.3155 17.4039 19.9306 17.4053 19.5459 17.4053C19.5377 20.5456 19.5387 23.686 19.5398 26.8263V26.8286C19.5401 27.8757 19.5405 28.9227 19.5405 29.9697C20.3165 29.9697 21.0871 29.9752 21.8578 29.9807C21.866 26.8353 21.8659 23.69 21.8649 20.5447C21.8645 19.4964 21.8642 18.4481 21.8642 17.3998C21.4753 17.3998 21.0877 17.4012 20.7008 17.4026Z" fill="white" fill-opacity="0.47"/>
<path d="M25.8924 17.4026C26.2806 17.4012 26.6694 17.3998 27.0583 17.3998C27.0565 18.7977 27.0577 20.1962 27.0589 21.5948C27.0614 24.3922 27.0638 27.1904 27.0419 29.9861L24.7346 29.9697V17.4053C25.1194 17.4053 25.5056 17.4039 25.8924 17.4026Z" fill="white" fill-opacity="0.47"/>
<path d="M31.0893 17.4026C30.7038 17.4039 30.319 17.4053 29.9342 17.4053C29.9288 21.5934 29.9233 25.7816 29.9342 29.9752H32.247C32.2552 26.8341 32.2542 23.6899 32.2532 20.5449C32.2528 19.4966 32.2525 18.4482 32.2525 17.3998C31.8636 17.3998 31.4761 17.4012 31.0893 17.4026Z" fill="white" fill-opacity="0.47"/>
</svg>
