<svg width="1128" height="152" viewBox="0 0 1128 152" fill="none" xmlns="http://www.w3.org/2000/svg">
<path fill-rule="evenodd" clip-rule="evenodd" d="M549.52 80.2458C550.922 80.7812 552.423 81.0088 553.92 80.9129V81.0443C555.43 81.1464 556.945 80.9186 558.358 80.3768C559.772 79.835 561.051 78.9921 562.106 77.9066C563.162 76.8211 563.969 75.5188 564.472 74.0901C564.975 72.6614 565.161 71.1404 565.018 69.6324C565.137 68.1367 564.934 66.6327 564.42 65.2229C563.907 63.813 563.096 62.5303 562.043 61.462C560.99 60.3938 559.72 59.565 558.318 59.0321C556.916 58.4992 555.416 58.2747 553.92 58.3738C552.424 58.2747 550.924 58.4992 549.522 59.0321C548.12 59.565 546.849 60.3938 545.796 61.462C544.743 62.5303 543.933 63.813 543.419 65.2229C542.906 66.6327 542.702 68.1367 542.822 69.6324C542.703 71.1291 542.907 72.6339 543.42 74.0448C543.933 75.4556 544.743 76.7396 545.796 77.8095C546.848 78.8794 548.119 79.7103 549.52 80.2458ZM558.473 69.6324C558.473 73.0275 557.816 76.6636 553.92 76.6636C550.045 76.6636 549.411 73.0056 549.411 69.6324C549.411 66.2592 550.024 62.6013 553.92 62.6013C557.816 62.6013 558.473 66.2373 558.473 69.6324Z" fill="#F7FAFC" fill-opacity="0.98"/>
<path d="M571.169 54.7597V59.1405H566.791V63.2584H571.169V73.838C571.169 78.4597 572.22 81.0443 577.188 81.0443C578.87 81.0139 580.544 80.8009 582.179 80.4091V76.6636C581.501 76.795 580.822 76.795 580.144 76.795C577.933 76.795 577.517 76.0503 577.517 73.2466V63.3679H582.311V59.1405H577.517V52.5693L571.169 54.7597Z" fill="#F7FAFC" fill-opacity="0.98"/>
<path fill-rule="evenodd" clip-rule="evenodd" d="M591.857 80.2461C593.258 80.7818 594.758 81.0092 596.254 80.9129V81.0443C597.764 81.1464 599.279 80.9186 600.692 80.3768C602.106 79.835 603.385 78.9921 604.441 77.9066C605.496 76.8211 606.303 75.5188 606.806 74.0901C607.309 72.6614 607.495 71.1404 607.352 69.6324C607.419 68.134 607.181 66.6377 606.654 65.2336C606.127 63.8296 605.321 62.5469 604.285 61.4631C603.249 60.3792 602.004 59.5166 600.626 58.9272C599.247 58.3379 597.764 58.0341 596.265 58.0341C594.766 58.0341 593.283 58.3379 591.905 58.9272C590.526 59.5166 589.281 60.3792 588.245 61.4631C587.209 62.5469 586.403 63.8296 585.876 65.2336C585.349 66.6377 585.112 68.134 585.178 69.6324C585.056 71.128 585.256 72.6324 585.767 74.0433C586.277 75.4542 587.086 76.7385 588.137 77.8089C589.188 78.8792 590.457 79.7105 591.857 80.2461ZM600.785 69.6324C600.785 73.0275 600.172 76.6636 596.254 76.6636C592.38 76.6636 591.745 73.0056 591.745 69.6324C591.745 66.2592 592.336 62.6013 596.254 62.6013C600.172 62.6013 600.785 66.2373 600.785 69.6324Z" fill="#F7FAFC" fill-opacity="0.98"/>
<path fill-rule="evenodd" clip-rule="evenodd" d="M533.125 66.6535L541.53 80.3872L533.606 80.212L525.967 67.7268H521.699V80.212H515.132V49.5466H528.265C533.519 49.5466 538.882 52.3722 538.882 58.3081C538.81 60.1017 538.231 61.8381 537.212 63.3154C536.192 64.7926 534.775 65.9502 533.125 66.6535ZM527.346 54.7597H521.83L521.742 62.9079H527.346C530.214 62.8422 531.921 61.3966 531.921 58.6805C531.921 55.9644 530.214 54.7597 527.346 54.7597Z" fill="#F7FAFC" fill-opacity="0.98"/>
<path d="M637.56 80.212L557.378 0H519.181L439 80.212H478.795L554.73 3.92079L630.993 80.212H637.56Z" fill="#F7FAFC" fill-opacity="0.98"/>
<path d="M530.673 117.471H533.541L538.116 99.9474H535.927L532.14 115.28L527.302 99.9474H524.544L519.838 115.28L516.007 99.9474H513.621L518.262 117.471H521.195L525.879 102.138L530.673 117.471Z" fill="#F7FAFC" fill-opacity="0.98"/>
<path d="M540.567 102.182V99.9912H542.909V102.182H540.567Z" fill="#F7FAFC" fill-opacity="0.98"/>
<path d="M540.677 117.514V105.292H542.866V117.471L540.677 117.514Z" fill="#F7FAFC" fill-opacity="0.98"/>
<path d="M554.817 110.724V117.471L556.897 117.361V109.782C556.897 106.803 555.693 105.051 552.519 105.051C551.725 105.036 550.94 105.231 550.245 105.616C549.55 106 548.968 106.561 548.557 107.241V105.292H546.477V117.471H548.666V111.403C548.666 109.147 549.454 106.76 552.016 106.76C554.577 106.76 554.817 108.534 554.817 110.724Z" fill="#F7FAFC" fill-opacity="0.98"/>
<path fill-rule="evenodd" clip-rule="evenodd" d="M569.243 117.47V115.609C568.834 116.273 568.255 116.817 567.566 117.182C566.877 117.548 566.103 117.723 565.324 117.69C561.647 117.69 560.005 114.601 560.005 111.294C560.005 107.986 561.581 105.139 565.149 105.139C565.953 105.083 566.756 105.26 567.463 105.648C568.169 106.037 568.749 106.62 569.133 107.329V100.035H571.322V117.449L569.243 117.47ZM565.478 106.519C562.851 106.519 562.107 109.103 562.107 111.294C562.107 113.484 563.004 116.091 565.74 116.091C568.476 116.091 569.155 113.55 569.155 111.359C569.155 109.169 568.148 106.562 565.478 106.562V106.519Z" fill="#F7FAFC" fill-opacity="0.98"/>
<path fill-rule="evenodd" clip-rule="evenodd" d="M577.798 117.303C578.569 117.62 579.398 117.766 580.231 117.733C581.046 117.744 581.855 117.586 582.605 117.268C583.356 116.951 584.033 116.48 584.592 115.887C585.152 115.294 585.583 114.592 585.857 113.824C586.131 113.055 586.243 112.239 586.185 111.425C586.275 110.608 586.186 109.78 585.925 109C585.664 108.221 585.236 107.507 584.672 106.909C584.108 106.311 583.42 105.843 582.657 105.537C581.894 105.232 581.074 105.096 580.253 105.139C579.44 105.103 578.628 105.239 577.871 105.539C577.114 105.839 576.429 106.295 575.861 106.878C575.293 107.462 574.854 108.158 574.573 108.923C574.293 109.688 574.177 110.503 574.233 111.316C574.145 112.145 574.235 112.983 574.5 113.774C574.764 114.565 575.195 115.289 575.764 115.898C576.333 116.507 577.027 116.986 577.798 117.303ZM576.466 111.316C576.466 108.928 577.495 106.562 580.231 106.562C582.945 106.562 583.974 108.994 583.974 111.316C583.974 113.637 582.989 116.288 580.231 116.288C577.473 116.288 576.466 113.703 576.466 111.316Z" fill="#F7FAFC" fill-opacity="0.98"/>
<path d="M602.843 117.471H600.654L597.349 107.329L593.868 117.405H591.679L587.301 105.226H589.665L592.796 115.214L596.145 105.226H598.574L601.858 115.083L604.966 105.226H607.155L602.843 117.471Z" fill="#F7FAFC" fill-opacity="0.98"/>
<path fill-rule="evenodd" clip-rule="evenodd" d="M626.133 117.471V108.994L629.329 108.95V107.329H626.177V103.583H623.988V107.329H621.077C619.172 107.329 616.371 106.738 616.371 104.438C616.371 102.138 618.428 101.415 620.289 101.415C621.237 101.443 622.179 101.59 623.091 101.853V99.9912C622.027 99.8131 620.951 99.7106 619.873 99.6846C617.312 99.6846 614.116 100.999 614.116 104.197C614.068 104.676 614.114 105.16 614.253 105.621C614.392 106.082 614.621 106.511 614.926 106.883C615.231 107.256 615.606 107.564 616.031 107.791C616.455 108.018 616.92 108.159 617.399 108.205C616.288 108.278 615.247 108.771 614.486 109.585C613.726 110.399 613.304 111.472 613.306 112.586C613.306 116.594 617.027 117.471 620.136 117.471H626.133ZM621.011 108.994H623.944L623.988 115.696H621.449C619.151 115.696 615.648 115.346 615.648 112.301C615.648 109.257 618.822 108.994 621.011 108.994Z" fill="#F7FAFC" fill-opacity="0.98"/>
<path fill-rule="evenodd" clip-rule="evenodd" d="M643.711 117.361C642.736 117.452 641.756 117.489 640.777 117.47H636.597V99.9474H641.697C643.332 99.9001 644.963 100.145 646.513 100.67C649.84 102.05 650.89 105.051 650.89 108.599C650.912 113.462 648.701 116.857 643.711 117.361ZM646.075 102.817C644.708 102.01 643.124 101.65 641.544 101.787H638.851V115.718H641.981C646.731 115.718 648.548 113.243 648.548 108.687C648.638 107.582 648.46 106.471 648.029 105.449C647.598 104.427 646.928 103.524 646.075 102.817Z" fill="#F7FAFC" fill-opacity="0.98"/>
<path fill-rule="evenodd" clip-rule="evenodd" d="M656.865 117.303C657.635 117.62 658.464 117.767 659.296 117.733C660.113 117.748 660.924 117.592 661.677 117.275C662.43 116.959 663.11 116.489 663.672 115.896C664.234 115.302 664.666 114.598 664.942 113.829C665.217 113.059 665.33 112.241 665.272 111.425C665.362 110.608 665.273 109.78 665.012 109C664.75 108.221 664.323 107.507 663.759 106.909C663.194 106.311 662.507 105.843 661.744 105.537C660.981 105.232 660.161 105.096 659.34 105.139C658.527 105.103 657.715 105.239 656.958 105.539C656.201 105.839 655.516 106.295 654.948 106.878C654.38 107.462 653.941 108.158 653.66 108.923C653.38 109.688 653.264 110.503 653.32 111.316C653.228 112.143 653.316 112.981 653.577 113.772C653.839 114.563 654.268 115.288 654.835 115.897C655.403 116.507 656.095 116.986 656.865 117.303ZM655.553 111.316C655.553 108.928 656.582 106.562 659.296 106.562C662.032 106.562 663.061 108.994 663.061 111.316C663.061 113.637 662.032 116.288 659.296 116.288C656.56 116.288 655.553 113.703 655.553 111.316Z" fill="#F7FAFC" fill-opacity="0.98"/>
<path fill-rule="evenodd" clip-rule="evenodd" d="M673.546 117.733C672.713 117.766 671.884 117.62 671.113 117.303C670.342 116.986 669.648 116.507 669.079 115.898C668.51 115.289 668.079 114.565 667.815 113.774C667.55 112.983 667.46 112.145 667.548 111.316C667.492 110.503 667.608 109.688 667.888 108.923C668.169 108.158 668.608 107.462 669.176 106.878C669.744 106.295 670.429 105.839 671.186 105.539C671.943 105.239 672.755 105.103 673.568 105.139C674.39 105.092 675.213 105.226 675.979 105.53C676.745 105.834 677.435 106.302 678.002 106.9C678.568 107.499 678.998 108.213 679.26 108.995C679.523 109.776 679.612 110.606 679.522 111.425C679.58 112.241 679.467 113.059 679.192 113.829C678.916 114.598 678.484 115.302 677.922 115.896C677.36 116.489 676.68 116.959 675.927 117.275C675.174 117.592 674.363 117.748 673.546 117.733ZM673.546 106.562C670.832 106.562 669.781 108.928 669.781 111.316C669.781 113.703 670.788 116.288 673.546 116.288C676.304 116.288 677.311 113.637 677.311 111.316C677.311 108.994 676.26 106.562 673.546 106.562Z" fill="#F7FAFC" fill-opacity="0.98"/>
<path d="M684.622 110.921C684.622 108.599 685.432 107.176 687.949 107.176C688.304 107.191 688.656 107.243 689 107.329V105.226H688.321C687.578 105.18 686.836 105.345 686.182 105.701C685.528 106.058 684.987 106.591 684.622 107.241V105.292H682.433V117.492H684.622V110.921Z" fill="#F7FAFC" fill-opacity="0.98"/>
<path d="M521.195 130.744V146.384H519.006V130.744H513.424V128.948H526.755V130.744H521.195Z" fill="#F7FAFC" fill-opacity="0.98"/>
<path fill-rule="evenodd" clip-rule="evenodd" d="M528.331 140.93V140.689L537.218 140.732C537.218 137.184 535.927 134.03 531.987 134.03C528.047 134.03 526.208 136.987 526.208 140.601C526.208 144.215 528.047 146.756 531.812 146.756C532.449 146.819 533.092 146.756 533.704 146.57C534.317 146.384 534.887 146.079 535.381 145.672C535.875 145.265 536.284 144.764 536.584 144.198C536.885 143.632 537.07 143.013 537.131 142.375H535.117C535.108 142.775 535.02 143.169 534.858 143.534C534.695 143.9 534.461 144.229 534.169 144.502C533.878 144.776 533.534 144.988 533.159 145.127C532.785 145.266 532.386 145.328 531.987 145.31C531.448 145.295 530.918 145.165 530.433 144.929C529.948 144.694 529.519 144.358 529.173 143.943C528.828 143.529 528.574 143.047 528.429 142.527C528.284 142.007 528.25 141.463 528.331 140.93ZM528.375 139.287C528.572 137.272 529.732 135.432 531.921 135.432C534.132 135.432 535.139 137.294 535.117 139.287H528.375Z" fill="#F7FAFC" fill-opacity="0.98"/>
<path d="M545.383 146.756C544.567 146.806 543.75 146.676 542.99 146.377C542.229 146.078 541.544 145.615 540.98 145.023C540.417 144.43 539.991 143.721 539.73 142.946C539.47 142.171 539.382 141.348 539.473 140.535C539.375 139.695 539.459 138.844 539.719 138.039C539.98 137.235 540.41 136.496 540.981 135.872C541.552 135.249 542.251 134.756 543.029 134.427C543.807 134.097 544.648 133.94 545.492 133.964C546.115 133.879 546.748 133.929 547.35 134.111C547.951 134.293 548.506 134.602 548.978 135.018C549.449 135.433 549.826 135.946 550.082 136.52C550.338 137.094 550.467 137.716 550.461 138.345H548.448C548.461 137.967 548.394 137.59 548.252 137.239C548.11 136.888 547.896 136.571 547.623 136.308C547.351 136.046 547.026 135.844 546.67 135.716C546.314 135.587 545.935 135.535 545.558 135.563C542.712 135.563 541.793 138.06 541.793 140.535C541.793 143.01 542.778 145.398 545.471 145.398C545.868 145.407 546.263 145.335 546.631 145.186C546.999 145.037 547.333 144.814 547.612 144.53C547.891 144.247 548.109 143.91 548.252 143.539C548.396 143.169 548.463 142.772 548.448 142.375H550.505C550.479 143.008 550.323 143.628 550.047 144.197C549.77 144.766 549.38 145.272 548.899 145.683C548.418 146.095 547.858 146.402 547.253 146.587C546.648 146.771 546.011 146.829 545.383 146.756Z" fill="#F7FAFC" fill-opacity="0.98"/>
<path d="M561.581 139.637V146.384H563.77V138.805C563.77 135.804 562.61 134.052 559.392 134.052C558.606 134.017 557.825 134.189 557.126 134.551C556.428 134.912 555.835 135.45 555.408 136.111V128.948H553.219V146.471H555.408V140.032C555.408 137.841 556.175 135.651 558.757 135.651C561.34 135.651 561.581 137.447 561.581 139.637Z" fill="#F7FAFC" fill-opacity="0.98"/>
<path d="M575.7 146.384V139.637C575.7 137.447 575.481 135.673 572.898 135.673C570.315 135.673 569.549 137.994 569.549 140.316V146.384H567.36V134.205H569.549V136.155C569.973 135.494 570.561 134.955 571.255 134.591C571.95 134.226 572.727 134.048 573.511 134.074C576.707 134.074 577.889 135.826 577.889 138.805V146.384H575.7Z" fill="#F7FAFC" fill-opacity="0.98"/>
<path fill-rule="evenodd" clip-rule="evenodd" d="M582.244 144.896C583.434 146.087 585.049 146.756 586.732 146.756C587.573 146.774 588.409 146.612 589.182 146.28C589.955 145.948 590.648 145.454 591.214 144.831C591.78 144.208 592.207 143.471 592.464 142.67C592.722 141.868 592.805 141.021 592.708 140.185C592.775 139.376 592.668 138.561 592.394 137.797C592.119 137.033 591.684 136.337 591.117 135.755C590.551 135.174 589.866 134.721 589.11 134.427C588.353 134.133 587.542 134.005 586.732 134.052C585.049 134.052 583.434 134.721 582.244 135.912C581.053 137.104 580.384 138.719 580.384 140.404C580.384 142.089 581.053 143.704 582.244 144.896ZM582.989 140.338C582.989 137.951 584.018 135.585 586.732 135.585V135.475C589.468 135.475 590.497 138.016 590.497 140.338C590.497 142.66 589.468 145.31 586.732 145.31C583.996 145.31 582.989 142.726 582.989 140.338Z" fill="#F7FAFC" fill-opacity="0.98"/>
<path d="M595.729 146.384V128.861H597.918V146.384H595.729Z" fill="#F7FAFC" fill-opacity="0.98"/>
<path fill-rule="evenodd" clip-rule="evenodd" d="M602.338 144.896C603.529 146.087 605.143 146.756 606.827 146.756C607.668 146.774 608.503 146.612 609.276 146.28C610.049 145.948 610.743 145.454 611.309 144.831C611.875 144.208 612.301 143.471 612.559 142.67C612.817 141.868 612.9 141.021 612.803 140.185C612.87 139.376 612.763 138.561 612.488 137.797C612.214 137.033 611.779 136.337 611.212 135.755C610.645 135.174 609.961 134.721 609.204 134.427C608.448 134.133 607.637 134.005 606.827 134.052C605.143 134.052 603.529 134.721 602.338 135.912C601.148 137.104 600.479 138.719 600.479 140.404C600.479 142.089 601.148 143.704 602.338 144.896ZM603.171 140.185C603.171 137.841 604.113 135.476 606.827 135.585V135.475C609.563 135.475 610.679 137.863 610.679 140.185C610.679 142.507 609.651 145.157 606.914 145.157C604.178 145.157 603.171 142.529 603.171 140.185Z" fill="#F7FAFC" fill-opacity="0.98"/>
<path fill-rule="evenodd" clip-rule="evenodd" d="M626.571 138.433V142.945C626.571 147.61 626.352 151.224 620.836 151.224C618.384 151.224 615.802 150.48 615.802 147.523H617.99C617.99 149.253 619.435 149.713 620.924 149.713C623.463 149.713 624.317 148.289 624.514 146.055V144.04C624.097 144.73 623.505 145.297 622.797 145.682C622.089 146.067 621.291 146.257 620.486 146.23C616.852 146.23 615.145 143.47 615.145 140.119C615.145 136.768 616.918 133.964 620.464 133.964C621.286 133.904 622.109 134.078 622.837 134.466C623.565 134.853 624.169 135.439 624.579 136.155V134.074H626.768C626.571 135.607 626.571 137.031 626.571 138.433ZM620.924 135.475C618.253 135.475 617.334 137.929 617.334 140.207C617.334 142.485 618.297 144.828 620.902 144.828C623.507 144.828 624.47 142.331 624.47 140.01C624.47 137.688 623.397 135.475 620.924 135.475Z" fill="#F7FAFC" fill-opacity="0.98"/>
<path d="M632.044 150.962H634.232L641.084 134.205H638.895L635.086 144.171L631.256 134.205H628.848L634.035 146.362L632.044 150.962Z" fill="#F7FAFC" fill-opacity="0.98"/>
</svg>
