<svg width="120" height="31" viewBox="0 0 120 31" fill="none" xmlns="http://www.w3.org/2000/svg">
<path d="M14.7702 0.519531C12.8304 0.519531 10.9096 0.903013 9.11754 1.64808C7.32545 2.39315 5.69714 3.4852 4.32558 4.86189C2.95403 6.23858 1.86609 7.87294 1.12391 9.67164C0.38172 11.4703 -0.000185187 13.3982 6.7365e-08 15.345C0.000374363 19.2763 1.55668 23.0465 4.32658 25.8263C7.09648 28.606 10.8531 30.1676 14.7702 30.1676H21.2303V22.7549H14.7702C11.0773 22.7549 7.38438 19.9762 7.38438 15.3436C7.38438 10.711 11.0773 7.93509 14.7702 7.93509C19.3845 7.93509 22.1531 11.6415 22.1531 15.3464V22.7549C22.1535 24.7202 22.9317 26.605 24.3165 27.9946C25.7013 29.3841 27.5793 30.1648 29.5375 30.1648V15.3422C29.5375 11.4112 27.9817 7.64122 25.2123 4.86148C22.443 2.08174 18.6868 0.519907 14.7702 0.519531Z" fill="white" fill-opacity="0.94"/>
<path d="M43.3368 0.519531H58.1535L58.1493 0.525196C58.149 2.48222 57.3771 4.35961 56.0023 5.74741C54.6275 7.13521 52.7614 7.92066 50.8115 7.93226H43.3806V22.7761C43.3757 24.7379 42.5959 26.6177 41.2122 28.0033C39.8284 29.3889 37.9537 30.1673 35.999 30.1676V7.87561C36.012 5.92721 36.7895 4.06243 38.163 2.68546C39.5366 1.30849 41.3955 0.530294 43.3368 0.519531Z" fill="white" fill-opacity="0.94"/>
<path d="M104.041 2.39977C105.373 1.2081 107.092 0.54292 108.876 0.528029H120V7.93934H108.924V30.1747H101.538V7.93934H90.4611V0.528029H101.538V7.00602H101.633C101.853 5.22842 102.708 3.59144 104.041 2.39977Z" fill="white" fill-opacity="0.94"/>
<path d="M67.2713 1.64811C69.0633 0.903024 70.984 0.519531 72.9237 0.519531C76.8406 0.519531 80.5971 2.0812 83.3668 4.86098C86.1365 7.64076 87.6925 11.411 87.6925 15.3422V30.1648C85.7344 30.1644 83.8566 29.3837 82.4718 27.9941C81.0871 26.6046 80.3088 24.7201 80.3081 22.7549V15.345C80.3081 11.64 77.5381 7.93368 72.9237 7.93368C69.2308 7.93368 65.5365 10.711 65.5379 15.3436C65.5393 19.9762 69.2308 22.7549 72.9237 22.7549H79.3852V30.1676H72.9237C69.0068 30.1676 65.2503 28.606 62.4806 25.8262C59.711 23.0464 58.155 19.2762 58.155 15.345C58.1546 13.3982 58.5363 11.4704 59.2784 9.67175C60.0204 7.87306 61.1082 6.23869 62.4796 4.86198C63.8511 3.48527 65.4793 2.39319 67.2713 1.64811Z" fill="white" fill-opacity="0.94"/>
</svg>
