<svg width="150" height="25" viewBox="0 0 150 25" fill="none" xmlns="http://www.w3.org/2000/svg">
<path fill-rule="evenodd" clip-rule="evenodd" d="M146.746 1.61462V4.05315H147.145V3.01971H147.371C147.483 3.01242 147.594 3.041 147.688 3.10129C147.858 3.26148 147.997 3.45212 148.096 3.66333L148.314 4.05315H148.794L148.495 3.5727C148.391 3.40052 148.27 3.23951 148.133 3.09225C148.074 3.03877 148.006 2.99582 147.933 2.96532C148.122 2.95509 148.3 2.87419 148.432 2.73869C148.494 2.67886 148.542 2.60694 148.575 2.52739C148.608 2.44784 148.624 2.36237 148.622 2.27636C148.621 2.15041 148.583 2.0275 148.513 1.92283C148.436 1.81524 148.329 1.73313 148.205 1.68713C148.005 1.63079 147.797 1.60633 147.589 1.61462H146.746ZM147.589 2.6843H147.145L147.108 1.99534H147.552C147.681 1.9697 147.814 1.9697 147.942 1.99534C148.012 2.01829 148.072 2.06275 148.114 2.12227C148.151 2.1788 148.17 2.24514 148.169 2.31263C148.171 2.36264 148.162 2.41254 148.141 2.45823C148.121 2.50392 148.09 2.54411 148.051 2.57553C147.913 2.662 147.751 2.70026 147.589 2.6843Z" fill="white" fill-opacity="0.94"/>
<path fill-rule="evenodd" clip-rule="evenodd" d="M148.849 0.835002C148.512 0.643447 148.13 0.543459 147.743 0.544938C147.352 0.544375 146.968 0.644252 146.628 0.835002C146.272 1.02511 145.979 1.31495 145.785 1.66901C145.59 2.01506 145.487 2.40512 145.486 2.80215C145.487 3.19633 145.59 3.58346 145.785 3.92622C145.98 4.276 146.269 4.56471 146.619 4.76023C146.961 4.95605 147.348 5.05915 147.743 5.05937C148.137 5.05791 148.524 4.95489 148.867 4.76023C149.217 4.56471 149.505 4.276 149.701 3.92622C149.895 3.58346 149.999 3.19633 150 2.80215C149.999 2.4038 149.893 2.01275 149.692 1.66901C149.5 1.31298 149.207 1.02247 148.849 0.835002ZM146.836 1.16136C147.114 1.0078 147.425 0.9238 147.743 0.916585C148.057 0.923816 148.366 1.00786 148.64 1.16136C148.936 1.32095 149.179 1.56358 149.338 1.85937C149.502 2.13421 149.592 2.44625 149.601 2.76589C149.593 3.08437 149.505 3.3958 149.347 3.6724C149.188 3.96819 148.945 4.21085 148.649 4.37044C148.375 4.53339 148.062 4.62094 147.743 4.62426C147.424 4.62094 147.111 4.53339 146.836 4.37044C146.538 4.21098 146.293 3.96852 146.129 3.6724C145.974 3.39526 145.889 3.0837 145.884 2.76589C145.89 2.447 145.978 2.13491 146.138 1.85937C146.302 1.56661 146.544 1.325 146.836 1.16136Z" fill="white" fill-opacity="0.94"/>
<path fill-rule="evenodd" clip-rule="evenodd" d="M142.829 4.42484C140.203 2.85121 137.177 2.07339 134.118 2.18574C131.073 2.07279 128.061 2.85097 125.452 4.42484C122.642 6.32852 121.237 9.10246 121.237 12.9824C121.237 17.243 122.488 19.8628 125.452 21.8753C128.105 23.3667 131.097 24.1501 134.141 24.1501C137.184 24.1501 140.176 23.3667 142.829 21.8753C145.676 19.9353 146.999 17.243 146.999 13.1727C146.999 9.10246 145.676 6.40104 142.829 4.42484ZM127.011 13.1002C127.011 9.32907 129.83 6.81803 134.118 6.81803C138.415 6.81803 141.225 9.29282 141.225 13.1727C141.225 17.0526 138.505 19.5183 134.118 19.5183C129.731 19.5183 127.011 17.0526 127.011 13.1002Z" fill="white" fill-opacity="0.94"/>
<path fill-rule="evenodd" clip-rule="evenodd" d="M57.6819 2.56649H64.4082L73.0381 23.7336H66.6926L65.0971 19.745H55.742L54.0287 23.7336H48.1365L57.6819 2.56649ZM57.6819 15.0764H63.4201L60.7187 8.15063L57.6819 15.0764Z" fill="white" fill-opacity="0.94"/>
<path fill-rule="evenodd" clip-rule="evenodd" d="M112.108 2.63899C113.867 2.60736 115.572 3.2452 116.878 4.42336C118.184 5.60153 118.993 7.23198 119.143 8.9846C119.143 13.5172 116.976 15.6294 113.25 15.9738L119.832 23.6158H113.486L107.095 16.1642H104.548V23.6158H99.0365V2.65711L112.108 2.63899ZM104.657 7.31662H111.845C112.362 7.35109 112.845 7.58049 113.199 7.95835C113.552 8.33622 113.749 8.83431 113.749 9.35174C113.749 9.86917 113.552 10.3672 113.199 10.7451C112.845 11.123 112.362 11.3524 111.845 11.3869H104.593L104.657 7.31662Z" fill="white" fill-opacity="0.94"/>
<path d="M89.6542 2.64807L80.2991 11.958V2.64807H74.5973V23.6611H80.2991V18.6118L83.7982 15.1852L90.035 23.6611H96.7974L87.6781 11.3506L96.4983 2.64807H89.6542Z" fill="white" fill-opacity="0.94"/>
<path d="M37.9203 11.541V7.36194H51.6809V2.67525H32.1821V23.6974H37.9203V16.1008H47.3116V11.541H37.9203Z" fill="white" fill-opacity="0.94"/>
<path d="M9.62933 2.62651L0 23.8096H17.5773L27.2066 2.62651H9.62933Z" fill="white" fill-opacity="0.94"/>
</svg>
