<svg width="180" height="33" viewBox="0 0 180 33" fill="none" xmlns="http://www.w3.org/2000/svg">
<g clip-path="url(#clip0_3001_579)">
<path d="M16.7091 1.20236C17.433 1.20236 18.1272 1.33783 18.7665 1.58337L17.9071 0.728221C17.2382 0.0593432 16.1502 0.0593432 15.4814 0.728221L14.6093 1.6003C15.2612 1.3463 15.964 1.20659 16.7048 1.20659L16.7091 1.20236Z" fill="white" fill-opacity="0.94"/>
<path d="M6.63166 0.936442L6.62509 0.931491H6.62085C6.38802 0.753688 6.14671 0.571652 5.79957 0.47005C6.12978 0.27108 6.51078 0.199112 6.87909 0.241446C7.08229 0.359982 7.30666 0.45735 7.61147 0.499684C7.70884 0.563185 7.8062 0.639386 7.89087 0.724054L8.52588 1.35906C8.36501 1.40563 8.17874 1.43527 7.95437 1.43527C7.29398 1.43527 6.97212 1.19286 6.63166 0.936442Z" fill="white" fill-opacity="0.94"/>
<path d="M16.7091 6.02844C17.2171 6.02844 17.6319 6.43485 17.6319 6.94285C17.6319 7.44663 17.2171 7.85727 16.7091 7.85727C16.201 7.85727 15.7862 7.44663 15.7862 6.94285C15.7862 6.43908 16.201 6.02844 16.7091 6.02844Z" fill="white" fill-opacity="0.94"/>
<path fill-rule="evenodd" clip-rule="evenodd" d="M18.9316 6.94285C18.9316 5.7194 17.9367 4.72879 16.7091 4.72879C15.4814 4.72879 14.4865 5.72363 14.4865 6.94285C14.4865 8.16207 15.4856 9.15692 16.7091 9.15692C17.9325 9.15692 18.9316 8.16207 18.9316 6.94285ZM15.5999 6.94285C15.5999 6.33324 16.0952 5.83794 16.7091 5.83794C17.3229 5.83794 17.8182 6.33324 17.8182 6.94285C17.8182 7.55246 17.3229 8.04354 16.7091 8.04354C16.0952 8.04354 15.5999 7.54823 15.5999 6.94285Z" fill="white" fill-opacity="0.94"/>
<path fill-rule="evenodd" clip-rule="evenodd" d="M11.049 3.88217L11.6954 4.52863L11.7094 4.50018L14.2494 1.96014C14.9945 1.59607 15.8497 1.38863 16.7133 1.38863C17.5769 1.38863 18.3982 1.5876 19.1306 1.94321L21.7426 4.55098C22.0939 5.27489 22.2887 6.08771 22.2887 6.94285C22.2887 7.7472 22.1109 8.50921 21.8061 9.19502L18.9866 12.0102C18.9247 12.0382 18.8623 12.065 18.7993 12.0907H19.1052L20.1677 13.1533H17.8386C17.7581 13.2241 17.6724 13.2862 17.5828 13.3395H20.354L21.4124 14.3979H11.9846L13.0429 13.3395H15.8207C15.7317 13.2863 15.6464 13.2242 15.5663 13.1533H13.2292L14.2918 12.0907H14.4961L14.4061 12.0018L14.4138 12.0053L14.4992 12.0907H14.6129C14.5458 12.0635 14.4795 12.035 14.4138 12.0053L11.7031 9.29451L11.6713 9.32628L11.6635 9.31845L11.5733 9.40872L11.6163 9.36443C11.3877 9.25859 11.1083 9.18239 10.7357 9.18239C10.0033 9.18239 9.63503 9.45756 9.27943 9.7285L9.27285 9.73345C8.93239 9.98987 8.61053 10.2323 7.95014 10.2323C7.28975 10.2323 6.96789 9.98987 6.62743 9.73345L6.62085 9.7285C6.26948 9.46179 5.89694 9.18239 5.1688 9.18239C4.44065 9.18239 4.07234 9.45756 3.72097 9.7285L3.71558 9.73255C3.41266 9.95975 3.11671 10.1817 2.59065 10.2238L1.50267 9.13582C1.73127 9.24589 2.01491 9.32209 2.39168 9.32209C3.11983 9.32209 3.48813 9.04269 3.84374 8.77175L3.85662 8.76205C4.19466 8.5074 4.51248 8.26798 5.1688 8.26798C5.82919 8.26798 6.15105 8.51038 6.49151 8.7668L6.49808 8.77175C6.84946 9.04269 7.21776 9.32209 7.95014 9.32209C8.68252 9.32209 9.05082 9.04269 9.4022 8.77175C9.72753 8.52974 10.038 8.29888 10.6158 8.27083L10.4648 8.11976C10.4575 8.11254 10.4504 8.10526 10.4433 8.09794C9.90209 8.16079 9.58847 8.39601 9.28553 8.62324L9.27943 8.62782C8.93652 8.89029 8.61478 9.13582 7.95014 9.13582C7.29514 9.13582 6.97317 8.89325 6.63577 8.63905L6.62085 8.62782C6.26948 8.36111 5.89694 8.08171 5.1688 8.08171C4.44065 8.08171 4.07234 8.36111 3.72097 8.62782C3.37807 8.89029 3.04786 9.13582 2.39168 9.13582C1.7411 9.13582 1.41512 8.89029 1.0754 8.63442L1.06663 8.62782C0.981961 8.56008 0.893059 8.49658 0.804158 8.43308L0.499353 8.12827C-0.0425223 7.59063 -0.139891 6.79052 0.186081 6.14704C0.481128 6.23077 0.689806 6.38585 0.90407 6.54508L0.94386 6.57462L0.955984 6.58371C1.30779 6.84763 1.67181 7.12072 2.39168 7.12072C3.11983 7.12072 3.48813 6.84555 3.84374 6.57462L3.85662 6.56491C4.19466 6.31026 4.51248 6.07084 5.1688 6.07084C5.82919 6.07084 6.15105 6.31325 6.49151 6.56966L6.49808 6.57462C6.84946 6.84132 7.21776 7.12072 7.95014 7.12072C8.68252 7.12072 9.05082 6.84555 9.4022 6.57462C9.63169 6.4039 9.85378 6.23873 10.1675 6.14638C10.21 6.06635 10.2593 5.98903 10.3156 5.91528C9.84772 5.99844 9.55963 6.21719 9.27943 6.43068L9.27285 6.43563C8.93239 6.69205 8.61053 6.93445 7.95014 6.93445C7.28975 6.93445 6.96789 6.69205 6.62743 6.43563L6.62085 6.43068C6.26948 6.15974 5.89694 5.88034 5.1688 5.88034C4.44065 5.88034 4.07234 6.15974 3.72097 6.43068C3.37807 6.68892 3.04786 6.93445 2.39168 6.93445C1.73558 6.93445 1.4096 6.68897 1.06674 6.43076L1.0516 6.41947C0.824595 6.25019 0.599449 6.08228 0.277915 5.97865C0.339245 5.88151 0.409483 5.78817 0.49512 5.70253L0.816858 5.3808C0.859186 5.41043 0.901532 5.44007 0.94386 5.47393C1.29947 5.74487 1.66354 6.02004 2.39168 6.02004C3.11983 6.02004 3.48813 5.74487 3.84374 5.47393L3.85662 5.46423C4.19466 5.20958 4.51248 4.97016 5.1688 4.97016C5.82919 4.97016 6.15105 5.21256 6.49151 5.46898L6.49808 5.47393C6.84946 5.74487 7.21776 6.02004 7.95014 6.02004C8.68252 6.02004 9.05082 5.74487 9.4022 5.47393C9.74934 5.21569 10.0795 4.97016 10.7357 4.97016C10.9086 4.97016 11.0588 4.9872 11.1926 5.01702L11.351 4.85858C11.1782 4.80934 10.9787 4.77965 10.74 4.77965C10.0118 4.77965 9.64349 5.05587 9.28976 5.32119L9.28366 5.32576C8.94076 5.58823 8.61902 5.83377 7.95437 5.83377C7.28973 5.83377 6.96799 5.58823 6.62509 5.32576C6.27371 5.05906 5.90117 4.77965 5.17303 4.77965C4.44488 4.77965 4.07658 5.05906 3.72521 5.32576C3.3823 5.58823 3.05209 5.83377 2.39592 5.83377C1.73974 5.83377 1.41377 5.58823 1.07086 5.32576L0.95656 5.24109L1.47727 4.72039C1.71434 4.83469 2.00221 4.91512 2.39592 4.91512C3.11988 4.91512 3.48812 4.63892 3.84184 4.37361L3.84797 4.36901L3.853 4.36517C4.19399 4.10415 4.51163 3.86101 5.17303 3.86101C5.83767 3.86101 6.15941 4.10654 6.50232 4.36901C6.85369 4.63572 7.222 4.91512 7.95437 4.91512C8.68675 4.91512 9.05506 4.63572 9.40643 4.36901L9.41109 4.36549C9.75646 4.10435 10.0783 3.86101 10.74 3.86101C10.85 3.86101 10.9516 3.86947 11.049 3.88217ZM15.0181 11.3666C13.7802 10.8963 12.7886 9.92502 12.2953 8.7023L12.4423 8.55532C12.9147 9.79079 13.9136 10.7703 15.1648 11.2205L15.0181 11.3666ZM16.0462 10.5282C14.6132 10.2674 13.4723 9.17596 13.1432 7.77545C13.1972 7.68259 13.2416 7.58567 13.2763 7.48615C13.5351 9.11023 14.935 10.3639 16.6323 10.4007C16.4327 10.4084 16.2341 10.4509 16.0462 10.5282ZM16.7091 3.48416C14.9824 3.48416 13.5474 4.74369 13.2786 6.38516C13.2466 6.29199 13.2061 6.20107 13.1572 6.11359C13.1538 6.10732 13.1505 6.10108 13.1471 6.09485C13.5318 4.491 14.9827 3.29366 16.7091 3.29366C18.7284 3.29366 20.3709 4.93199 20.3709 6.94285C20.3709 8.73394 19.0712 10.2261 17.3571 10.5309C17.1695 10.4528 16.9711 10.4095 16.7715 10.401C18.6605 10.3677 20.1847 8.82715 20.1847 6.94285C20.1847 5.03359 18.6268 3.48416 16.7091 3.48416ZM10.0112 7.29109C9.99775 7.22921 9.9878 7.16671 9.98138 7.10391C9.70203 7.2091 9.49348 7.36552 9.28976 7.51833L9.28366 7.5229L9.27709 7.52785C8.93663 7.78426 8.61477 8.02667 7.95437 8.02667C7.29398 8.02667 6.97212 7.78426 6.63166 7.52785L6.62509 7.5229C6.27371 7.25619 5.90117 6.97679 5.17303 6.97679C4.44488 6.97679 4.07658 7.25619 3.72521 7.5229C3.3823 7.78113 3.05209 8.02667 2.39592 8.02667C1.73981 8.02667 1.41384 7.78119 1.07097 7.52298C0.787336 7.30708 0.49512 7.08686 0.0167454 7.00642C0.0167454 7.06992 0.0252122 7.13766 0.033679 7.20116C0.433832 7.27698 0.68311 7.46595 0.94414 7.66384L0.948094 7.66683L0.960218 7.67593C1.31202 7.93985 1.67604 8.21294 2.39592 8.21294C3.11988 8.21294 3.48812 7.93674 3.84184 7.67143L3.84797 7.66683L3.853 7.66299C4.19399 7.40197 4.51163 7.15882 5.17303 7.15882C5.83767 7.15882 6.15941 7.40436 6.50232 7.66683C6.85369 7.93354 7.222 8.21294 7.95437 8.21294C8.68675 8.21294 9.05506 7.93354 9.40643 7.66683C9.59476 7.52443 9.77811 7.38702 10.0112 7.29109ZM21.4674 6.94285C21.4674 8.9718 20.1816 10.7003 18.3821 11.3741L18.2368 11.2294C20.0088 10.6035 21.2811 8.91774 21.2811 6.94285C21.2811 4.43668 19.2322 2.39618 16.7133 2.39618C14.7798 2.39618 13.1232 3.59847 12.4576 5.29079L12.311 5.14421C13.0234 3.42151 14.727 2.20568 16.7091 2.20568C19.3295 2.20568 21.4674 4.32661 21.4674 6.94285ZM16.7133 4.54252C15.384 4.54252 14.3002 5.6178 14.3002 6.94285C14.3002 8.26368 15.3882 9.34319 16.7133 9.34319C18.0468 9.34319 19.1263 8.26368 19.1263 6.94285C19.1263 5.62203 18.0426 4.54252 16.7133 4.54252Z" fill="white" fill-opacity="0.94"/>
<path d="M0.277915 5.97865C0.24934 6.02391 0.222699 6.07 0.197336 6.11652C0.202871 6.10631 0.208413 6.09591 0.214007 6.08541L0.214278 6.0849C0.233335 6.04915 0.252993 6.01226 0.274983 5.97771L0.277915 5.97865Z" fill="white" fill-opacity="0.94"/>
<path d="M11.4746 9.50752L11.5733 9.40872L11.4766 9.50836L11.4746 9.50752Z" fill="white" fill-opacity="0.94"/>
<path fill-rule="evenodd" clip-rule="evenodd" d="M10.6998 10.2831L11.4746 9.50752C11.276 9.42333 11.0395 9.36866 10.7357 9.36866C10.074 9.36866 9.75222 9.612 9.40686 9.87314L9.4022 9.87667C9.05082 10.1434 8.68252 10.4228 7.95014 10.4228C7.21776 10.4228 6.84946 10.1434 6.49808 9.87667C6.15518 9.6142 5.83344 9.36866 5.1688 9.36866C4.5074 9.36866 4.18975 9.6118 3.84876 9.87282L3.84374 9.87667C3.55164 10.0968 3.25106 10.3212 2.75576 10.3974L3.41193 11.0536C3.51777 10.9816 3.61937 10.9096 3.72097 10.8292C4.07234 10.5625 4.44065 10.2831 5.1688 10.2831C5.57845 10.2831 5.8742 10.3705 6.11679 10.4942C6.1084 10.4971 6.10003 10.5001 6.09169 10.5032V10.6944C6.03288 10.6613 5.97124 10.6306 5.90542 10.6032V10.5878L5.88882 10.5964C5.69587 10.5187 5.4668 10.4693 5.1688 10.4693C4.51263 10.4693 4.1908 10.7117 3.85035 10.9681L3.84374 10.9731C3.82324 10.9883 3.80273 11.0036 3.78219 11.019C3.70517 11.0766 3.62761 11.1347 3.5474 11.1848L4.05118 11.6886C4.29162 11.5369 4.5773 11.4111 4.98449 11.3818L4.78317 11.5831C4.54569 11.6277 4.35991 11.7119 4.19511 11.8113L4.37501 11.9912L0.499364 15.8669C-0.0763791 16.4426 -0.15258 17.3232 0.25806 17.9836V17.1538H0.444329V18.2249C0.454913 18.2355 0.46338 18.2471 0.471846 18.2588C0.480313 18.2704 0.48878 18.282 0.499364 18.2926L3.07327 20.8665V17.1538H3.25954V21.0486L3.07327 20.8665L5.46938 23.2626C5.78688 23.5801 6.20176 23.741 6.61663 23.7579V21.4042H6.8029V23.7495C7.20084 23.7198 7.58608 23.5632 7.89088 23.2626L11.6866 19.4637L15.4856 23.2626C16.1545 23.9273 17.2425 23.9273 17.9113 23.2626L22.8813 18.2926C22.909 18.265 22.9312 18.2356 22.9539 18.2055C22.966 18.1895 22.9782 18.1733 22.9914 18.1571C22.9773 18.1727 22.9637 18.1882 22.95 18.2037C22.9228 18.2347 22.8955 18.2658 22.8644 18.2968V18.2926L22.839 18.318H12.8313L12.8567 18.2926C12.8576 18.2917 12.8586 18.2907 12.8595 18.2897L12.8736 18.2757C12.9183 18.2309 12.96 18.1843 12.9987 18.136H23.0084C23.2537 17.8237 23.375 17.4495 23.3723 17.0734C23.3723 17.0536 23.3718 17.0332 23.3708 17.0127C23.3694 16.9807 23.3671 16.9487 23.364 16.9168C23.3665 16.9478 23.3691 16.9804 23.3708 17.0127C23.3716 17.0329 23.3721 17.0532 23.3723 17.0734H13.3656C13.3651 17.0112 13.3611 16.949 13.3537 16.8871H23.3597C23.3174 16.5146 23.165 16.1505 22.8771 15.8626L22.839 15.8245H12.8228L12.6407 15.6425H22.657L21.5986 14.5842H11.7983L11.6904 14.6921L8.99144 11.9932L10.5051 10.478L10.5071 10.4778L10.7019 10.2831L10.6998 10.2831ZM10.6998 10.2831L10.5051 10.478C9.99409 10.5292 9.70237 10.7448 9.4022 10.9731C9.14496 11.1715 8.87866 11.3744 8.46707 11.4688L8.30821 11.31C8.74333 11.2391 9.00458 11.0396 9.27943 10.8292L9.28586 10.8244C9.63492 10.5636 9.99847 10.292 10.6998 10.2831ZM11.0363 15.325V14.055L10.85 13.8687V15.5113L11.0363 15.325ZM10.1304 17.8085V21.0147L10.3166 20.8284V18.1121C10.2428 18.0164 10.1807 17.9145 10.1304 17.8085ZM11.5443 19.3595V19.605L11.667 19.4822L11.5443 19.3595ZM11.6909 19.4594L11.7696 19.3806H21.7764L21.5902 19.5669H11.7983L11.6909 19.4594ZM7.31514 11.2414C7.37236 11.2609 7.4328 11.2779 7.49718 11.2919V11.4824C7.43323 11.4699 7.37271 11.4549 7.31514 11.4377V11.2414ZM7.31514 12.3338C7.37236 12.3533 7.4328 12.3702 7.49718 12.3842V12.5611C7.43323 12.5486 7.3727 12.5334 7.31514 12.5161V12.3338ZM8.06025 12.9162L8.02635 12.9501V17.1411H8.21262V12.9162H8.06025ZM6.8029 13.5811C6.74091 13.5856 6.67872 13.5868 6.61663 13.5846V17.1411H6.8029V13.5811ZM5.39318 13.0094L5.29998 12.9162H5.20691V17.1411H5.39318V13.0094ZM4.6735 12.2897L4.48723 12.1034V12.8908H4.6735V12.2897ZM6.09169 11.5745V11.7743C6.0329 11.7411 5.97125 11.7103 5.90542 11.6828V11.4947C5.97119 11.5187 6.03301 11.5455 6.09169 11.5745ZM8.90267 12.082L8.7164 12.2685V12.8908H8.90267V12.082ZM1.15977 17.1411H0.973505V15.397L1.15977 15.2107V17.1411ZM1.85405 19.6388L1.66778 19.4526V17.1496H1.85405V19.6388ZM2.5695 17.1411H2.38323V13.9915L2.5695 13.8052V17.1411ZM3.98345 21.7682L3.79718 21.582V21.3999H3.98345V21.7682ZM3.98345 17.1411H3.79718V12.9162H3.98345V17.1411ZM4.6735 21.3788H4.48723V17.1538H4.6735V21.3788ZM5.39318 23.1737L5.20691 22.9875V21.3999H5.39318V23.1737ZM6.08745 21.3788H5.90118V17.1538H6.08745V21.3788ZM7.49718 21.3788H7.31514V17.1538H7.49718V21.3788ZM8.21262 22.9282L8.02635 23.1145V21.4042H8.21262V22.9282ZM8.90267 21.3788H8.7164V17.1538H8.90267V21.3788ZM9.62658 21.5227L9.44031 21.709V21.4042H9.62658V21.5227ZM9.62658 17.1411H9.44031V12.9162H9.62658V17.1411ZM17.8862 23.271L17.9024 23.2562C17.9092 23.2501 17.9163 23.2438 17.924 23.2372L18.0383 23.1187H15.3501L15.4687 23.2372C15.4819 23.2505 15.4952 23.2626 15.5079 23.2742C15.5195 23.2848 15.5305 23.2949 15.5406 23.305H17.8478C17.8612 23.2938 17.8733 23.2827 17.8862 23.271ZM14.2875 22.0603H19.0967L19.283 21.8741H14.1013L14.2875 22.0603ZM13.0429 20.8115H20.3455L20.5318 20.6252H12.8567L13.0429 20.8115Z" fill="white" fill-opacity="0.94"/>
<path d="M10.0499 2.88309L10.8458 3.67897H10.74C10.0076 3.67897 9.63927 3.95414 9.28366 4.22508L9.27709 4.23003C8.93663 4.48644 8.61477 4.72885 7.95437 4.72885C7.29398 4.72885 6.97212 4.48644 6.63166 4.23003L6.62509 4.22508C6.27371 3.95837 5.90117 3.67897 5.17303 3.67897C4.44488 3.67897 4.07658 3.95414 3.72521 4.22508C3.38234 4.48329 3.05626 4.72885 2.39592 4.72885C2.06571 4.72885 1.82017 4.66958 1.61697 4.57645L2.37475 3.81867H2.39592C3.12406 3.81867 3.49237 3.5435 3.84797 3.27256L3.86085 3.26286C4.19889 3.00821 4.51671 2.76879 5.17303 2.76879C5.83342 2.76879 6.15528 3.01119 6.49574 3.26761L6.50232 3.27256C6.85369 3.53927 7.222 3.81867 7.95437 3.81867C8.68675 3.81867 9.05506 3.5435 9.40643 3.27256C9.6054 3.12016 9.7959 2.98046 10.0499 2.88309Z" fill="white" fill-opacity="0.94"/>
<path d="M5.17303 1.48183C5.90541 1.48183 6.27371 1.76124 6.62509 2.02794L6.63166 2.03289C6.97212 2.28931 7.29398 2.53172 7.95437 2.53172C8.58092 2.53172 8.90266 2.31158 9.23286 2.06604L8.67405 1.50723C8.47508 1.5792 8.24648 1.62154 7.95437 1.62154C7.222 1.62154 6.85369 1.34213 6.50232 1.07119L6.48743 1.06015C6.2305 0.869445 5.98694 0.688665 5.60484 0.609752C5.58932 0.622448 5.5738 0.634204 5.55828 0.64596C5.52724 0.669478 5.49618 0.69301 5.46513 0.724054L4.65232 1.53687C4.80472 1.503 4.97406 1.48183 5.1688 1.48183H5.17303Z" fill="white" fill-opacity="0.94"/>
<path d="M6.50232 2.17611C6.85369 2.44282 7.222 2.72222 7.95437 2.72222L7.95861 2.71799C8.66135 2.71799 9.02542 2.45975 9.37256 2.20151L9.90597 2.73492C9.66366 2.83936 9.47495 2.98091 9.29102 3.11888L9.28366 3.12439C8.94076 3.38686 8.61902 3.6324 7.95437 3.6324C7.28973 3.6324 6.96799 3.38686 6.62509 3.12439C6.27371 2.85769 5.90117 2.57828 5.17303 2.57828C4.44488 2.57828 4.07658 2.85769 3.72521 3.12439C3.41617 3.36146 3.1156 3.58583 2.56949 3.62393L4.34752 1.84591C4.56342 1.74007 4.81742 1.6681 5.17303 1.6681C5.83767 1.6681 6.15941 1.91364 6.50232 2.17611Z" fill="white" fill-opacity="0.94"/>
<path d="M22.1024 4.91505L22.8814 5.694C23.546 6.36711 23.546 7.45086 22.8814 8.11974L22.149 8.85212C22.3564 8.25521 22.4749 7.61173 22.4749 6.94285C22.4749 6.23164 22.3437 5.54583 22.1024 4.91505Z" fill="white" fill-opacity="0.94"/>
<path fill-rule="evenodd" clip-rule="evenodd" d="M29.8368 28.9778C29.8368 29.5535 30.0315 30.0276 30.4168 30.4002C30.802 30.7727 31.2931 30.9547 31.89 30.9547C32.4361 30.9547 32.851 30.8447 33.1516 30.6161V30.2689C32.8002 30.5018 32.3895 30.6203 31.9408 30.6203C31.4328 30.6203 31.0179 30.4679 30.6877 30.18C30.3617 29.8837 30.2009 29.4985 30.1882 29.0243H33.4479V28.9058C33.4479 28.4951 33.3294 28.0803 33.0754 27.6781C32.8298 27.2675 32.3387 26.9923 31.708 26.9923C31.1534 26.9923 30.7047 27.1828 30.3533 27.5638C30.0104 27.9321 29.8368 28.402 29.8368 28.9778ZM31.6995 27.3225C32.707 27.3225 33.0881 28.1692 33.0881 28.7153H30.1966C30.222 28.3512 30.3702 28.0252 30.6327 27.7501C30.8994 27.4622 31.2592 27.3225 31.6995 27.3225Z" fill="white" fill-opacity="0.94"/>
<path fill-rule="evenodd" clip-rule="evenodd" d="M34.8322 32.0342V30.5272H35.3021C35.7848 29.9345 36.0218 28.9396 36.0218 27.5426L36.0303 27.0812H38.6846V30.5272H39.4085V32.0342H39.0656V30.8574H35.1794V32.0342H34.8322ZM38.3333 30.5314V27.4114H36.369V27.6781C36.369 28.9396 36.1531 29.8837 35.717 30.5314H38.3333Z" fill="white" fill-opacity="0.94"/>
<path d="M41.1781 27.0854V30.8574H41.5083L44.2008 27.6315V30.8574H44.5564V27.0854H44.2346L41.5295 30.3197V27.0854H41.1781Z" fill="white" fill-opacity="0.94"/>
<path d="M46.7789 30.8574V27.0854H47.1387V28.7534H49.7677V27.0854H50.1233V30.8574H49.7677V29.0751H47.1387V30.8574H46.7789Z" fill="white" fill-opacity="0.94"/>
<path fill-rule="evenodd" clip-rule="evenodd" d="M52.0198 29.7186C52.0198 30.1081 52.1638 30.4044 52.4432 30.6245L52.4389 30.6288C52.7353 30.8404 53.0782 30.9547 53.4719 30.9547C54.145 30.9547 54.6784 30.7134 55.0891 30.2351C55.1229 30.6711 55.3981 30.8913 55.741 30.8913C55.8765 30.8913 55.9738 30.8658 56.05 30.8277V30.5314C55.9865 30.5653 55.9103 30.5822 55.8257 30.5822C55.5717 30.5822 55.4108 30.3663 55.4108 30.0446V28.3681C55.4108 27.4537 54.7589 26.9923 53.7767 26.9923C53.2687 26.9923 52.8115 27.1193 52.4305 27.3648V27.7289C52.8411 27.458 53.2687 27.3267 53.7174 27.3267C54.5726 27.3267 55.0637 27.6696 55.0637 28.402V28.9015C54.6065 28.6264 54.1111 28.4867 53.5862 28.4867C53.1332 28.4867 52.7607 28.5967 52.4643 28.8253C52.168 29.0455 52.0198 29.3291 52.0198 29.7186ZM55.0679 29.2445V29.8668C54.7589 30.2774 54.2127 30.6161 53.582 30.6161C52.9173 30.6161 52.3966 30.3155 52.3966 29.7101C52.3966 29.164 52.8835 28.8042 53.6793 28.8042C54.1577 28.8042 54.6107 28.9481 55.0679 29.2445Z" fill="white" fill-opacity="0.94"/>
<path fill-rule="evenodd" clip-rule="evenodd" d="M57.4979 30.8574L58.6875 29.3164C58.0144 29.2529 57.6376 28.838 57.6376 28.203C57.6376 27.568 58.1075 27.0896 58.933 27.0896H60.8423V30.8616H60.4824V29.3672H59.0642L57.9212 30.8616H57.4937L57.4979 30.8574ZM60.4867 27.4114H58.988C58.3657 27.4114 58.0059 27.7077 58.0059 28.2242C58.0059 28.7407 58.3657 29.037 58.988 29.037H60.4867V27.4114Z" fill="white" fill-opacity="0.94"/>
<path d="M65.6937 28.9693C65.6937 29.5239 65.88 29.9895 66.2525 30.3748C66.6251 30.7685 67.0992 30.9547 67.6749 30.9547C68.1618 30.9547 68.5597 30.8404 68.8984 30.6203V30.2689C68.5512 30.5018 68.166 30.6203 67.7257 30.6203C67.2516 30.6203 66.8579 30.4637 66.5361 30.1546C66.2102 29.8414 66.0578 29.4434 66.0578 28.9778C66.0578 28.5121 66.2102 28.1184 66.5361 27.8009C66.8579 27.4834 67.2474 27.3267 67.7257 27.3267C68.1025 27.3267 68.4708 27.4283 68.8264 27.6358V27.2886C68.4835 27.0854 68.1025 26.9923 67.6834 26.9923C67.1077 26.9923 66.6251 27.1828 66.2525 27.5723C65.8842 27.9575 65.6937 28.4147 65.6937 28.9693Z" fill="white" fill-opacity="0.94"/>
<path d="M71.3792 27.0854H74.0378V30.8574H73.6779V27.4114H71.7221L71.7009 28.2073C71.6924 28.5967 71.6628 28.9185 71.6374 29.1852C71.5993 29.4434 71.5485 29.7143 71.4596 29.998C71.2903 30.5653 70.9431 30.8658 70.4097 30.8658C70.3548 30.8658 70.3081 30.8658 70.27 30.8616V30.5272C70.3081 30.5356 70.3589 30.5356 70.4224 30.5356C70.7822 30.5356 71.032 30.2774 71.1506 29.8032C71.2776 29.3249 71.3199 28.91 71.3411 28.2962L71.3792 27.0854Z" fill="white" fill-opacity="0.94"/>
<path d="M75.8031 32.0131V32.3518C75.9301 32.4322 76.1121 32.4703 76.345 32.4703C76.908 32.4703 77.289 32.0681 77.6404 31.2849L79.537 27.0854H79.1517L77.67 30.3663L76.1503 27.0854H75.7438L77.488 30.8023C77.2806 31.2892 77.0901 31.6363 76.9207 31.8311C76.7683 32.0385 76.5567 32.1401 76.2984 32.1401C76.1248 32.1401 75.964 32.102 75.8031 32.0131Z" fill="white" fill-opacity="0.94"/>
<path d="M80.6842 30.8574L82.7882 28.8338L80.8789 27.0854H81.3573L83.1353 28.7491V27.0854H83.4867V28.7364L85.2774 27.0854H85.7431L83.8508 28.8338L85.9505 30.8574H85.451L83.4867 28.9608V30.8574H83.1353V28.9481L81.1753 30.8574H80.6842Z" fill="white" fill-opacity="0.94"/>
<path fill-rule="evenodd" clip-rule="evenodd" d="M87.3518 28.4317C87.3518 29.2106 87.5338 29.8287 87.8979 30.2775H87.9021C88.2662 30.7304 88.7657 30.9506 89.3881 30.9506C89.9045 30.9506 90.3575 30.7685 90.7216 30.4172C91.0772 30.0531 91.2592 29.5832 91.2592 29.0244C91.2592 28.4994 91.0899 28.0719 90.747 27.7374C90.4126 27.4114 89.9934 27.2421 89.4939 27.2421C88.6641 27.2421 88.0207 27.6443 87.7032 28.2539C87.7116 27.5257 87.8725 26.9839 88.1646 26.624C88.4736 26.2727 88.9309 26.0187 89.5235 25.8832L90.857 25.5995V25.2482L89.9934 25.4175C89.1679 25.5995 88.571 25.8366 88.2069 26.1287C87.6397 26.5859 87.3518 27.3522 87.3518 28.4317ZM90.9079 29.0371C90.9079 29.507 90.7512 29.8838 90.4506 30.1801H90.4464C90.1628 30.468 89.8029 30.6204 89.3881 30.6204C88.3847 30.6204 87.7794 29.9049 87.7243 28.7407C87.8513 28.4317 88.0715 28.1565 88.372 27.9237C88.6811 27.6951 89.024 27.5765 89.4177 27.5765C89.8199 27.5765 90.1712 27.7078 90.4549 27.9787C90.7512 28.2497 90.9079 28.601 90.9079 29.0371Z" fill="white" fill-opacity="0.94"/>
<path fill-rule="evenodd" clip-rule="evenodd" d="M93.2955 30.6245C93.0161 30.4044 92.8679 30.1081 92.8679 29.7186C92.8679 29.3291 93.0246 29.0455 93.3082 28.8253C93.6088 28.5967 93.9813 28.4867 94.4385 28.4867C94.9635 28.4867 95.463 28.6264 95.9075 28.9015V28.402C95.9075 27.6696 95.4164 27.3267 94.5698 27.3267C94.1125 27.3267 93.6935 27.458 93.2828 27.7289V27.3648C93.6596 27.1193 94.1083 26.9923 94.629 26.9923C95.6112 26.9923 96.2631 27.4537 96.2631 28.3681V30.0446C96.2631 30.3663 96.424 30.5822 96.678 30.5822C96.7627 30.5822 96.8304 30.5653 96.8939 30.5314V30.8277C96.8262 30.8658 96.7246 30.8913 96.5849 30.8913C96.2504 30.8913 95.9668 30.6711 95.9414 30.2351C95.5265 30.7134 94.9973 30.9547 94.3242 30.9547C93.9221 30.9547 93.5876 30.8404 93.2913 30.6288L93.2955 30.6245ZM95.9117 29.8668V29.2445C95.463 28.9481 95.01 28.8042 94.5317 28.8042C93.7315 28.8042 93.2405 29.164 93.2405 29.7101C93.2405 30.3155 93.7654 30.6161 94.4258 30.6161C95.0862 30.6161 95.6027 30.2774 95.9117 29.8668Z" fill="white" fill-opacity="0.94"/>
<path d="M101.546 27.0854V30.8574H101.906V27.4114H104.467V30.8574H104.827V27.0854H101.546Z" fill="white" fill-opacity="0.94"/>
<path fill-rule="evenodd" clip-rule="evenodd" d="M110.348 27.5765C110.707 27.9617 110.89 28.4232 110.89 28.9693C110.89 29.5112 110.707 29.9811 110.348 30.3663C109.988 30.7515 109.535 30.9505 108.968 30.9505C108.299 30.9505 107.782 30.6965 107.41 30.1843V32.4407H107.05V27.0854H107.41V27.7501C107.782 27.242 108.294 26.988 108.968 26.988C109.535 26.988 109.988 27.187 110.348 27.5723V27.5765ZM107.41 29.6805C107.664 30.2224 108.256 30.6203 108.904 30.6203C109.365 30.6203 109.742 30.4637 110.051 30.1462C110.36 29.8287 110.521 29.435 110.521 28.9693C110.521 28.5036 110.36 28.1057 110.051 27.7966C109.742 27.4791 109.365 27.3225 108.904 27.3225C108.244 27.3225 107.655 27.7077 107.41 28.2538V29.6805Z" fill="white" fill-opacity="0.94"/>
<path fill-rule="evenodd" clip-rule="evenodd" d="M113.095 30.3705C113.468 30.7642 113.95 30.9505 114.547 30.9505C115.131 30.9505 115.61 30.76 115.982 30.3705C116.351 29.9853 116.541 29.5154 116.541 28.9735C116.541 28.4316 116.355 27.9617 115.982 27.5765C115.614 27.1913 115.148 26.9923 114.547 26.9923C113.946 26.9923 113.468 27.1913 113.095 27.5765C112.727 27.9617 112.545 28.4274 112.545 28.9735C112.545 29.5196 112.727 29.9853 113.095 30.3705ZM115.711 30.1546C115.402 30.4637 115.009 30.6203 114.547 30.6203C114.073 30.6203 113.688 30.4637 113.375 30.1546C113.065 29.8414 112.905 29.4434 112.905 28.9778C112.905 28.5121 113.065 28.1184 113.375 27.8009C113.692 27.4834 114.086 27.3267 114.547 27.3267C115.009 27.3267 115.402 27.4834 115.711 27.8009C116.029 28.1141 116.181 28.5121 116.181 28.9778C116.181 29.4434 116.029 29.8414 115.711 30.1546Z" fill="white" fill-opacity="0.94"/>
<path fill-rule="evenodd" clip-rule="evenodd" d="M117.79 32.0342V30.5272H118.26C118.742 29.9345 118.975 28.9396 118.975 27.5426L118.984 27.0812H121.638V30.5272H122.366V32.0342H122.015V30.8574H118.137V32.0342H117.79ZM121.287 30.5314V27.4114H119.322V27.6781C119.322 28.9396 119.098 29.8837 118.662 30.5314H121.287Z" fill="white" fill-opacity="0.94"/>
<path fill-rule="evenodd" clip-rule="evenodd" d="M123.806 29.7186C123.806 30.1081 123.95 30.4044 124.233 30.6245L124.229 30.6288C124.525 30.8404 124.86 30.9547 125.262 30.9547C125.935 30.9547 126.468 30.7134 126.883 30.2351C126.909 30.6711 127.192 30.8913 127.527 30.8913C127.662 30.8913 127.768 30.8658 127.836 30.8277V30.5314C127.772 30.5653 127.705 30.5822 127.62 30.5822C127.366 30.5822 127.205 30.3663 127.205 30.0446V28.3681C127.205 27.4537 126.545 26.9923 125.571 26.9923C125.05 26.9923 124.601 27.1193 124.225 27.3648V27.7289C124.623 27.458 125.05 27.3267 125.507 27.3267C126.354 27.3267 126.845 27.6696 126.845 28.402V28.9015C126.396 28.6264 125.901 28.4867 125.368 28.4867C124.919 28.4867 124.546 28.5967 124.246 28.8253C123.962 29.0455 123.806 29.3291 123.806 29.7186ZM126.849 29.2445V29.8668C126.54 30.2774 126.02 30.6161 125.364 30.6161C124.707 30.6161 124.178 30.3155 124.178 29.7101C124.178 29.164 124.669 28.8042 125.469 28.8042C125.948 28.8042 126.401 28.9481 126.849 29.2445Z" fill="white" fill-opacity="0.94"/>
<path d="M129.085 30.8574L131.189 28.8338L129.288 27.0854H129.758L131.544 28.7491V27.0854H131.896V28.7364L133.678 27.0854H134.156L132.256 28.8338L134.351 30.8574H133.852L131.896 28.9608V30.8574H131.544V28.9481L129.576 30.8574H129.085Z" fill="white" fill-opacity="0.94"/>
<path fill-rule="evenodd" clip-rule="evenodd" d="M142.822 28.9693C142.822 28.4232 142.64 27.9617 142.28 27.5765L142.284 27.5723C141.929 27.187 141.472 26.988 140.904 26.988C140.231 26.988 139.719 27.242 139.346 27.7501V27.0854H138.987V32.4407H139.342V30.1843C139.715 30.6965 140.231 30.9505 140.9 30.9505C141.467 30.9505 141.925 30.7515 142.28 30.3663C142.64 29.9811 142.822 29.5154 142.822 28.9693ZM140.837 30.6203C140.193 30.6203 139.596 30.2224 139.342 29.6805V28.2538C139.588 27.7077 140.176 27.3225 140.837 27.3225C141.298 27.3225 141.679 27.4791 141.988 27.7966C142.297 28.1057 142.458 28.5036 142.458 28.9693C142.458 29.435 142.297 29.8287 141.988 30.1462C141.679 30.4637 141.298 30.6203 140.837 30.6203Z" fill="white" fill-opacity="0.94"/>
<path fill-rule="evenodd" clip-rule="evenodd" d="M144.858 30.6245C144.57 30.4044 144.431 30.1081 144.431 29.7186C144.431 29.3291 144.579 29.0455 144.871 28.8253C145.172 28.5967 145.544 28.4867 145.993 28.4867C146.526 28.4867 147.022 28.6264 147.475 28.9015V28.402C147.475 27.6696 146.984 27.3267 146.128 27.3267C145.68 27.3267 145.252 27.458 144.85 27.7289V27.3648C145.231 27.1193 145.68 26.9923 146.192 26.9923C147.174 26.9923 147.83 27.4537 147.83 28.3681V30.0446C147.83 30.3663 147.987 30.5822 148.237 30.5822C148.326 30.5822 148.397 30.5653 148.461 30.5314V30.8277C148.389 30.8658 148.283 30.8913 148.152 30.8913C147.809 30.8913 147.534 30.6711 147.5 30.2351C147.094 30.7134 146.552 30.9547 145.879 30.9547C145.485 30.9547 145.142 30.8404 144.854 30.6288L144.858 30.6245ZM147.475 29.8668V29.2445C147.022 28.9481 146.56 28.8042 146.09 28.8042C145.294 28.8042 144.803 29.164 144.803 29.7101C144.803 30.3155 145.32 30.6161 145.989 30.6161C146.619 30.6161 147.166 30.2774 147.475 29.8668Z" fill="white" fill-opacity="0.94"/>
<path d="M149.921 28.9693C149.921 29.5239 150.112 29.9895 150.485 30.3748C150.857 30.7685 151.331 30.9547 151.907 30.9547C152.39 30.9547 152.796 30.8404 153.126 30.6203V30.2689C152.783 30.5018 152.398 30.6203 151.954 30.6203C151.479 30.6203 151.086 30.4637 150.764 30.1546C150.446 29.8414 150.286 29.4434 150.286 28.9778C150.286 28.5121 150.451 28.1184 150.764 27.8009C151.086 27.4834 151.479 27.3267 151.954 27.3267C152.335 27.3267 152.699 27.4283 153.058 27.6358V27.2886C152.711 27.0854 152.335 26.9923 151.915 26.9923C151.34 26.9923 150.857 27.1828 150.485 27.5723C150.112 27.9575 149.921 28.4147 149.921 28.9693Z" fill="white" fill-opacity="0.94"/>
<path d="M156.026 30.8574V27.4114H154.587V27.0854H157.821V27.4114H156.382V30.8574H156.026Z" fill="white" fill-opacity="0.94"/>
<path fill-rule="evenodd" clip-rule="evenodd" d="M159.138 28.9778C159.138 29.5535 159.337 30.0276 159.722 30.4002H159.726C160.116 30.7727 160.607 30.9547 161.195 30.9547C161.745 30.9547 162.164 30.8447 162.465 30.6161V30.2689C162.109 30.5018 161.695 30.6203 161.246 30.6203C160.742 30.6203 160.319 30.4679 159.997 30.18C159.671 29.8837 159.506 29.4985 159.497 29.0243H162.749V28.9058C162.749 28.4951 162.63 28.0803 162.376 27.6781C162.131 27.2675 161.64 26.9923 161.009 26.9923C160.454 26.9923 160.005 27.1828 159.658 27.5638C159.315 27.9321 159.138 28.402 159.138 28.9778ZM161.005 27.3225C162.016 27.3225 162.397 28.1692 162.397 28.7153H159.502C159.523 28.3512 159.675 28.0252 159.938 27.7501C160.204 27.4622 160.564 27.3225 161.005 27.3225Z" fill="white" fill-opacity="0.94"/>
<path d="M164.688 30.8574V27.0854H165.043V28.7534H167.676V27.0854H168.032V30.8574H167.676V29.0751H165.043V30.8574H164.688Z" fill="white" fill-opacity="0.94"/>
<path d="M170.25 27.0854V30.8574H170.585L173.281 27.6315V30.8574H173.637V27.0854H173.315L170.61 30.3197V27.0854H170.25Z" fill="white" fill-opacity="0.94"/>
<path d="M176.317 25.3201H176.639C176.639 25.7985 176.998 26.1456 177.544 26.1456C178.091 26.1456 178.429 25.7985 178.429 25.3201H178.751C178.751 25.6461 178.632 25.9128 178.404 26.1287C178.175 26.3404 177.879 26.4462 177.544 26.4462C176.808 26.4462 176.317 25.989 176.317 25.3201Z" fill="white" fill-opacity="0.94"/>
<path d="M175.86 30.8574V27.0854H176.215V30.3198L178.92 27.0854H179.242V30.8574H178.886V27.6315L176.19 30.8574H175.86Z" fill="white" fill-opacity="0.94"/>
<path d="M29.8326 6.44338H31.1661V18.771H33.867V6.44762H37.0124C37.2961 6.44762 37.4654 6.61272 37.4654 6.90059V7.78537H39.9081V5.56284C39.9081 4.59339 39.5059 4.16158 38.5153 4.16158H29.8326V6.44338Z" fill="white" fill-opacity="0.94"/>
<path fill-rule="evenodd" clip-rule="evenodd" d="M45.3438 12.1838H45.6697V12.0399C45.6697 10.6005 45.0771 10.046 43.7393 10.046C43.2652 10.046 42.338 10.1687 42.338 10.7445V11.299H39.8911V10.1857C39.8911 8.25523 42.6683 8.02663 43.6758 8.02663C47.2573 8.02663 48.2817 9.81312 48.2817 12.2008V16.1082C48.2817 16.4003 48.4511 16.5612 48.7389 16.5612H49.5602V18.7625H47.1938C46.2243 18.7625 45.8729 18.2291 45.8729 17.611V17.1581H45.8348C45.8348 17.1581 44.9501 19.0123 42.5793 19.0123C40.7082 19.0123 39.1037 17.8396 39.1037 15.8838C39.1037 12.3659 43.6292 12.1838 45.3395 12.1796L45.3438 12.1838ZM43.2906 17.0184C44.7299 17.0184 45.6951 15.5409 45.6951 14.2624V13.9703H45.221C43.8621 13.9703 41.6988 14.1778 41.6988 15.6171C41.6988 16.3199 42.2364 17.0184 43.2863 17.0184H43.2906Z" fill="white" fill-opacity="0.94"/>
<path fill-rule="evenodd" clip-rule="evenodd" d="M51.0462 10.4989C51.3298 10.4989 51.4949 10.6429 51.4949 10.9519H51.4907V22.8859H54.1027V18.5466C54.1027 18.0048 54.0646 17.6365 54.0646 17.6365H54.1027C54.1027 17.6365 55.0298 19.0165 57.1126 19.0165C59.8686 19.0165 61.9048 16.7771 61.9048 13.5258C61.9048 10.2746 60.0972 8.03086 57.2566 8.03086C54.8054 8.03086 53.9206 9.69459 53.9206 9.69459H53.8825V9.28395C53.8825 8.70821 53.5312 8.2764 52.5617 8.2764H50.2206V10.4989H51.0462ZM59.2674 13.5639C59.2674 15.6425 58.0778 16.8152 56.6385 16.8152V16.8194C54.907 16.8194 54.0265 15.2107 54.0265 13.5893C54.0265 11.2609 55.2965 10.2746 56.6808 10.2746C58.1964 10.2746 59.2674 11.4853 59.2674 13.5639Z" fill="white" fill-opacity="0.94"/>
<path fill-rule="evenodd" clip-rule="evenodd" d="M63.7549 16.6289H63.9115C65.3127 15.0033 65.4228 12.5564 65.4228 10.8673V10.4947H64.2036V8.2722H71.6501C72.6238 8.2722 73.026 8.704 73.026 9.67345V16.6247H73.3012C74.2452 16.6247 74.5966 17.0565 74.5966 18.0006V21.2349H72.2217V19.2198C72.2217 18.9319 72.0819 18.7668 71.8152 18.7668H65.2365C64.9614 18.7668 64.8217 18.9319 64.8217 19.2198V21.2349H62.4594V18.0006C62.4594 17.0565 62.832 16.6247 63.7549 16.6247V16.6289ZM70.4182 10.9519C70.4182 10.6429 70.2616 10.499 69.9695 10.499H67.8867V10.8503C67.8867 12.2304 67.8528 14.944 66.4769 16.6332H70.4182V10.9519Z" fill="white" fill-opacity="0.94"/>
<path fill-rule="evenodd" clip-rule="evenodd" d="M85.3536 13.0093C85.3536 10.2322 83.7153 8.03086 80.7054 8.03086C77.5557 8.03086 75.3586 10.2957 75.3586 13.5258C75.3586 16.5061 77.5388 19.0165 81.0144 19.0165C82.513 19.0165 84.1641 18.462 85.2309 17.5137L84.2064 15.6425C83.3597 16.3241 82.2633 16.794 81.1964 16.794C79.6174 16.794 78.2161 15.8076 78.0299 13.9153H85.2732C85.2784 13.8709 85.284 13.8255 85.2896 13.7794C85.3203 13.5267 85.3536 13.2528 85.3536 13.0093ZM80.6419 10.0036C81.8145 10.0036 82.7247 10.8672 82.7416 12.3278H78.1103C78.3558 10.9307 79.3126 10.0036 80.6419 10.0036Z" fill="white" fill-opacity="0.94"/>
<path d="M87.682 10.9519C87.682 10.6429 87.5169 10.499 87.2206 10.499H86.3993V8.27643H88.8885C89.8749 8.27643 90.294 8.70824 90.294 9.67769V12.3701H94.7602V8.27643H97.3723V16.1125C97.3723 16.4046 97.5289 16.5654 97.821 16.5654H98.6423V18.7668H96.153C95.1667 18.7668 94.7602 18.3562 94.7602 17.3698V14.5122H90.294V18.771H87.682V10.9519Z" fill="white" fill-opacity="0.94"/>
<path d="M105.598 16.4808H104.959V18.7668H107.287C108.248 18.7668 108.599 18.3562 108.663 17.3698L109.158 10.8673C109.239 9.90207 109.175 8.58548 109.175 8.58548H109.222C109.222 8.58548 109.67 10.046 110.026 10.8673L112.452 16.2564H114.632L117.058 10.8673C117.43 10.0418 117.862 8.60242 117.862 8.60242H117.904C117.904 8.60242 117.841 9.90207 117.921 10.8673L118.417 17.3698C118.476 18.3562 118.831 18.7668 119.792 18.7668H122.121V16.4808H121.486C121.198 16.4808 121.054 16.3199 121.029 16.032L120.084 4.16158H117.286L114.285 11.1128C113.933 11.9553 113.561 13.0687 113.561 13.0687H113.514C113.514 13.0687 113.142 11.9553 112.799 11.1128L109.789 4.16158H106.991L106.047 16.032C106.021 16.3199 105.881 16.4808 105.598 16.4808Z" fill="white" fill-opacity="0.94"/>
<path fill-rule="evenodd" clip-rule="evenodd" d="M129.313 12.1838H129.639V12.0399C129.639 10.6005 129.051 10.046 127.709 10.046C127.239 10.046 126.316 10.1687 126.316 10.7445V11.299H123.865V10.1857C123.865 8.25523 126.646 8.02663 127.65 8.02663C131.231 8.02663 132.256 9.81312 132.256 12.2008V16.1082C132.256 16.4003 132.421 16.5612 132.713 16.5612H133.534V18.7625H131.168C130.198 18.7625 129.851 18.2291 129.851 17.611V17.1581H129.809C129.809 17.1581 128.928 19.0123 126.562 19.0123C124.682 19.0123 123.082 17.8396 123.082 15.8838C123.082 12.3659 127.607 12.1838 129.318 12.1796L129.313 12.1838ZM127.26 17.0184C128.699 17.0184 129.669 15.5409 129.669 14.2624V13.9703H129.195C127.836 13.9703 125.673 14.1778 125.673 15.6171C125.673 16.3199 126.21 17.0184 127.26 17.0184Z" fill="white" fill-opacity="0.94"/>
<path fill-rule="evenodd" clip-rule="evenodd" d="M135.016 10.4989C135.304 10.4989 135.464 10.6429 135.464 10.9519V22.8859H138.076V18.5466C138.076 18.0048 138.043 17.6365 138.043 17.6365H138.076C138.076 17.6365 139.004 19.0165 141.086 19.0165C143.838 19.0165 145.874 16.7771 145.874 13.5258C145.874 10.2746 144.067 8.03086 141.226 8.03086C138.779 8.03086 137.89 9.69459 137.89 9.69459H137.856V9.28395C137.856 8.70821 137.505 8.2764 136.535 8.2764H134.194V10.4989H135.016ZM143.245 13.5639C143.245 15.6425 142.047 16.8152 140.608 16.8152V16.8194C138.881 16.8194 137.996 15.2107 137.996 13.5893C137.996 11.2609 139.274 10.2746 140.655 10.2746C142.17 10.2746 143.245 11.4853 143.245 13.5639Z" fill="white" fill-opacity="0.94"/>
<path d="M148.199 10.9519C148.199 10.6429 148.033 10.499 147.741 10.499H146.92V8.27643H149.409C150.396 8.27643 150.811 8.70824 150.811 9.67769V12.2262H151.509C151.877 12.2262 152.292 12.1627 152.517 11.7944L154.739 8.27643H157.618L154.883 12.4717C154.477 13.1279 154.104 13.293 154.104 13.293V13.3353C154.104 13.3353 154.574 13.5005 154.968 14.1566L156.157 16.1717C156.344 16.4808 156.547 16.5654 157.021 16.5654H157.677V18.7668H155.742C154.862 18.7668 154.511 18.6229 154.1 17.8651L152.432 14.817C152.229 14.4657 151.894 14.4276 151.522 14.4276H150.806V18.7668H148.194V10.9519H148.199Z" fill="white" fill-opacity="0.94"/>
<path fill-rule="evenodd" clip-rule="evenodd" d="M168.396 13.0093C168.396 10.2322 166.754 8.03086 163.748 8.03086H163.744C160.602 8.03086 158.397 10.2957 158.397 13.5258C158.397 16.5061 160.577 19.0165 164.053 19.0165C165.555 19.0165 167.198 18.462 168.269 17.5137L167.245 15.6425C166.398 16.3241 165.31 16.794 164.239 16.794C162.66 16.794 161.259 15.8076 161.072 13.9153H168.316C168.358 13.6274 168.396 13.2972 168.396 13.0093ZM163.684 10.0036C164.857 10.0036 165.767 10.8672 165.784 12.3278H161.157C161.402 10.9307 162.351 10.0036 163.684 10.0036Z" fill="white" fill-opacity="0.94"/>
<path d="M173.396 10.4947H171.978C171.69 10.4947 171.529 10.6598 171.529 10.9477V11.5446H169.387V9.65228C169.387 8.66167 169.818 8.2722 170.788 8.2722H178.603C179.589 8.2722 180 8.66167 180 9.65228V11.5446H177.862V10.9477C177.862 10.6556 177.693 10.4947 177.409 10.4947H176.008V18.7668H173.396V10.4947Z" fill="white" fill-opacity="0.94"/>
<path d="M6.04935 10.5201C6.03242 10.5243 6.00702 10.537 6.00702 10.537C6.01709 10.5345 6.02567 10.5305 6.03364 10.5268C6.03906 10.5242 6.04421 10.5218 6.04935 10.5201Z" fill="white" fill-opacity="0.94"/>
</g>
<defs>
<clipPath id="clip0_3001_579">
<rect width="180" height="32.2458" fill="white" transform="translate(0 0.224609)"/>
</clipPath>
</defs>
</svg>
