<svg width="120" height="57" viewBox="0 0 120 57" fill="none" xmlns="http://www.w3.org/2000/svg">
<path fill-rule="evenodd" clip-rule="evenodd" d="M67.2968 17.6711L50.5887 17.523L36.5594 26.3811L41.0158 26.4107L67.2968 17.6711ZM50.2678 17.0514L50.3793 1.10082L36.4411 20.1453L36.4365 26.0348L50.2678 17.0514ZM67.7316 0.581364L67.6223 17.0195L50.8482 16.9078L50.9574 0.469727L67.7316 0.581364ZM7.08069 1.86405L21.5128 1.95519L13.3829 8.45525L7.08069 1.86405ZM22.1023 17.2838L22.1956 2.88246L14.1317 9.39847L22.1023 17.2838ZM6.83488 17.8738L21.638 17.9741L13.3215 10.5354L6.83488 17.8738ZM6.29774 3.02372L6.20443 17.3043L12.5841 9.39392L6.29774 3.02372ZM22.8056 17.8351L22.8488 2.85512L35.31 20.1225L35.2826 25.7933L22.8056 17.8351ZM6.97827 18.3979L21.8519 18.5414L35.2804 26.3241L30.3847 26.356L6.97827 18.3979ZM71.7214 47.4351V40.3677H78.7429V47.4351H76.8538V42.0286H73.5855V47.4351H71.7214ZM63.5119 47.4351V40.3677H70.5334V47.4351H68.6443V42.0286H65.3759V47.4351H63.5119ZM55.712 43.7032L54.59 40.3677H56.5246L57.4964 43.2681C57.5601 43.4458 57.6876 43.5232 57.8537 43.5232H59.6404L60.701 40.3677H62.6288L60.7397 45.9269C60.4347 46.7972 59.604 47.4351 58.6595 47.4351H56.5792V45.8517H58.5843C58.7892 45.8517 58.9667 45.7218 59.0441 45.5054L59.1329 45.1978H57.7809C56.6566 45.1978 56.0557 44.7262 55.712 43.7032ZM51.3353 42.081H49.1139V44.2136H51.3353C51.9976 44.2136 52.471 43.8695 52.471 43.1792C52.471 42.5025 51.9999 42.081 51.3353 42.081ZM47.2362 47.4351V40.3677H51.4104C53.1083 40.3677 54.3601 41.5046 54.3601 43.1792C54.3601 44.8538 53.1083 45.9269 51.4104 45.9269H49.1139V47.4351H47.2362ZM39.6799 47.4351V40.3677H46.2689V42.0674H41.5576V47.4351H39.6799ZM112.621 32.4209V30.7327H120V32.4209H117.255V37.8001H115.366V32.4209H112.621ZM104.428 37.8001V30.7327H106.303V33.3141H109.763V30.7327H111.652V37.8001H109.763V35.0023H106.303V37.8001H104.428ZM96.6391 37.8001V30.7327H103.137V32.4323H98.5168V33.3642H102.666V35.0638H98.5168V36.0617H103.303V37.8001H96.6391ZM86.1581 37.8001V30.7327H88.557L90.7534 35.4488H90.8034L93.1773 30.7327H95.4374V37.8001H93.5619V33.3528L91.5067 37.8001H90L87.9835 33.3528V37.8001H86.1581ZM76.4305 37.8001L79.494 30.7327H82.2275L85.2272 37.8001H83.2357L82.7896 36.7657H78.8817L78.447 37.8001H76.4305ZM80.9893 32.4073H80.6957L79.5736 35.1299H82.0613L80.9893 32.4073ZM72.9345 32.3685H70.5971L69.9848 36.1118H72.9345V32.3685ZM68.0298 36.1118L69.0517 30.7327H74.8077V36.1118H75.6111V39.0896H73.9769L73.8381 37.8001H68.9356L68.8082 39.0896H67.1626V36.1118H68.0298ZM58.8779 37.8001V30.7327H60.7556V33.3141H64.2152V30.7327H66.1043V37.8001H64.2152V35.0023H60.7556V37.8001H58.8779ZM51.0781 34.0682L49.956 30.7327H51.8974L52.867 33.6353C52.9308 33.813 53.0582 33.8905 53.2244 33.8905H55.0133L56.0716 30.7327H57.9994L56.1103 36.2918C55.8053 37.1621 54.9746 37.8001 54.0301 37.8001H51.9498V36.2144H53.9527C54.1575 36.2144 54.3351 36.0868 54.4124 35.8681L54.5012 35.5628H53.147C52.0226 35.5628 51.424 35.0911 51.0781 34.0682ZM46.7378 33.1865H45.5383V35.3076H46.7378C47.4274 35.3076 47.8871 34.9636 47.8871 34.2596C47.8871 33.5442 47.4661 33.1865 46.7378 33.1865ZM43.6629 35.3076V33.1865H42.4498C41.7214 33.1865 41.3004 33.5442 41.3004 34.2596C41.3004 34.9636 41.7601 35.3076 42.4498 35.3076H43.6629ZM42.386 31.4618H43.6629V30.7327H45.5406V31.4618H46.8038C48.5017 31.4618 49.7785 32.585 49.7785 34.2732C49.7785 35.9592 48.5017 37.0323 46.8038 37.0323H45.5406V37.8001H43.6629V37.0323H42.386C40.6881 37.0323 39.425 35.9592 39.425 34.2732C39.425 32.585 40.6881 31.4618 42.386 31.4618ZM19.3415 37.7112L0.489341 37.5449L30.1434 27.6843L35.1711 27.7185L19.3415 37.7112ZM19.5805 56.2408L19.7056 38.2444L35.3122 28.1081L35.3054 34.754L19.5805 56.2408ZM0.122904 38.2785L0 56.8264L18.9272 56.9517L19.0501 38.4038L0.122904 38.2785Z" fill="white" fill-opacity="0.83"/>
</svg>
