<svg width="150" height="49" viewBox="0 0 150 49" fill="none" xmlns="http://www.w3.org/2000/svg">
<path d="M9.75374 20.4414H9.75504C10.3019 20.4407 10.8489 20.4399 11.3962 20.4428C11.815 20.4605 12.2831 20.5351 12.583 20.8564C12.9537 21.2396 12.8942 21.867 12.6526 22.3021C12.3653 22.7738 11.7606 22.8573 11.257 22.8738C10.6783 22.8777 10.0997 22.8767 9.52076 22.8757H9.52039C9.17286 22.8751 8.82503 22.8746 8.47721 22.875C8.47721 22.6724 8.47713 22.4697 8.47706 22.267C8.47682 21.6585 8.47658 21.0496 8.47848 20.4415C8.90374 20.4426 9.32875 20.442 9.75374 20.4414Z" fill="white" fill-opacity="0.83"/>
<path d="M9.48698 25.9439H9.48642C9.15033 25.9443 8.81434 25.9447 8.47848 25.9447C8.47721 26.9553 8.47595 27.9672 8.47848 28.979C8.91547 28.9764 9.35267 28.9775 9.78991 28.9786C10.4072 28.9801 11.0247 28.9816 11.6416 28.9727C12.2692 28.9538 13.0157 28.759 13.2713 28.1164C13.4712 27.5523 13.4471 26.8314 13.0094 26.3824C12.607 26.0105 12.0288 25.9587 11.5062 25.9447C10.833 25.9422 10.1598 25.9431 9.48698 25.9439Z" fill="white" fill-opacity="0.83"/>
<path fill-rule="evenodd" clip-rule="evenodd" d="M0 0.931641H47.5736V48.4889H0V0.931641ZM3.41603 20.5918C3.4158 24.6949 3.41556 28.7985 3.41746 32.9013C6.5806 32.9 9.745 32.9 12.9081 32.9013C14.2531 32.8798 15.6158 32.4776 16.6862 31.6491C17.5909 30.9737 18.1716 29.9479 18.4158 28.8576C18.4073 29.6088 18.4083 30.3603 18.4093 31.1118C18.4101 31.7067 18.4109 32.3016 18.4069 32.8962C19.323 32.902 20.239 32.9012 21.1551 32.9003C21.8421 32.8997 22.5292 32.8991 23.2162 32.9013C23.22 31.3965 23.2189 29.8919 23.2178 28.3875C23.2164 26.3816 23.2149 24.376 23.225 22.3704C23.8154 24.5053 24.3927 26.6441 24.9699 28.7828C25.3403 30.1551 25.7107 31.5275 26.0845 32.8987C26.8437 32.901 27.6028 32.9006 28.362 32.9001C28.8681 32.8998 29.3742 32.8995 29.8803 32.9C30.337 31.2388 30.7863 29.5757 31.2356 27.9125L31.2361 27.9105C31.7339 26.0677 32.2318 24.2247 32.7398 22.3843V22.3893C32.7385 25.8937 32.7372 29.3969 32.7398 32.9C33.2735 32.9 33.8073 32.9001 34.3411 32.9003H34.3414C35.4094 32.9006 36.4777 32.9008 37.5465 32.9C37.547 30.5556 37.5469 28.2113 37.5467 25.8672C37.5465 22.7416 37.5463 19.6161 37.5477 16.4902C36.1045 16.4879 34.6617 16.4884 33.2191 16.4888H33.2188C32.2573 16.4891 31.2959 16.4894 30.3345 16.4889C29.9714 17.9904 29.6061 19.4913 29.2408 20.9923C28.8219 22.7131 28.4031 24.434 27.9875 26.156C27.8851 25.7365 27.7827 25.317 27.6803 24.8975L27.6802 24.8971L27.6801 24.8967C26.9965 22.0965 26.313 19.2964 25.6429 16.4927C24.1509 16.4873 22.6583 16.4881 21.1656 16.4889C20.247 16.4894 19.3281 16.4899 18.4095 16.4889C18.4118 17.7713 18.4104 19.0536 18.409 20.336C18.4065 22.5509 18.404 24.7657 18.4209 26.9806C18.2842 26.4557 18.14 25.9195 17.83 25.4654C17.3378 24.6812 16.5407 24.131 15.6753 23.8274C16.1396 23.5479 16.604 23.238 16.9456 22.8093C18.0489 21.38 17.8325 19.14 16.5926 17.8587C15.531 16.8026 13.9672 16.5155 12.5248 16.4902C10.7036 16.4879 8.88197 16.4884 7.06016 16.4888H7.05989C5.84537 16.4891 4.63078 16.4894 3.41619 16.4889C3.41619 17.8564 3.41611 19.2239 3.41603 20.5914V20.5918ZM39.0648 16.4902C39.0648 17.8559 39.0647 19.2216 39.0646 20.5872V20.6078C39.0644 24.7052 39.0642 28.8022 39.0661 32.9H39.0801C40.7722 32.9 42.4642 32.9 44.1562 32.9013C44.1581 28.8033 44.1578 24.7046 44.1576 20.6062V20.5861C44.1575 19.2203 44.1574 17.8545 44.1574 16.4889C43.7332 16.4889 43.309 16.4889 42.8849 16.4888H42.8847C41.6114 16.4885 40.3384 16.4883 39.0648 16.4902Z" fill="white" fill-opacity="0.83"/>
<path d="M138.287 17.0973C140.75 16.9835 143.224 16.9683 145.679 17.2251L145.693 17.227C146.843 17.3922 148.126 17.5764 148.969 18.4583C149.688 19.3069 149.683 20.4501 149.679 21.5208C149.678 21.7012 149.677 21.8796 149.68 22.0542C149.273 22.0536 148.866 22.0538 148.46 22.0539C147.918 22.0541 147.377 22.0543 146.835 22.0529C146.833 21.9575 146.832 21.8607 146.83 21.7632C146.825 21.2778 146.82 20.7758 146.574 20.3492C146.219 19.8319 145.555 19.6991 144.979 19.5966C143.658 19.4114 142.326 19.4207 140.994 19.43H140.994C140.516 19.4333 140.038 19.4366 139.562 19.4309C139.394 19.439 139.225 19.4454 139.056 19.4518C138.164 19.4856 137.262 19.5197 136.411 19.8015C135.919 19.9546 135.539 20.3947 135.503 20.9146L135.497 20.9943C135.455 21.5996 135.407 22.2778 135.79 22.7878C136.16 23.197 136.75 23.2414 137.268 23.2805L137.275 23.281C138.014 23.2888 138.752 23.3015 139.49 23.3142C140.568 23.3328 141.645 23.3514 142.723 23.3544C143.249 23.3815 143.778 23.3839 144.306 23.3863C145.433 23.3915 146.56 23.3966 147.664 23.6403C148.475 23.8097 149.27 24.2878 149.605 25.0758C150.023 26.0438 150.009 27.1137 149.995 28.1528C149.994 28.2719 149.992 28.3905 149.991 28.5086C149.953 29.5002 149.666 30.5816 148.816 31.1874C147.75 31.9489 146.4 32.1006 145.134 32.2423C144.29 32.3305 143.443 32.3488 142.596 32.367H142.595C142.216 32.3752 141.836 32.3834 141.457 32.3979C141.084 32.3867 140.71 32.3794 140.336 32.3721L140.335 32.372C138.668 32.3393 136.993 32.3064 135.362 31.9387C134.465 31.7225 133.487 31.3342 133.053 30.4589C132.645 29.623 132.654 28.688 132.662 27.7715C132.665 27.5398 132.667 27.3093 132.662 27.0818H135.509C135.511 27.1973 135.509 27.314 135.508 27.4313V27.432C135.504 27.9505 135.499 28.4797 135.724 28.955C135.952 29.4002 136.443 29.6077 136.904 29.7202C137.789 29.9184 138.696 29.9415 139.601 29.9645C139.88 29.9716 140.159 29.9787 140.437 29.9909C140.688 29.9898 140.939 29.9897 141.191 29.9896C142.608 29.9889 144.029 29.9883 145.436 29.8025C146.126 29.7038 146.987 29.4723 147.187 28.7021C147.323 28.0532 147.333 27.3538 147.157 26.7112C146.968 26.0637 146.223 25.884 145.632 25.8575C143.944 25.8132 142.257 25.7955 140.569 25.7778C139.995 25.7531 139.42 25.7498 138.845 25.7465C137.774 25.7403 136.703 25.7342 135.641 25.5893C134.742 25.4527 133.745 25.1239 133.274 24.2828C132.727 23.3137 132.743 22.173 132.758 21.0876L132.758 21.0834L132.758 21.0796C132.759 21.0296 132.76 20.9797 132.76 20.9299C132.761 20.8825 132.762 20.8352 132.762 20.7881C132.795 19.7901 133.106 18.691 133.988 18.1168C135.183 17.3542 136.635 17.2342 138.019 17.1197L138.287 17.0973Z" fill="white" fill-opacity="0.83"/>
<path fill-rule="evenodd" clip-rule="evenodd" d="M54.406 17.3427C55.9105 17.3422 57.415 17.3425 58.9195 17.3427H58.9234C61.555 17.343 64.1866 17.3434 66.8182 17.3402C67.8468 17.3339 68.9438 17.5489 69.7472 18.2331C70.514 18.8883 70.8303 19.9343 70.7936 20.9184C70.7875 21.103 70.7904 21.2911 70.7933 21.4801V21.4804C70.8032 22.1137 70.8132 22.758 70.4849 23.319C70.2824 23.6769 69.9724 23.9577 69.6296 24.1765C70.247 24.4333 70.7949 24.8886 71.053 25.5173C71.3583 26.1963 71.3439 26.9322 71.3297 27.6633C71.3242 27.944 71.3187 28.2239 71.3313 28.4997C71.3731 29.2219 71.1947 29.9656 70.7493 30.5462C69.894 31.6681 68.4035 32.0475 67.0535 32.0766C64.644 32.0781 62.2344 32.0779 59.8249 32.0776C58.0186 32.0775 56.2123 32.0773 54.406 32.0779V17.3427ZM57.0629 22.4471C57.063 22.7377 57.063 23.0283 57.063 23.319C57.8539 23.319 58.6449 23.3191 59.436 23.3191C61.8072 23.3194 64.179 23.3196 66.5499 23.3177C67.0155 23.3089 67.5394 23.2127 67.8607 22.8447C68.1257 22.5174 68.1146 22.1038 68.1039 21.7002V21.7C68.1002 21.564 68.0966 21.4291 68.1037 21.2991C68.0993 21.2071 68.1019 21.112 68.1046 21.0161C68.1127 20.7191 68.121 20.415 67.924 20.1759C67.5647 19.7459 66.9548 19.67 66.4285 19.6801C64.2434 19.6836 62.0583 19.6828 59.8732 19.682C58.9369 19.6817 58.0006 19.6814 57.0643 19.6814C57.0624 20.5909 57.0626 21.4996 57.0629 22.4088L57.0629 22.4471ZM57.063 25.6589C57.063 25.9988 57.063 26.3387 57.0629 26.6786C57.0626 27.6985 57.0624 28.7185 57.0643 29.7392C58.6863 29.738 60.3083 29.738 61.9304 29.738H61.9372C63.561 29.738 65.185 29.738 66.8093 29.7367C67.3647 29.7127 68.0163 29.6684 68.3972 29.2067C68.6618 28.8652 68.6515 28.4378 68.6414 28.0209C68.6381 27.8835 68.6348 27.7473 68.6414 27.6156C68.64 27.5347 68.6409 27.4513 68.6418 27.3667C68.6466 26.9194 68.6518 26.4374 68.3187 26.1067C67.9365 25.7313 67.3742 25.6996 66.8608 25.6706C66.8015 25.6673 66.7429 25.664 66.6853 25.6602C64.28 25.6583 61.8747 25.6585 59.4694 25.6588C58.6673 25.6588 57.8652 25.6589 57.063 25.6589Z" fill="white" fill-opacity="0.83"/>
<path fill-rule="evenodd" clip-rule="evenodd" d="M80.0403 17.3424H80.029C77.7195 17.3421 75.41 17.3419 73.1001 17.3427V32.0779H75.7888C75.7895 31.16 75.7891 30.2422 75.7888 29.3243C75.7885 28.4082 75.7882 27.492 75.7888 26.5759C76.5599 26.5759 77.331 26.576 78.1021 26.5761H78.1023C80.4133 26.5763 82.724 26.5765 85.034 26.5746C85.5477 26.5936 86.1323 26.6265 86.5207 27.0072C86.9092 27.4044 86.9598 27.9912 86.9838 28.5174C86.9879 29.1602 86.9872 29.8033 86.9865 30.4464C86.9859 30.9903 86.9853 31.5342 86.9876 32.0779C87.201 32.0779 87.4145 32.078 87.6281 32.078C88.2679 32.0783 88.9082 32.0785 89.5485 32.0766C89.5456 31.5317 89.5471 30.9866 89.5486 30.4414C89.5511 29.5555 89.5535 28.6694 89.5371 27.7838C89.5194 26.8554 89.0107 25.9675 88.1871 25.5261C89.2271 25.1479 89.7522 23.9969 89.7092 22.9446C89.7007 22.655 89.7041 22.3615 89.7075 22.0668C89.7189 21.078 89.7305 20.0763 89.2967 19.1691C88.9779 18.4583 88.3111 17.9688 87.5899 17.7184C86.4656 17.3253 85.2705 17.333 84.0917 17.3407C83.8975 17.342 83.7037 17.3432 83.5107 17.3427C82.3538 17.3427 81.197 17.3426 80.0403 17.3424ZM75.7887 23.0992C75.7884 21.9604 75.7882 20.8215 75.7901 19.6826C77.2664 19.6833 78.743 19.6829 80.2198 19.6826H80.2204C81.6975 19.6823 83.1747 19.682 84.6519 19.6826C85.2542 19.7041 85.8805 19.7459 86.436 20.0064C86.8219 20.1898 87.0167 20.6173 87.0256 21.0297C87.0559 21.7 87.0863 22.3792 86.9965 23.0471C86.9345 23.515 86.5587 23.8856 86.1171 24.0184C85.4463 24.236 84.7336 24.2358 84.033 24.2356C83.9434 24.2356 83.854 24.2356 83.765 24.236C81.996 24.2351 80.227 24.2354 78.4577 24.2357H78.4483C77.5619 24.2358 76.6754 24.236 75.7888 24.236L75.7887 23.0992Z" fill="white" fill-opacity="0.83"/>
<path fill-rule="evenodd" clip-rule="evenodd" d="M99.234 17.344C100.178 17.3414 101.123 17.3427 102.067 17.344L102.08 17.3668C104.992 22.2705 107.904 27.1742 110.82 32.0766C110.307 32.0785 109.794 32.0782 109.282 32.0779C108.769 32.0776 108.257 32.0772 107.744 32.0791C107.447 31.5841 107.155 31.0858 106.863 30.5874C106.579 30.1028 106.294 29.6179 106.006 29.1359C103.327 29.1378 100.648 29.1376 97.9688 29.1373C97.0755 29.1372 96.1821 29.1372 95.2889 29.1372C95.1354 29.3982 94.9822 29.6595 94.8291 29.9208C94.4057 30.6433 93.9822 31.3658 93.5492 32.0829C92.9499 32.0763 92.3511 32.077 91.7524 32.0777C91.3299 32.0782 90.9072 32.0787 90.4848 32.0766C92.3918 28.8578 94.3032 25.6418 96.2147 22.4256C97.2213 20.7319 98.228 19.0382 99.234 17.344ZM96.6681 26.7985C99.3239 26.796 101.978 26.796 104.633 26.7998C104.098 25.8934 103.562 24.9877 103.026 24.0819L103.023 24.078C102.232 22.7415 101.441 21.4048 100.654 20.0659C99.7418 21.5937 98.8371 23.1262 97.9322 24.659L97.9309 24.6611L97.9279 24.6661L97.9278 24.6664C97.5082 25.3772 97.0885 26.088 96.6681 26.7985Z" fill="white" fill-opacity="0.83"/>
<path fill-rule="evenodd" clip-rule="evenodd" d="M115.349 25.6198L115.343 25.6295C114.067 27.7789 112.791 29.9282 111.512 32.0753C112.538 32.0804 113.566 32.0791 114.593 32.0753C114.886 31.5725 115.182 31.0707 115.477 30.5686L115.478 30.5667L115.479 30.5654C115.759 30.0898 116.039 29.6141 116.318 29.1372C118.696 29.1363 121.075 29.1366 123.455 29.1369H123.466C124.658 29.137 125.85 29.1372 127.042 29.1372C127.275 29.5309 127.506 29.9256 127.738 30.3204L127.741 30.326C128.084 30.9109 128.427 31.496 128.775 32.0779C129.285 32.0772 129.795 32.0776 130.306 32.0779H130.317C130.827 32.0782 131.337 32.0785 131.847 32.0779C128.933 27.1628 126.016 22.2502 123.09 17.3414C122.15 17.3427 121.212 17.344 120.273 17.3402C118.627 20.0971 116.988 22.8586 115.349 25.6198ZM119.406 23.9115C120.164 22.6298 120.923 21.348 121.678 20.0646C123.011 22.3059 124.337 24.5509 125.661 26.7972H117.699C118.267 25.8349 118.836 24.8732 119.406 23.9115Z" fill="white" fill-opacity="0.83"/>
</svg>
