<svg width="120" height="38" viewBox="0 0 120 38" fill="none" xmlns="http://www.w3.org/2000/svg">
<path fill-rule="evenodd" clip-rule="evenodd" d="M14.5669 0.376953H14.0822C13.8851 0.394065 13.6879 0.410633 13.4908 0.427201C13.3922 0.435485 13.2937 0.443768 13.1951 0.45212C12.0528 0.574953 10.9386 0.955064 9.96442 1.56251C8.48773 2.4859 7.30491 3.88168 6.6865 5.50967C6.57956 5.78057 6.49777 6.0595 6.41594 6.33855C6.38277 6.4517 6.34959 6.56486 6.31472 6.67751C5.70368 6.70012 5.09202 6.69523 4.48098 6.68056C4.47294 5.74788 4.47471 4.81506 4.47648 3.88217V3.88154C4.47849 2.82077 4.4805 1.75987 4.4681 0.699009C4.14423 0.699274 3.82039 0.699685 3.49657 0.700095C2.33105 0.701571 1.16569 0.703047 0 0.697786V16.6924C0.43865 16.6924 0.877301 16.6929 1.31595 16.6935C2.36871 16.6947 3.42147 16.696 4.47423 16.69C4.47795 15.7515 4.47714 14.8131 4.47633 13.8747C4.4754 12.7983 4.47447 11.7219 4.48037 10.6455L4.63574 10.644C5.19251 10.6388 5.74937 10.6336 6.30613 10.6503C6.4362 11.2211 6.60123 11.7858 6.84356 12.3199C7.64233 14.1465 9.16626 15.645 11.0086 16.4192C12.3933 16.9998 13.9337 17.1232 15.4166 16.9613C17.3571 16.7358 19.1896 15.7537 20.4669 14.2846C21.7791 12.763 22.4847 10.7512 22.4558 8.74918C22.4945 6.69523 21.7712 4.62845 20.4282 3.06462C19.316 1.77151 17.7436 0.909231 16.0785 0.559064C15.7115 0.477828 15.3375 0.445587 14.9636 0.413357C14.8313 0.401946 14.6989 0.390536 14.5669 0.376953ZM12.2264 5.0984C12.6644 4.73968 13.2074 4.52029 13.7675 4.44023C14.6693 4.31251 15.6368 4.53373 16.3485 5.11368C17.1773 5.78406 17.6963 6.78934 17.8558 7.83373C18.0025 8.84023 17.9147 9.90051 17.4975 10.8373C17.1896 11.5163 16.708 12.1311 16.0712 12.532C15.2104 13.0648 14.1055 13.1388 13.1552 12.8161C12.1454 12.4598 11.4074 11.5725 11.0215 10.6008C10.635 9.57845 10.5883 8.44056 10.835 7.38029C11.0411 6.50029 11.5209 5.67345 12.2264 5.0984Z" fill="white" fill-opacity="0.83"/>
<path d="M113.341 0.376953H112.856C112.715 0.390877 112.573 0.402111 112.431 0.413344C112.063 0.442537 111.695 0.471718 111.334 0.548064C109.398 0.926953 107.568 1.96768 106.368 3.54373C105.783 4.3009 105.342 5.16379 105.044 6.06945C104.628 7.34118 104.552 8.70762 104.728 10.0288C105.001 12.0797 106.093 14.0127 107.723 15.2966C108.582 15.964 109.574 16.4614 110.626 16.7437C111.639 17.0236 112.701 17.0633 113.746 16.998C115.034 16.913 116.302 16.5384 117.425 15.9035C118.459 15.3168 119.28 14.4288 120 13.4993V13.415C119.278 12.919 118.566 12.407 117.855 11.8952L117.855 11.8951C117.515 11.6509 117.176 11.4067 116.836 11.1643C116.819 11.1564 116.801 11.145 116.783 11.1332C116.726 11.096 116.663 11.0556 116.609 11.1142C116.5 11.2044 116.407 11.3104 116.314 11.4165L116.314 11.4168C116.254 11.4852 116.194 11.5536 116.13 11.6177C115.566 12.1934 114.893 12.7128 114.088 12.8901C113.023 13.1388 111.82 13.0178 110.927 12.3492C110.009 11.6727 109.42 10.599 109.277 9.47701C109.17 8.50412 109.237 7.48173 109.681 6.59379C110.126 5.6814 110.902 4.88512 111.891 4.58018C113.047 4.21168 114.36 4.44329 115.35 5.13201C115.813 5.44151 116.189 5.85586 116.56 6.26556L116.568 6.27418C116.741 6.15562 116.911 6.02973 117.077 5.89834C117.461 5.59301 117.85 5.29384 118.24 4.99465C118.777 4.58183 119.314 4.16898 119.839 3.7399C119.004 2.56351 117.855 1.59795 116.519 1.03573C115.518 0.594509 114.425 0.436842 113.341 0.376953Z" fill="white" fill-opacity="0.83"/>
<path fill-rule="evenodd" clip-rule="evenodd" d="M49.3871 0.682498C49.4061 0.586387 49.4998 0.582653 49.5828 0.579349C49.599 0.578704 49.6147 0.578074 49.6295 0.576776C50.3126 0.579526 50.9957 0.579068 51.6789 0.578609C52.362 0.578151 53.0451 0.577693 53.7283 0.580443C54.8155 3.11608 55.8912 5.65669 56.967 8.19732C57.6612 9.83696 58.3554 11.4766 59.0528 13.1149C59.2496 13.5861 59.4502 14.0558 59.6509 14.5256L59.6512 14.5264L59.6516 14.5273L59.6521 14.5286L59.6523 14.5289C59.9589 15.2468 60.2655 15.9648 60.5589 16.6881C59.3169 16.6967 58.0753 16.6949 56.8335 16.6931C56.4786 16.6926 56.1237 16.692 55.7687 16.6918C55.5466 16.1815 55.3363 15.6663 55.126 15.151L55.1251 15.1488C54.9511 14.7226 54.777 14.2963 54.5964 13.8727C53.5092 13.8601 52.4217 13.862 51.3344 13.8638C50.5828 13.8651 49.8312 13.8664 49.0798 13.8629C49.0134 13.8654 48.9461 13.8634 48.8787 13.8615C48.727 13.8571 48.5746 13.8527 48.4301 13.8984C48.2279 14.3714 48.0383 14.8501 47.8486 15.3291L47.8484 15.3295L47.8483 15.3298C47.668 15.7851 47.4876 16.2404 47.2964 16.6912L47.0826 16.6916H47.0816C45.5839 16.6945 44.0855 16.6975 42.5878 16.6887C44.8492 11.3595 47.1138 6.03142 49.3783 0.703383L49.3871 0.682498ZM50.5171 8.48259L50.5163 8.48446L50.5162 8.48477L50.5161 8.48499C50.2645 9.11577 50.0128 9.7465 49.7632 10.3778C50.9436 10.3753 52.1233 10.3753 53.3037 10.3778C53.0732 9.78819 52.8407 9.19948 52.6081 8.61079L52.6073 8.6087L52.6071 8.60819L52.6069 8.60776L52.6064 8.60632C52.2552 7.71741 51.9041 6.82856 51.5602 5.93683C51.4426 6.14112 51.3585 6.36034 51.2745 6.57961C51.2336 6.68633 51.1927 6.79307 51.1479 6.89811C50.939 7.42498 50.729 7.95147 50.5189 8.47793L50.5182 8.47988L50.5171 8.48259Z" fill="white" fill-opacity="0.83"/>
<path d="M26.4621 0.700637C25.6966 0.701011 24.9312 0.701386 24.1657 0.699004C24.1529 0.835893 24.1486 0.972782 24.1461 1.11028C24.1517 3.38473 24.1503 5.65929 24.1489 7.93387C24.1471 10.8528 24.1453 13.7718 24.1584 16.6906C25.614 16.6967 27.0696 16.6942 28.5253 16.6918H28.5259C28.5305 15.4217 28.5291 14.1516 28.5276 12.8814C28.5256 11.1349 28.5237 9.38848 28.5375 7.64245C29.3084 8.79442 30.069 9.95352 30.8296 11.1126L30.8303 11.1137L30.8309 11.1147L30.8324 11.117C31.2906 11.8153 31.7488 12.5136 32.2093 13.2103C32.2488 13.2677 32.2861 13.3269 32.3235 13.3862C32.4057 13.5166 32.4881 13.6473 32.594 13.7603C32.6013 13.7616 32.6107 13.7633 32.6211 13.7651L32.643 13.7691C32.6614 13.7725 32.6798 13.7759 32.6921 13.778C32.7919 13.6713 32.87 13.5479 32.9478 13.4249C32.9751 13.3816 33.0025 13.3383 33.0308 13.2958C33.3295 12.8412 33.6271 12.386 33.9247 11.9308L33.9251 11.9302L33.9272 11.927C34.306 11.3476 34.6848 10.7682 35.0657 10.1902C35.27 9.88276 35.4709 9.57287 35.6717 9.26296L35.6719 9.26264L35.6722 9.2623C36.025 8.71791 36.3779 8.17348 36.7492 7.64245C36.7747 8.35055 36.7709 9.05936 36.7671 9.76815V9.76831C36.7648 10.2027 36.7625 10.6372 36.767 11.0714C36.7663 11.7471 36.7667 12.4229 36.767 13.0987V13.0989C36.7677 14.2945 36.7684 15.4902 36.7633 16.6857C37.8065 16.6977 38.85 16.6955 39.8934 16.6934H39.8938C40.3376 16.6925 40.7815 16.6916 41.2252 16.6918C41.2251 15.1074 41.226 13.5229 41.2269 11.9384L41.2269 11.9174C41.229 8.17729 41.2312 4.43708 41.2191 0.69717C40.2484 0.702467 39.2777 0.701674 38.3069 0.700881C37.7096 0.700394 37.1122 0.699906 36.5148 0.700837C35.9906 1.51913 35.4815 2.34705 34.9722 3.17513L34.9716 3.17603L34.9715 3.17623C34.6592 3.68416 34.3467 4.19223 34.0308 4.69811C33.8555 4.97397 33.6848 5.25289 33.5142 5.5318L33.5141 5.53195L33.514 5.53216C33.247 5.96862 32.98 6.40506 32.6952 6.82967C32.5597 6.65741 32.4475 6.46966 32.3353 6.28211C32.2915 6.20885 32.2477 6.13561 32.2025 6.06334C31.7635 5.35698 31.3265 4.64938 30.8896 3.94179C30.2218 2.86059 29.5541 1.7794 28.8792 0.70267C28.0735 0.69985 27.2678 0.700244 26.4621 0.700637Z" fill="white" fill-opacity="0.83"/>
<path d="M58.4836 0.699636C63.1836 0.70208 67.8829 0.70208 72.5829 0.699636C72.6071 1.15267 72.6035 1.60641 72.5999 2.06028V2.06046C72.5977 2.33444 72.5956 2.60859 72.5995 2.88252C72.5972 3.09859 72.5985 3.31475 72.5997 3.53092V3.53122C72.6018 3.88967 72.6039 4.24819 72.5897 4.60647C71.3856 4.62212 70.1812 4.6187 68.9767 4.61527L68.9762 4.61527C68.5821 4.61415 68.1881 4.61303 67.794 4.61258C67.7639 5.12667 67.7683 5.64194 67.7728 6.15722C67.7755 6.4713 67.7782 6.78538 67.7731 7.09919C67.7741 8.31652 67.7736 9.53386 67.7731 10.7512C67.7723 12.7294 67.7715 14.7075 67.7768 16.6857C66.7337 16.6977 65.6902 16.6956 64.6469 16.6934H64.6464C64.2025 16.6925 63.7586 16.6916 63.3149 16.6918C63.31 15.0209 63.3116 13.3498 63.3132 11.6788C63.3155 9.32275 63.3178 6.96674 63.302 4.61136C62.5042 4.61833 61.7063 4.61737 60.9085 4.6164C60.2376 4.61559 59.5667 4.61478 58.8958 4.61869C58.7578 4.61625 58.6198 4.61197 58.483 4.59975C58.486 3.2993 58.4854 1.99947 58.4836 0.699636Z" fill="white" fill-opacity="0.83"/>
<path d="M87.4122 0.698384C83.1067 0.703273 78.8012 0.70144 74.4957 0.699606C74.4958 2.03183 74.4962 3.36405 74.4967 4.69627C74.4979 8.69294 74.4992 12.6896 74.4932 16.6863C74.9976 16.6973 75.502 16.6956 76.0066 16.6938H76.0069C76.3154 16.6928 76.6239 16.6918 76.9325 16.6936C78.2589 16.6929 79.5852 16.6933 80.9115 16.6936C83.1217 16.6942 85.3319 16.6948 87.5423 16.6906C87.5424 16.367 87.543 16.0434 87.5435 15.7198V15.7196C87.545 14.7836 87.5465 13.8473 87.5392 12.9114C86.2533 12.9027 84.9674 12.9048 83.6816 12.907H83.6812C82.0918 12.9096 80.5025 12.9122 78.9134 12.8943C78.9214 12.0663 78.9214 11.2382 78.9128 10.4102C80.3651 10.3946 81.8177 10.3968 83.2703 10.3991C84.3876 10.4008 85.5049 10.4025 86.622 10.3961C86.6214 10.0146 86.6225 9.63317 86.6235 9.2517C86.6256 8.458 86.6277 7.66431 86.6153 6.87061C85.3873 6.87413 84.1592 6.87364 82.9313 6.87316H82.9309C82.2401 6.87288 81.5494 6.87261 80.8588 6.87305C80.6178 6.86851 80.3766 6.87106 80.1354 6.87361C79.7278 6.87791 79.3203 6.88222 78.9141 6.85227C78.9214 6.06516 78.919 5.27805 78.9153 4.49094C79.7297 4.49094 80.5442 4.4922 81.3587 4.49346C83.3788 4.49659 85.3991 4.49972 87.419 4.48361C87.4188 4.10834 87.4198 3.73308 87.4208 3.35783C87.4232 2.47119 87.4256 1.58463 87.4122 0.698384Z" fill="white" fill-opacity="0.83"/>
<path d="M90.7014 0.700608C91.8148 0.701868 92.9282 0.703129 94.0413 0.69717C94.0533 1.746 94.0512 2.79497 94.0491 3.84387C94.0469 4.93646 94.0447 6.02898 94.0584 7.12117C94.5238 6.61283 94.9688 6.08559 95.4138 5.5583C95.6797 5.24315 95.9457 4.92798 96.2161 4.61684C96.6298 4.13012 97.0443 3.64406 97.4588 3.15799L97.4605 3.15598L97.4616 3.15477L97.4622 3.15406L97.463 3.15311C98.1093 2.39519 98.7557 1.63726 99.3989 0.876837C99.4738 0.787004 99.5615 0.685559 99.6934 0.701448C101.412 0.700226 103.131 0.700226 104.849 0.701448C104.685 0.931974 104.494 1.1414 104.304 1.35054L104.304 1.35073L104.304 1.35084C104.214 1.44982 104.124 1.54883 104.037 1.64989C103.075 2.74181 102.111 3.83197 101.148 4.92208C100.503 5.6513 99.8589 6.38049 99.2149 7.11017C99.0725 7.26539 98.9345 7.42428 98.8038 7.58928C99.5361 8.68413 100.286 9.76737 101.036 10.8505L101.037 10.8511L101.037 10.8515L101.037 10.852C101.528 11.5597 102.018 12.2673 102.503 12.9781C102.808 13.4179 103.111 13.8589 103.414 14.2998L103.415 14.3009L103.416 14.3019L103.418 14.3057L103.419 14.307L103.42 14.3091L103.421 14.3104L103.422 14.3115L103.423 14.3121C103.765 14.8098 104.107 15.3074 104.452 15.8032C104.524 15.9122 104.599 16.0193 104.674 16.1264C104.802 16.3093 104.93 16.4923 105.044 16.6851C104.079 16.6968 103.114 16.6953 102.149 16.6937C101.411 16.6925 100.673 16.6913 99.9357 16.6961C99.9071 16.6918 99.8757 16.6916 99.8439 16.6914C99.7654 16.6909 99.6844 16.6903 99.6351 16.6294C99.1379 15.8986 98.6414 15.1671 98.1448 14.4355C97.326 13.2291 96.507 12.0226 95.6848 10.819C95.3883 11.0978 95.1175 11.4018 94.8466 11.7059L94.8462 11.7063L94.846 11.7065C94.6676 11.9068 94.489 12.1073 94.3032 12.3003C94.2802 12.3274 94.2545 12.3539 94.2284 12.3807C94.1352 12.4768 94.0383 12.5766 94.0498 12.7189C94.0478 13.3347 94.0485 13.9507 94.0492 14.5668C94.0499 15.275 94.0507 15.9833 94.0474 16.6912C93.6508 16.6913 93.2542 16.6922 92.8575 16.6931H92.8573C91.7667 16.6954 90.676 16.6978 89.586 16.6857C89.5908 12.9354 89.5898 9.18475 89.5887 5.43405C89.5883 3.85592 89.5879 2.27777 89.5879 0.699615C89.959 0.699768 90.3303 0.700188 90.7014 0.700608Z" fill="white" fill-opacity="0.83"/>
<path fill-rule="evenodd" clip-rule="evenodd" d="M73.5614 20.5357C71.4773 20.2106 69.2289 20.5455 67.4663 21.7469C65.9516 22.7907 64.7706 24.3307 64.2141 26.084C63.7117 27.704 63.6902 29.4658 64.1215 31.1048C64.6197 32.9645 65.8203 34.6175 67.3994 35.7181C68.3031 36.3353 69.3436 36.7485 70.4246 36.9245C70.6651 36.9623 70.9049 37.0021 71.1454 37.0436H72.9043C73.0365 37.0205 73.1692 36.9991 73.3019 36.9777L73.3027 36.9776C73.7474 36.906 74.1924 36.8344 74.6221 36.6947C76.5884 36.1147 78.2246 34.6725 79.2313 32.915C80.2816 31.0804 80.5184 28.8541 80.092 26.8032C79.6908 24.8825 78.5424 23.1476 76.9853 21.959C75.9865 21.2097 74.7976 20.7178 73.5614 20.5357ZM68.5632 23.1463C69.3914 22.5756 70.3761 22.2505 71.3761 22.1606C72.7006 22.0347 74.0828 22.281 75.2289 22.9722C76.8589 23.9585 78.0086 25.6922 78.2792 27.5732C78.4798 28.9568 78.3424 30.4094 77.7601 31.6909C77.008 33.325 75.5602 34.6817 73.7908 35.1351C72.4154 35.4761 70.9197 35.4236 69.6049 34.8748C67.7399 34.0816 66.343 32.3234 65.9154 30.3581C65.5945 28.8071 65.7129 27.1369 66.3939 25.6935C66.8835 24.6796 67.6344 23.788 68.5632 23.1463Z" fill="white" fill-opacity="0.83"/>
<path d="M0 20.7099C1.55706 20.7019 3.11412 20.7031 4.67119 20.7043C5.62946 20.705 6.58774 20.7058 7.54601 20.7044C8.20291 20.7072 8.85989 20.7056 9.51689 20.704H9.51735C10.5764 20.7015 11.6356 20.6989 12.6945 20.7147C12.7006 21.2678 12.7 21.8202 12.6951 22.3733C11.7739 22.3789 10.8527 22.378 9.93145 22.3771C9.05511 22.3762 8.17878 22.3753 7.30245 22.38C7.29537 24.5955 7.29692 26.8113 7.29847 29.0271C7.30027 31.6123 7.30208 34.1976 7.29018 36.7827C6.89283 36.7811 6.49547 36.7813 6.09812 36.7815C5.87094 36.7816 5.64375 36.7817 5.41656 36.7815C5.41477 35.023 5.41601 33.2644 5.41726 31.5058C5.41942 28.4639 5.42158 25.422 5.40798 22.3806C4.40018 22.3752 3.39219 22.376 2.38422 22.3768H2.38309C1.58868 22.3775 0.794281 22.3782 0 22.3757V20.7099Z" fill="white" fill-opacity="0.83"/>
<path d="M21.8419 20.7042C19.7307 20.702 17.6195 20.6998 15.5087 20.7141C15.4943 21.0772 15.4964 21.4405 15.4985 21.8038C15.4997 22.0153 15.5009 22.2267 15.4989 22.4381V33.9269C15.503 34.288 15.5007 34.6493 15.4983 35.0106V35.0108C15.4945 35.6017 15.4907 36.1926 15.5154 36.7827C19.4406 36.7802 23.3651 36.779 27.2896 36.7827C27.3062 36.2204 27.3001 35.6576 27.2939 35.0954C25.5866 35.0881 23.8795 35.0892 22.1723 35.0902C20.5657 35.0912 18.959 35.0921 17.3522 35.0862C17.3381 33.2339 17.3375 31.3811 17.3522 29.5288C18.8003 29.5224 20.2485 29.5236 21.6968 29.5247C23.174 29.5259 24.6512 29.527 26.1283 29.5202C26.135 28.9574 26.1406 28.3946 26.124 27.8317C25.2471 27.8315 24.3701 27.8327 23.4931 27.8338H23.4921C21.4459 27.8365 19.3995 27.8391 17.3535 27.825C17.3363 26.01 17.3381 24.1944 17.3522 22.3794C18.9633 22.3755 20.5743 22.3762 22.1853 22.3768C23.8482 22.3775 25.5112 22.3782 27.1743 22.3739C27.1774 21.8208 27.178 21.2672 27.1731 20.7141C26.8732 20.7 26.5732 20.702 26.2733 20.7039C26.1046 20.705 25.9357 20.7061 25.767 20.7043C24.4586 20.7069 23.1502 20.7055 21.8419 20.7042Z" fill="white" fill-opacity="0.83"/>
<path fill-rule="evenodd" clip-rule="evenodd" d="M33.3932 20.7042C34.0208 20.7056 34.6485 20.7069 35.2761 20.7044C35.4742 20.7063 35.6729 20.7053 35.8717 20.7042H35.8719C36.5989 20.7004 37.3282 20.6966 38.0436 20.84C39.1982 21.0423 40.3215 21.5544 41.1424 22.4014C41.7596 23.0272 42.1688 23.8442 42.3264 24.7053C42.5418 25.8432 42.4553 27.063 41.9608 28.1196C41.5234 29.0564 40.7197 29.7775 39.8166 30.2603C38.824 30.806 37.6915 31.0578 36.5657 31.1116C35.7939 31.1181 35.0221 31.117 34.2503 31.1159C33.5664 31.115 32.8825 31.114 32.1988 31.1183C32.186 32.3549 32.1881 33.5918 32.1903 34.8286V34.8292C32.1914 35.4802 32.1925 36.1312 32.1915 36.7821C31.5816 36.7809 30.9718 36.7802 30.362 36.7827C30.3373 36.1802 30.3411 35.5767 30.3449 34.9732C30.3473 34.604 30.3496 34.2348 30.3454 33.8659V22.8047C30.3477 22.5435 30.3464 22.2822 30.3451 22.0209V22.0207C30.3429 21.5851 30.3407 21.1495 30.3553 20.7141C31.3677 20.6998 32.3804 20.702 33.3932 20.7042ZM32.2111 22.3953C32.1836 22.6567 32.1864 22.9192 32.1892 23.1817C32.1905 23.3003 32.1918 23.419 32.1902 23.5375V28.5492C32.19 28.582 32.1897 28.6148 32.1894 28.6475L32.189 28.6857C32.1865 28.9397 32.184 29.1941 32.2111 29.4475C32.9807 29.4415 33.7505 29.4422 34.5203 29.4429C34.998 29.4434 35.4758 29.4438 35.9534 29.4426L35.9722 29.4421C36.5182 29.427 37.0694 29.4118 37.6025 29.2801C38.4884 29.0839 39.3387 28.625 39.9013 27.9032C40.6203 26.9805 40.7209 25.6843 40.3448 24.602C40.0461 23.7483 39.308 23.1115 38.4767 22.7901C37.503 22.3868 36.4311 22.3931 35.394 22.3993L35.3375 22.3996C34.9503 22.3987 34.5632 22.3991 34.1762 22.3996H34.1742C33.5199 22.4003 32.8656 22.4011 32.2111 22.3953Z" fill="white" fill-opacity="0.83"/>
<path d="M46.0295 20.7036C45.733 20.7022 45.4366 20.7008 45.1404 20.7141C45.1256 21.1326 45.1279 21.5512 45.1303 21.9697C45.1317 22.2277 45.1332 22.4856 45.1306 22.7436V33.1325C45.1348 33.5949 45.1325 34.0575 45.1302 34.5202C45.1265 35.2744 45.1228 36.0287 45.1471 36.7821C45.2818 36.7819 45.4164 36.7816 45.5511 36.7813C46.009 36.7803 46.4669 36.7793 46.9244 36.7845C46.9363 34.6575 46.9343 32.5306 46.9323 30.4036C46.9303 28.2302 46.9283 26.0568 46.941 23.8834C47.2329 24.2624 47.4996 24.6594 47.7663 25.0564C47.9426 25.3187 48.1188 25.5811 48.3024 25.8383C48.9577 26.7985 49.6147 27.7578 50.2716 28.717C51.0839 29.9031 51.8962 31.0891 52.7054 32.277C52.7087 32.2814 52.712 32.2859 52.7153 32.2905C52.7523 32.3413 52.793 32.3972 52.8662 32.3815C52.9698 32.288 53.0458 32.1712 53.1216 32.0547C53.1499 32.0112 53.1782 31.9678 53.2079 31.9256C53.7371 31.1508 54.2659 30.3758 54.7948 29.6008C55.7546 28.1943 56.7144 26.7879 57.676 25.3824C57.8037 25.2016 57.9265 25.0172 58.0493 24.8329C58.2623 24.5133 58.4753 24.1937 58.7134 23.8925C58.7343 24.1541 58.7325 24.4168 58.7307 24.679L58.7306 24.6992C58.7298 26.4895 58.7299 28.2798 58.7301 30.07C58.7303 32.3073 58.7304 34.5446 58.7287 36.7821C59.3514 36.7809 59.9735 36.7802 60.5962 36.7821C60.5944 31.4281 60.5938 26.0748 60.5968 20.7209C59.9711 20.6885 59.3435 20.7007 58.7171 20.7141C57.6549 22.2715 56.6078 23.8394 55.5606 25.4073C54.6662 26.7464 53.7718 28.0855 52.868 29.4182C52.7398 29.2646 52.6306 29.0973 52.5215 28.9302C52.4865 28.8765 52.4515 28.8229 52.4159 28.7698C51.8342 27.9014 51.2522 27.0332 50.6702 26.1649C49.4751 24.3819 48.2798 22.5986 47.087 20.8137C47.0269 20.6988 46.9013 20.7005 46.7843 20.7021C46.7508 20.7026 46.718 20.703 46.6876 20.7007C46.4682 20.7056 46.2489 20.7046 46.0295 20.7036Z" fill="white" fill-opacity="0.83"/>
</svg>
