<svg width="150" height="31" viewBox="0 0 150 31" fill="none" xmlns="http://www.w3.org/2000/svg">
<path fill-rule="evenodd" clip-rule="evenodd" d="M24.8956 0.874023V19.849H27.9147V30.3749H18.3188V26.2001H5.54741C2.54344 26.2001 0 24.9901 0 19.9453V0.874023H10.4838V19.849H14.4118V0.874023H24.8956ZM110.768 11.7973C110.876 14.8194 108.306 15.7705 107.493 16.0324H107.496V16.1347C108.351 16.3785 111.219 17.3297 111.219 20.6076C111.219 24.5537 106.939 26.5403 101.928 26.5403C97.1898 26.5403 94.4297 24.8637 93.7464 24.4152L95.739 19.9363C96.4855 20.746 97.9092 21.9079 100.097 21.7604C101.314 21.6791 102.054 21.0651 102.015 20.0778C101.97 18.8979 100.937 18.5487 99.2998 18.5818C98.2948 18.6023 97.8144 18.7475 97.4402 18.8606L97.4065 18.8708V13.796C97.8129 13.9766 98.4119 14.1842 99.7423 14.1511C101.181 14.115 101.819 13.4679 101.798 12.6672C101.777 11.8545 101.244 11.4391 100.302 11.3428C98.1831 11.1261 96.2868 12.0261 95.2002 12.8358L93.4635 8.60372C94.6133 7.80306 98.0296 6.63217 101.657 6.63217C106.668 6.63217 110.632 8.14319 110.768 11.7973ZM38.5339 11.713C37.1373 11.713 36.457 12.8568 36.457 14.1873H40.8727C40.8727 12.893 39.8553 11.713 38.5339 11.713ZM38.4166 6.63519C45.189 6.63519 50.3542 11.0027 49.8876 18.1303V18.1273H36.457C36.457 19.6685 36.7069 21.3841 38.6423 21.3841C39.6145 21.3841 40.4122 20.7069 40.5898 19.825H49.4963C48.2773 24.4122 43.3228 26.3807 38.9553 26.5282C32.5862 26.7419 27.7281 23.151 27.7281 16.7066C27.7281 10.1599 32.3785 6.63519 38.4166 6.63519ZM81.2607 14.1873C81.2607 12.8568 81.941 11.713 83.3376 11.713C84.659 11.713 85.6764 12.893 85.6764 14.1873H81.2607ZM94.6883 18.1303C95.1548 11.0027 89.9897 6.63519 83.2172 6.63519C77.1792 6.63519 72.5287 10.1599 72.5287 16.7066C72.5287 23.151 77.3838 26.7419 83.756 26.5282C88.1235 26.3807 93.0779 24.4122 94.297 19.825H85.3904C85.2128 20.7069 84.4152 21.3841 83.443 21.3841C81.5075 21.3841 81.2577 19.6685 81.2577 18.1273H94.6883V18.1303ZM150 7.04149H134.58V13.2993H137.752V26.2031H146.824V13.2993H150V7.04149ZM123.919 18.8919H123.934L124.403 18.0732L124.536 18.0942L124.403 19.0966V26.2001H133.484V7.01144H125.697L121.739 14.5725H121.724L121.258 15.3882L121.125 15.3702L121.258 14.3679V7.01144H112.177V26.2001H119.96L123.919 18.8919ZM58.8335 9.63911L58.8245 7.01139H50.6222V30.1793H59.6853V24.0329C60.3866 25.3422 61.9127 26.3777 64.2003 26.4559C69.1638 26.6245 71.942 23.1961 71.942 16.5711C71.942 9.62708 68.321 5.8405 62.8247 6.80671C61.0789 7.11373 59.4355 8.45619 58.99 9.67824L58.8335 9.63911ZM60.8833 21.348C59.2308 21.2005 59.0863 18.1153 59.0863 16.538C59.0863 14.9608 59.2338 11.9267 60.8833 11.728C62.4515 11.5384 63.0806 13.5732 63.0806 16.538C63.0806 19.5029 62.3221 21.4774 60.8833 21.348Z" fill="white" fill-opacity="0.47"/>
</svg>
