<svg width="181" height="35" viewBox="0 0 181 35" fill="none" xmlns="http://www.w3.org/2000/svg">
<path fill-rule="evenodd" clip-rule="evenodd" d="M29.1015 2.46532L29.208 3.4773C29.2344 3.72771 29.8501 9.68364 29.5427 16.037C29.4133 18.7147 28.6186 21.31 27.1808 23.7508C26.0444 25.6785 24.5048 27.5138 22.6051 29.204C19.3661 32.0854 16.1124 33.6205 15.7519 33.7863C15.5761 33.8668 15.2008 34.0254 15.1851 34.032L15.062 34.0837L14.9396 34.0317C14.9377 34.0309 14.931 34.028 14.9205 34.0235C14.8376 33.9881 14.5144 33.8498 14.3693 33.7828C14.007 33.6158 10.7347 32.0685 7.49669 29.1799C5.60324 27.4922 4.06932 25.6578 2.93701 23.7313C1.50483 21.2959 0.714795 18.7069 0.585739 16.0354C0.278327 9.6827 0.894406 3.72802 0.920469 3.4773L1.02723 2.46563L1.99405 2.14439C2.21574 2.07043 7.50454 0.340752 14.8755 0.298442C14.9157 0.296875 15.0181 0.296875 15.0639 0.296875H15.2523C22.6242 0.340752 27.9127 2.07043 28.1344 2.14439L29.1015 2.46532ZM27.6904 18.1399C27.8363 17.4209 27.9273 16.692 27.9626 15.9592C28.2675 9.65543 27.6354 3.64215 27.6354 3.64215C27.6354 3.64215 22.4402 1.91529 15.2219 1.8758H15.0649H14.9079C7.69075 1.91529 2.49395 3.64246 2.49395 3.64246C2.49395 3.64246 1.86123 9.65543 2.16582 15.9592C2.69083 26.8127 15.0605 32.3612 15.0605 32.3612H15.0683C15.0683 32.3612 21.8734 29.3099 25.6029 23.3039H6.60115V14.6539H3.83256L15.063 4.5623L26.2934 14.6539H18.5626L15.063 11.5089L11.7728 14.4646V18.1399H27.6904ZM40.4689 15.7521C40.4689 19.8686 43.322 23.2991 47.4464 23.2991C50.1962 23.2991 51.8805 22.2022 53.7708 20.4863L57.1392 24.0892C54.6642 26.73 51.9144 28.1716 47.2744 28.1716C40.1929 28.1716 34.9339 22.7168 34.9339 15.753C34.9339 8.9258 40.0896 3.33405 47.4797 3.33405C52.0168 3.33405 54.5602 5.04931 56.7944 7.24501L53.6324 10.8805C51.7775 9.1994 50.1962 8.20466 47.4464 8.20466C43.3907 8.20466 40.4689 11.5665 40.4689 15.7521ZM57.8968 23.4367C58.1021 23.4712 58.7552 23.5398 58.9958 23.5398C60.9549 23.5398 61.986 22.4075 61.986 9.37117H76.8005V27.7595H71.5758V13.83H66.9012C66.9012 26.0088 64.8046 27.9645 60.1987 27.9645C59.5114 27.9645 58.2396 27.8269 57.5523 27.6555L57.8968 23.4367ZM87.7308 9.16463C84.603 9.16463 82.6094 9.74788 80.5815 10.6395L81.8878 14.6197C83.5718 14.0023 84.9811 13.625 86.9747 13.625C89.5869 13.625 90.9274 14.8256 90.9274 16.9872V17.2959C89.6214 16.8496 88.281 16.5409 86.4249 16.5409C82.0602 16.5409 79.0005 18.3934 79.0005 22.4072C79.0005 26.1123 81.8532 28.1021 85.3249 28.1021C87.8683 28.1021 89.6214 27.1756 90.8932 25.7694V27.7592H95.9458V17.0903C95.9458 14.6201 95.3269 12.5961 93.9522 11.2237C92.6444 9.92025 90.5823 9.16463 87.7308 9.16463ZM90.9965 21.2746C90.9965 23.1616 89.3467 24.4992 86.9062 24.4992C85.2222 24.4992 84.0535 23.6762 84.0535 22.2693C84.0535 20.554 85.4282 19.6621 87.6624 19.6621C88.9344 19.6621 90.1028 19.9366 90.9965 20.3485V21.2746ZM114.988 13.9682C114.988 16.1984 113.647 17.4332 112.066 18.1192C114.299 18.8053 115.674 20.1776 115.675 22.7507C115.675 25.8725 113.062 27.7595 108.8 27.7595H98.7287V9.37117H108.835C112.547 9.37117 114.988 11.0864 114.988 13.9682ZM107.631 13.2135H103.884V16.7471H107.564C109.04 16.7471 109.762 15.958 109.762 14.8946C109.762 14.0026 109.143 13.2135 107.631 13.2135ZM103.884 23.6771H108.009C109.625 23.6771 110.381 22.9231 110.381 21.8236C110.381 20.8289 109.66 20.0398 107.872 20.0398H103.884V23.6771ZM135.474 9.37117H120.419V10.951C120.419 15.3763 120.178 20.0084 118.631 23.301H116.638V32.0836H121.037L121.414 27.7611H132.963V32.0836H137.363L137.983 23.2992H135.474V9.37117ZM130.249 23.2992H123.959C125.093 20.5888 125.299 17.3642 125.334 14.2418V13.8309H130.249V23.2992ZM138.224 18.5996C138.224 13.3163 142.486 9.02829 148.226 9.02829C153.931 9.02829 158.159 13.248 158.159 18.5996C158.159 23.883 153.897 28.171 148.157 28.171C142.451 28.171 138.224 23.9513 138.224 18.5996ZM143.38 18.6C143.38 21.3097 145.337 23.6771 148.226 23.6771C151.216 23.6771 153.004 21.3786 153.004 18.6C153.004 15.89 151.044 13.5228 148.157 13.5228C145.167 13.5228 143.38 15.821 143.38 18.6ZM175.207 9.37117L170.154 17.0903L165.17 9.37117H159.877V27.7595H165.033V16.8158L170.085 24.26L175.207 16.7127V27.7595H180.5V9.37117H175.207Z" fill="white" fill-opacity="0.47"/>
</svg>
