<svg width="100" height="34" viewBox="0 0 100 34" fill="none" xmlns="http://www.w3.org/2000/svg">
<path fill-rule="evenodd" clip-rule="evenodd" d="M17.7789 2.46582H2.14941C2.18214 2.47888 2.21936 2.49274 2.26047 2.50805C2.9597 2.76848 4.78431 3.44805 4.78431 7.74297V31.9119H19.2644C23.1634 31.9119 27.3889 29.2214 27.3889 23.9703C27.3889 18.4873 23.3979 17.0636 22.2154 16.6417C22.1666 16.6243 22.1217 16.6083 22.083 16.5941C22.1615 16.5689 22.2518 16.5424 22.352 16.513C23.6667 16.1277 26.6703 15.2473 26.6703 10.1255C26.6703 4.86146 23.6859 2.46582 17.7789 2.46582ZM17.1226 26.1856H12.1899L12.1898 19.6588H16.5561C19.2873 19.6588 19.8584 21.5501 19.8584 23.0297C19.8584 24.8441 18.9741 26.1856 17.1226 26.1856ZM16.8953 13.9277H12.1899V8.19644H16.5562C18.4341 8.19644 19.3473 9.07814 19.3473 11.0621C19.3473 13.1408 18.0226 13.9277 16.8953 13.9277Z" fill="white" fill-opacity="0.47"/>
<path fill-rule="evenodd" clip-rule="evenodd" d="M49.0905 25.3894L51.5157 31.9129L65.4618 31.913L65.4305 31.8833C65.0507 31.5251 63.192 29.7716 65.0569 27.5656C65.2247 27.3674 67.3908 24.8058 70.2798 21.3893L76.298 31.9131H86.2276L75.0487 15.7503C80.5543 9.23982 86.281 2.46692 86.281 2.46692H73.1428C75.1625 3.14765 75.1597 5.27018 74.003 6.62785C73.8351 6.82473 72.221 8.73367 69.949 11.4209L64.8479 2.46692H54.9189L65.0989 17.1584C62.3008 20.4686 59.3358 23.9766 56.9994 26.7412L47.8981 2.46643H35.5213C35.9144 2.61513 37.6131 3.33488 36.5251 6.7218C36.0512 8.19726 28.4407 31.9129 28.4407 31.9129H38.3185C38.2154 31.8392 36.3691 30.2837 37.0377 28.1133C37.215 27.5384 37.9189 25.3894 37.9189 25.3894H49.0905ZM46.9213 19.6602H39.7583L43.0595 9.35922L46.9213 19.6602Z" fill="white" fill-opacity="0.47"/>
<path d="M97.8491 2.46692H87.3326C87.3596 2.47779 87.3894 2.48921 87.4215 2.50155C88.0852 2.7565 89.7777 3.40672 89.7777 7.74407V31.913H97.8491V2.46692Z" fill="white" fill-opacity="0.47"/>
</svg>
