<svg xmlns="http://www.w3.org/2000/svg"  viewBox="0 0 53 53" >
<path d="M8.33216 8.33518C7.31974 9.36232 6.65461 10.8044 6.28378 13.5445C5.90413 16.3845 5.90119 20.1458 5.90119 25.5582V27.4417C5.90119 32.8453 5.90413 36.6036 6.28378 39.4407C6.65167 42.1837 7.31974 43.6347 8.3351 44.6706C9.36518 45.6801 10.8073 46.3482 13.5443 46.7161C16.3844 47.0957 20.1456 47.1016 25.5579 47.1016H27.4415C32.845 47.1016 36.6033 47.0957 39.4433 46.7161C42.1833 46.3482 43.6342 45.6801 44.6702 44.6647C45.6797 43.6376 46.3477 42.1955 46.7156 39.4555C47.0982 36.6154 47.1012 32.8541 47.1012 27.4417V25.5582C47.1012 20.1546 47.0953 16.3963 46.7186 13.5592C46.3477 10.8162 45.6797 9.36526 44.6643 8.3293C43.6372 7.31981 42.1951 6.65173 39.4551 6.28384C36.615 5.90419 32.8538 5.8983 27.4415 5.8983H25.5579C20.1545 5.8983 16.3962 5.90419 13.559 6.28384C10.8161 6.65173 9.36812 7.31981 8.33216 8.33518ZM25.5579 0.012111H27.4415C31.6942 0.012111 36.0117 -0.114442 40.235 0.450632C43.6372 0.906811 46.5184 1.88098 48.8199 4.15893L48.8435 4.18542C51.1185 6.4928 52.0955 9.37409 52.5517 12.7793C53.1138 16.9967 52.9873 21.3113 52.9873 25.5582V27.4417C52.9873 31.6916 53.1168 36.0091 52.5488 40.2354C52.0956 43.6376 51.1185 46.5189 48.8405 48.8204L48.814 48.8439C46.5096 51.1189 43.6284 52.0931 40.2203 52.5522C36.0029 53.1144 31.6883 52.9878 27.4415 52.9878H25.5579C21.3081 52.9878 16.9907 53.1144 12.7674 52.5493C9.36223 52.0931 6.48097 51.1189 4.18244 48.841L4.15595 48.8145C1.8839 46.5071 0.906803 43.6258 0.450628 40.2207C-0.114441 36.0062 0.0121109 31.6916 0.0121109 27.4417V25.5582C0.0121109 21.3083 -0.114441 16.9908 0.453571 12.7645C0.906803 9.36232 1.8839 6.48103 4.16183 4.17953L4.18538 4.15599C6.49274 1.88098 9.374 0.906812 12.7791 0.447689C16.9995 -0.111499 21.314 0.012111 25.5579 0.012111ZM8.94726 16.1344C9.22979 29.9081 16.1166 38.1723 28.1949 38.1723H28.9012V30.2965C33.3335 30.738 36.6886 33.9872 38.0306 38.1723H44.2994C43.6568 35.794 42.5171 33.579 40.9556 31.6735C39.3941 29.7681 37.4462 28.2154 35.2406 27.118C37.2166 25.9142 38.9233 24.3161 40.254 22.4232C41.5848 20.5304 42.511 18.3835 42.975 16.1167H37.289C36.0529 20.496 32.38 24.4692 28.9012 24.8401V16.1344H23.1976V31.3914C19.6659 30.5084 15.216 26.2351 15.0217 16.1344H8.94726Z" fill="white"/>
<path d="M8.33216 8.33518C7.31974 9.36232 6.65461 10.8044 6.28378 13.5445C5.90413 16.3845 5.90119 20.1458 5.90119 25.5582V27.4417C5.90119 32.8453 5.90413 36.6036 6.28378 39.4407C6.65167 42.1837 7.31974 43.6347 8.3351 44.6706C9.36518 45.6801 10.8073 46.3482 13.5443 46.7161C16.3844 47.0957 20.1456 47.1016 25.5579 47.1016H27.4415C32.845 47.1016 36.6033 47.0957 39.4433 46.7161C42.1833 46.3482 43.6342 45.6801 44.6702 44.6647C45.6797 43.6376 46.3477 42.1955 46.7156 39.4555C47.0982 36.6154 47.1012 32.8541 47.1012 27.4417V25.5582C47.1012 20.1546 47.0953 16.3963 46.7186 13.5592C46.3477 10.8162 45.6797 9.36526 44.6643 8.3293C43.6372 7.31981 42.1951 6.65173 39.4551 6.28384C36.615 5.90419 32.8538 5.8983 27.4415 5.8983H25.5579C20.1545 5.8983 16.3962 5.90419 13.559 6.28384C10.8161 6.65173 9.36812 7.31981 8.33216 8.33518ZM25.5579 0.012111H27.4415C31.6942 0.012111 36.0117 -0.114442 40.235 0.450632C43.6372 0.906811 46.5184 1.88098 48.8199 4.15893L48.8435 4.18542C51.1185 6.4928 52.0955 9.37409 52.5517 12.7793C53.1138 16.9967 52.9873 21.3113 52.9873 25.5582V27.4417C52.9873 31.6916 53.1168 36.0091 52.5488 40.2354C52.0956 43.6376 51.1185 46.5189 48.8405 48.8204L48.814 48.8439C46.5096 51.1189 43.6284 52.0931 40.2203 52.5522C36.0029 53.1144 31.6883 52.9878 27.4415 52.9878H25.5579C21.3081 52.9878 16.9907 53.1144 12.7674 52.5493C9.36223 52.0931 6.48097 51.1189 4.18244 48.841L4.15595 48.8145C1.8839 46.5071 0.906803 43.6258 0.450628 40.2207C-0.114441 36.0062 0.0121109 31.6916 0.0121109 27.4417V25.5582C0.0121109 21.3083 -0.114441 16.9908 0.453571 12.7645C0.906803 9.36232 1.8839 6.48103 4.16183 4.17953L4.18538 4.15599C6.49274 1.88098 9.374 0.906812 12.7791 0.447689C16.9995 -0.111499 21.314 0.012111 25.5579 0.012111ZM8.94726 16.1344C9.22979 29.9081 16.1166 38.1723 28.1949 38.1723H28.9012V30.2965C33.3335 30.738 36.6886 33.9872 38.0306 38.1723H44.2994C43.6568 35.794 42.5171 33.579 40.9556 31.6735C39.3941 29.7681 37.4462 28.2154 35.2406 27.118C37.2166 25.9142 38.9233 24.3161 40.254 22.4232C41.5848 20.5304 42.511 18.3835 42.975 16.1167H37.289C36.0529 20.496 32.38 24.4692 28.9012 24.8401V16.1344H23.1976V31.3914C19.6659 30.5084 15.216 26.2351 15.0217 16.1344H8.94726Z" fill="white"/>
</svg>
