<svg width="auto" height="auto" viewBox="0 0 70 71" fill="none" xmlns="http://www.w3.org/2000/svg">
<path d="M17.3322 17.8352C16.3197 18.8623 15.6546 20.3044 15.2838 23.0445C14.9041 25.8845 14.9012 29.6458 14.9012 35.0582V36.9417C14.9012 42.3453 14.9041 46.1036 15.2838 48.9407C15.6517 51.6837 16.3197 53.1347 17.3351 54.1706C18.3652 55.1801 19.8073 55.8482 22.5443 56.2161C25.3844 56.5957 29.1456 56.6016 34.5579 56.6016H36.4415C41.845 56.6016 45.6033 56.5957 48.4433 56.2161C51.1833 55.8482 52.6342 55.1801 53.6702 54.1647C54.6797 53.1376 55.3477 51.6955 55.7156 48.9555C56.0982 46.1154 56.1012 42.3541 56.1012 36.9417V35.0582C56.1012 29.6546 56.0953 25.8963 55.7186 23.0592C55.3477 20.3162 54.6797 18.8653 53.6643 17.8293C52.6372 16.8198 51.1951 16.1517 48.4551 15.7838C45.615 15.4042 41.8538 15.3983 36.4415 15.3983H34.5579C29.1545 15.3983 25.3962 15.4042 22.559 15.7838C19.8161 16.1517 18.3681 16.8198 17.3322 17.8352ZM34.5579 9.51211H36.4415C40.6942 9.51211 45.0117 9.38556 49.235 9.95063C52.6372 10.4068 55.5184 11.381 57.8199 13.6589L57.8435 13.6854C60.1185 15.9928 61.0955 18.8741 61.5517 22.2793C62.1138 26.4967 61.9873 30.8113 61.9873 35.0582V36.9417C61.9873 41.1916 62.1168 45.5091 61.5488 49.7354C61.0956 53.1376 60.1185 56.0189 57.8405 58.3204L57.814 58.3439C55.5096 60.6189 52.6284 61.5931 49.2203 62.0522C45.0029 62.6144 40.6883 62.4878 36.4415 62.4878H34.5579C30.3081 62.4878 25.9907 62.6144 21.7674 62.0493C18.3622 61.5931 15.481 60.6189 13.1824 58.341L13.1559 58.3145C10.8839 56.0071 9.9068 53.1258 9.45063 49.7207C8.88556 45.5062 9.01211 41.1916 9.01211 36.9417V35.0582C9.01211 30.8083 8.88556 26.4908 9.45357 22.2645C9.9068 18.8623 10.8839 15.981 13.1618 13.6795L13.1854 13.656C15.4927 11.381 18.374 10.4068 21.7791 9.94769C25.9995 9.3885 30.314 9.51211 34.5579 9.51211ZM17.9473 25.6344C18.2298 39.4081 25.1166 47.6723 37.1949 47.6723H37.9012V39.7965C42.3335 40.238 45.6886 43.4872 47.0306 47.6723H53.2994C52.6568 45.294 51.5171 43.079 49.9556 41.1735C48.3941 39.2681 46.4462 37.7154 44.2406 36.618C46.2166 35.4142 47.9233 33.8161 49.254 31.9232C50.5848 30.0304 51.511 27.8835 51.975 25.6167H46.289C45.0529 29.996 41.38 33.9692 37.9012 34.3401V25.6344H32.1976V40.8914C28.6659 40.0084 24.216 35.7351 24.0217 25.6344H17.9473Z" fill="white"/>
</svg>
