<svg width="1060" height="447" viewBox="0 0 1060 447" fill="none" xmlns="http://www.w3.org/2000/svg">
<g clip-path="url(#clip0_3642_2711)">
<path fill-rule="evenodd" clip-rule="evenodd" d="M263 443V4H0V443H263Z" fill="url(#paint0_linear_3642_2711)"/>
<path fill-rule="evenodd" clip-rule="evenodd" d="M0 443H263V272.518L131.484 141.258L0 272.518V443Z" fill="url(#paint1_linear_3642_2711)"/>
</g>
<path d="M339.629 122H311.014V72.4687H264.83V122H236.215V3.52658H264.83V48.3724H311.014V3.52658H339.629V122ZM487.498 62.2613C487.498 99.7444 460.055 125.179 422.907 125.179C385.926 125.179 358.483 99.7444 358.483 62.2613C358.483 24.2762 385.926 0.347196 422.907 0.347196C460.055 0.347196 487.498 24.2762 487.498 62.2613ZM456.876 62.2613C456.876 41.5117 442.987 26.1168 422.907 26.1168C402.827 26.1168 389.105 41.5117 389.105 62.2613C389.105 83.6802 402.994 99.0751 422.907 99.0751C442.82 99.0751 456.876 83.6802 456.876 62.2613ZM606.739 77.3215C606.739 105.768 586.659 125.179 555.702 125.179C524.577 125.179 505.167 105.768 505.167 77.3215V3.52658H533.614V74.9788C533.614 87.6963 539.805 99.4097 555.869 99.4097C572.101 99.4097 578.125 87.6963 578.125 74.9788V3.52658H606.739V77.3215ZM710.701 15.0727L692.462 34.3163C687.609 28.1249 678.74 24.1088 671.378 24.1088C664.015 24.1088 654.811 26.6188 654.811 35.9896C654.811 43.8544 661.839 46.3644 673.051 49.8785C689.115 55.0659 709.865 61.9266 709.865 85.5209C709.865 112.797 687.944 125.012 664.517 125.012C647.616 125.012 630.548 118.821 620.173 107.944L638.914 88.8676C644.604 96.063 655.146 101.418 664.517 101.418C673.218 101.418 680.916 98.071 680.916 88.5329C680.916 79.4968 671.88 76.6521 656.317 71.6321C641.257 66.7793 626.03 59.0819 626.03 37.663C626.03 11.3913 649.791 0.51454 671.88 0.51454C685.266 0.51454 700.327 5.5346 710.701 15.0727ZM811.407 122H728.744V3.52658H808.395V27.7902H756.354V50.0458H805.55V72.9707H756.354V97.569H811.407V122Z" fill="white"/>
<path d="M328.585 248.529C328.585 274.299 305.994 283 283.404 283H236.215V164.527H283.404C301.811 164.527 323.732 171.053 323.732 194.982C323.732 208.034 315.867 216.735 304.321 220.584V220.919C317.875 223.261 328.585 232.967 328.585 248.529ZM296.122 198.83C296.122 190.798 289.93 187.284 277.882 187.284H263.826V211.715H279.221C289.93 211.715 296.122 207.197 296.122 198.83ZM299.97 245.852C299.97 235.979 291.938 232.799 279.723 232.799H263.826V259.908H279.89C288.926 259.908 299.97 257.398 299.97 245.852ZM447.901 238.321C447.901 266.768 427.821 286.179 396.864 286.179C365.74 286.179 346.329 266.768 346.329 238.321V164.527H374.776V235.979C374.776 248.696 380.967 260.41 397.031 260.41C413.263 260.41 419.287 248.696 419.287 235.979V164.527H447.901V238.321ZM551.864 176.073L533.624 195.316C528.771 189.125 519.902 185.109 512.54 185.109C505.177 185.109 495.974 187.619 495.974 196.99C495.974 204.854 503.002 207.364 514.213 210.878C530.277 216.066 551.027 222.927 551.027 246.521C551.027 273.797 529.106 286.012 505.679 286.012C488.778 286.012 471.71 279.821 461.335 268.944L480.077 249.868C485.766 257.063 496.308 262.418 505.679 262.418C514.38 262.418 522.078 259.071 522.078 249.533C522.078 240.497 513.042 237.652 497.48 232.632C482.419 227.779 467.192 220.082 467.192 198.663C467.192 172.391 490.953 161.515 513.042 161.515C526.429 161.515 541.489 166.535 551.864 176.073ZM598.687 283H569.906V164.527H598.687V283ZM730.942 283H698.479L650.789 205.524H650.287L650.956 283H623.178V164.527H655.809L703.332 241.836H703.834L703.165 164.527H730.942V283ZM838.044 283H755.38V164.527H835.032V188.79H782.99V211.046H832.187V233.971H782.99V258.569H838.044V283ZM937.846 176.073L919.607 195.316C914.754 189.125 905.885 185.109 898.522 185.109C891.16 185.109 881.956 187.619 881.956 196.99C881.956 204.854 888.984 207.364 900.196 210.878C916.26 216.066 937.009 222.927 937.009 246.521C937.009 273.797 915.088 286.012 891.662 286.012C874.761 286.012 857.692 279.821 847.318 268.944L866.059 249.868C871.749 257.063 882.291 262.418 891.662 262.418C900.363 262.418 908.06 259.071 908.06 249.533C908.06 240.497 899.024 237.652 883.462 232.632C868.402 227.779 853.174 220.082 853.174 198.663C853.174 172.391 876.936 161.515 899.024 161.515C912.411 161.515 927.471 166.535 937.846 176.073ZM1036.71 176.073L1018.47 195.316C1013.62 189.125 1004.75 185.109 997.387 185.109C990.025 185.109 980.821 187.619 980.821 196.99C980.821 204.854 987.849 207.364 999.061 210.878C1015.12 216.066 1035.87 222.927 1035.87 246.521C1035.87 273.797 1013.95 286.012 990.527 286.012C973.626 286.012 956.558 279.821 946.183 268.944L964.924 249.868C970.614 257.063 981.156 262.418 990.527 262.418C999.228 262.418 1006.93 259.071 1006.93 249.533C1006.93 240.497 997.889 237.652 982.327 232.632C967.267 227.779 952.039 220.082 952.039 198.663C952.039 172.391 975.801 161.515 997.889 161.515C1011.28 161.515 1026.34 166.535 1036.71 176.073Z" fill="white"/>
<path d="M346.824 383.429C346.824 425.095 313.022 443 280.392 443H236.215V324.527H279.053C312.688 324.527 346.824 338.583 346.824 383.429ZM317.038 383.429C317.038 356.822 298.13 348.958 278.384 348.958H264.16V418.234H277.715C298.13 418.234 317.038 409.868 317.038 383.429ZM473.832 443H442.038L432.835 419.74H386.985L378.283 443H347.159L396.857 324.527H424.635L473.832 443ZM424.97 396.815L410.244 356.153L395.184 396.815H424.97ZM576.734 324.527L531.219 392.799V443H502.604V392.799L458.093 324.527H492.731L517.999 368.368L543.267 324.527H576.734ZM708.181 443H622.505V419.573L668.69 377.739C674.546 372.217 678.395 366.695 678.395 359.5C678.395 351.133 672.538 345.276 663.67 345.276C654.299 345.276 648.108 352.639 646.936 363.181L619.995 359.5C622.673 335.571 642.083 321.347 665.176 321.347C686.929 321.347 708.014 332.893 708.014 357.659C708.014 374.56 698.141 384.433 687.264 394.138L659.821 418.569H708.181V443ZM819.707 383.429C819.707 417.063 806.99 446.179 773.523 446.179C739.888 446.179 727.004 417.063 727.004 383.429C727.004 349.962 739.888 321.347 773.523 321.347C806.99 321.347 819.707 349.962 819.707 383.429ZM790.926 383.429C790.926 368.536 788.248 345.109 773.523 345.109C758.63 345.109 755.785 368.536 755.785 383.429C755.785 398.656 758.63 422.083 773.523 422.083C788.248 422.083 790.926 398.656 790.926 383.429ZM924.54 443H838.865V419.573L885.049 377.739C890.906 372.217 894.755 366.695 894.755 359.5C894.755 351.133 888.898 345.276 880.029 345.276C870.658 345.276 864.467 352.639 863.296 363.181L836.355 359.5C839.032 335.571 858.443 321.347 881.535 321.347C903.289 321.347 924.373 332.893 924.373 357.659C924.373 374.56 914.5 384.433 903.623 394.138L876.18 418.569H924.54V443ZM1033.05 403.844C1033.05 432.625 1010.63 446.179 987.372 446.179C965.786 446.179 947.881 434.801 942.359 416.059L967.961 408.194C970.471 416.394 977.834 422.418 987.037 422.418C996.576 422.418 1004.77 416.561 1004.77 405.182C1004.77 391.126 992.057 387.11 980.511 387.11C972.145 387.11 959.929 389.285 951.562 392.297L954.407 324.527H1027.03V348.623H979.34L978.336 367.364C981.85 366.528 986.703 366.193 990.217 366.193C1013.98 366.193 1033.05 378.911 1033.05 403.844Z" fill="white"/>
<defs>
<linearGradient id="paint0_linear_3642_2711" x1="294.169" y1="416.882" x2="-30.2393" y2="29.3082" gradientUnits="userSpaceOnUse">
<stop stop-color="#E64123"/>
<stop offset="1" stop-color="#F6A30A"/>
</linearGradient>
<linearGradient id="paint1_linear_3642_2711" x1="279.112" y1="415.108" x2="8.15947" y2="258.395" gradientUnits="userSpaceOnUse">
<stop stop-color="#E64123"/>
<stop offset="1" stop-color="#EB6420"/>
</linearGradient>
<clipPath id="clip0_3642_2711">
<rect width="263" height="439" fill="white" transform="translate(0 4)"/>
</clipPath>
</defs>
</svg>
